G75*
%MOIN*%
%OFA0B0*%
%FSLAX24Y24*%
%IPPOS*%
%LPD*%
%AMOC8*
5,1,8,0,0,1.08239X$1,22.5*
%
%ADD10C,0.0100*%
D10*
X009554Y002449D02*
X009747Y002449D01*
X010134Y002063D01*
X010134Y002449D02*
X010134Y001676D01*
X010520Y001676D02*
X011101Y001676D01*
X011294Y001869D01*
X011294Y002256D01*
X011101Y002449D01*
X010520Y002449D01*
X010520Y001482D01*
X010714Y001289D01*
X010907Y001289D01*
X011681Y001676D02*
X011874Y001676D01*
X011874Y001869D01*
X011681Y001869D01*
X011681Y001676D01*
X012260Y001676D02*
X012841Y001676D01*
X013034Y001869D01*
X013034Y002449D01*
X013421Y002449D02*
X013614Y002449D01*
X014001Y002063D01*
X014001Y002449D02*
X014001Y001676D01*
X014388Y001676D02*
X014581Y001869D01*
X014581Y002643D01*
X014774Y002449D02*
X014388Y002449D01*
X015354Y002449D02*
X015354Y001676D01*
X015161Y001676D02*
X015548Y001676D01*
X015934Y001676D02*
X015934Y002256D01*
X016127Y002449D01*
X016321Y002256D01*
X016321Y001676D01*
X016708Y001676D02*
X016708Y002449D01*
X016514Y002449D01*
X016321Y002256D01*
X017094Y002449D02*
X017674Y002449D01*
X017868Y002256D01*
X017868Y001869D01*
X017674Y001676D01*
X017094Y001676D01*
X017094Y002836D01*
X018254Y002836D02*
X019028Y001676D01*
X020188Y001676D02*
X019414Y002836D01*
X020575Y002449D02*
X020575Y002256D01*
X020768Y002256D01*
X020768Y002449D01*
X020575Y002449D01*
X021154Y002449D02*
X021735Y002449D01*
X021928Y002256D01*
X021735Y002063D01*
X021348Y002063D01*
X021154Y001869D01*
X021348Y001676D01*
X021928Y001676D01*
X022314Y001869D02*
X022508Y001676D01*
X023088Y001676D01*
X023475Y001676D02*
X023668Y001869D01*
X023668Y002643D01*
X023861Y002449D02*
X023475Y002449D01*
X023088Y002449D02*
X022508Y002449D01*
X022314Y002256D01*
X022314Y001869D01*
X023088Y001289D02*
X023088Y002449D01*
X024248Y002449D02*
X024635Y002449D01*
X024441Y002643D02*
X024441Y001869D01*
X024248Y001676D01*
X025021Y001676D02*
X025021Y002256D01*
X025214Y002449D01*
X025601Y002449D01*
X025795Y002256D01*
X025795Y002836D02*
X025795Y001676D01*
X027341Y001676D02*
X027535Y001676D01*
X027535Y001869D01*
X027341Y001869D01*
X027341Y001676D01*
X027921Y001869D02*
X027921Y002256D01*
X028115Y002449D01*
X028502Y002449D01*
X028695Y002256D01*
X028695Y001869D01*
X028502Y001676D01*
X028115Y001676D01*
X027921Y001869D01*
X027535Y002256D02*
X027535Y002449D01*
X027341Y002449D01*
X027341Y002256D01*
X027535Y002256D01*
X029081Y002256D02*
X029468Y002256D01*
X029855Y002256D02*
X029855Y001676D01*
X029275Y001676D02*
X029275Y002643D01*
X029081Y002836D01*
X029855Y002256D02*
X030048Y002449D01*
X030628Y002449D01*
X030628Y001676D01*
X031015Y001676D02*
X031402Y001676D01*
X031208Y001676D02*
X031208Y002449D01*
X031402Y002449D01*
X031208Y002836D02*
X031208Y003030D01*
X032948Y002256D02*
X032948Y002063D01*
X033722Y002063D01*
X033722Y002256D02*
X033722Y001869D01*
X033528Y001676D01*
X033141Y001676D01*
X032948Y002256D02*
X033141Y002449D01*
X033528Y002449D01*
X033722Y002256D01*
X034108Y002449D02*
X034302Y002449D01*
X034689Y002063D01*
X035075Y002256D02*
X035075Y001869D01*
X035268Y001676D01*
X035655Y001676D01*
X035849Y001869D01*
X035849Y002256D01*
X035655Y002449D01*
X035268Y002449D01*
X035075Y002256D01*
X034689Y002449D02*
X034689Y001676D01*
X036235Y001676D02*
X036235Y002256D01*
X036428Y002449D01*
X036622Y002256D01*
X036622Y001676D01*
X037009Y001676D02*
X037009Y002449D01*
X036815Y002449D01*
X036622Y002256D01*
X031595Y005068D02*
X031595Y006229D01*
X031015Y006229D01*
X030821Y006036D01*
X030821Y005649D01*
X031015Y005455D01*
X031595Y005455D01*
X030435Y005649D02*
X030242Y005842D01*
X029661Y005842D01*
X029661Y006036D02*
X029661Y005455D01*
X030242Y005455D01*
X030435Y005649D01*
X030242Y006229D02*
X029855Y006229D01*
X029661Y006036D01*
X029275Y006036D02*
X029082Y006229D01*
X028501Y006229D01*
X028115Y006036D02*
X027922Y006229D01*
X027341Y006229D01*
X026955Y006229D02*
X026955Y005649D01*
X026761Y005455D01*
X026568Y005649D01*
X026375Y005455D01*
X026181Y005649D01*
X026181Y006229D01*
X025795Y006036D02*
X025795Y005649D01*
X025601Y005455D01*
X025214Y005455D01*
X025021Y005649D01*
X025021Y006036D01*
X025214Y006229D01*
X025601Y006229D01*
X025795Y006036D01*
X024635Y006229D02*
X024635Y005455D01*
X024635Y005842D02*
X024248Y006229D01*
X024054Y006229D01*
X023668Y006036D02*
X023475Y006229D01*
X022894Y006229D01*
X022894Y006616D02*
X022894Y005455D01*
X023475Y005455D01*
X023668Y005649D01*
X023668Y006036D01*
X023668Y007345D02*
X023668Y008119D01*
X023088Y008119D01*
X022894Y007925D01*
X022894Y007345D01*
X022508Y007538D02*
X022508Y007925D01*
X022315Y008119D01*
X021928Y008119D01*
X021734Y007925D01*
X021734Y007732D01*
X022508Y007732D01*
X022508Y007538D02*
X022315Y007345D01*
X021928Y007345D01*
X021155Y006809D02*
X021155Y006616D01*
X021155Y006229D02*
X021155Y005455D01*
X021348Y005455D02*
X020961Y005455D01*
X020575Y005455D02*
X019994Y005455D01*
X019801Y005649D01*
X019994Y005842D01*
X020381Y005842D01*
X020575Y006036D01*
X020381Y006229D01*
X019801Y006229D01*
X021155Y006229D02*
X021348Y006229D01*
X020188Y007345D02*
X020188Y008506D01*
X019995Y008119D02*
X019608Y008119D01*
X019414Y007925D01*
X019414Y007345D01*
X019028Y007538D02*
X018834Y007732D01*
X018254Y007732D01*
X018254Y007925D02*
X018254Y007345D01*
X018834Y007345D01*
X019028Y007538D01*
X018448Y008119D02*
X018254Y007925D01*
X018448Y008119D02*
X018834Y008119D01*
X017868Y007925D02*
X017674Y007732D01*
X017287Y007732D01*
X017094Y007538D01*
X017287Y007345D01*
X017868Y007345D01*
X018061Y006809D02*
X018061Y006422D01*
X018255Y006229D01*
X017868Y006229D02*
X017674Y006422D01*
X017674Y006809D01*
X017288Y006229D02*
X017094Y006229D01*
X016901Y006036D01*
X016707Y006229D01*
X016514Y006036D01*
X016514Y005455D01*
X016128Y005455D02*
X015741Y005455D01*
X015934Y005455D02*
X015934Y006229D01*
X016128Y006229D01*
X015934Y006616D02*
X015934Y006809D01*
X015548Y007345D02*
X014967Y007345D01*
X014774Y007538D01*
X014774Y007925D01*
X014967Y008119D01*
X015548Y008119D01*
X015548Y008506D02*
X015548Y007345D01*
X014388Y007538D02*
X014388Y007925D01*
X014194Y008119D01*
X013807Y008119D01*
X013614Y007925D01*
X013614Y007538D01*
X013807Y007345D01*
X014194Y007345D01*
X014388Y007538D01*
X013228Y007538D02*
X013034Y007345D01*
X012647Y007345D01*
X012454Y007538D01*
X012454Y007925D01*
X012647Y008119D01*
X013034Y008119D01*
X013228Y007925D01*
X013228Y007538D01*
X012841Y006809D02*
X012841Y006422D01*
X013034Y006229D01*
X013421Y006229D02*
X014001Y006229D01*
X014194Y006036D01*
X014001Y005842D01*
X013614Y005842D01*
X013421Y005649D01*
X013614Y005455D01*
X014194Y005455D01*
X014581Y005649D02*
X014774Y005455D01*
X015354Y005455D01*
X015354Y005068D02*
X015354Y006229D01*
X014774Y006229D01*
X014581Y006036D01*
X014581Y005649D01*
X012647Y006229D02*
X012454Y006422D01*
X012454Y006809D01*
X011874Y007538D02*
X011681Y007345D01*
X011874Y007538D02*
X011874Y008312D01*
X011681Y008119D02*
X012068Y008119D01*
X012841Y009235D02*
X012647Y009428D01*
X012841Y009622D01*
X013228Y009622D01*
X013421Y009815D01*
X013228Y010009D01*
X012647Y010009D01*
X011874Y010737D02*
X011874Y011898D01*
X011294Y011898D01*
X011100Y011705D01*
X011100Y011318D01*
X011294Y011124D01*
X011874Y011124D01*
X012260Y011124D02*
X012260Y011898D01*
X013034Y011898D02*
X013034Y011318D01*
X012841Y011124D01*
X012260Y011124D01*
X010714Y011124D02*
X010521Y011124D01*
X010521Y011318D01*
X010714Y011318D01*
X010714Y011124D01*
X009747Y010202D02*
X009554Y010395D01*
X009747Y010202D02*
X009747Y009235D01*
X010327Y009428D02*
X010521Y009235D01*
X010908Y009235D01*
X011101Y009428D01*
X011101Y009815D01*
X010908Y010009D01*
X010521Y010009D01*
X010327Y009815D01*
X010327Y009428D01*
X009941Y009815D02*
X009554Y009815D01*
X008008Y009428D02*
X007814Y009235D01*
X007234Y009235D01*
X007234Y009815D01*
X007427Y010009D01*
X007814Y010009D01*
X007814Y009622D02*
X007234Y009622D01*
X007814Y009622D02*
X008008Y009428D01*
X007621Y008312D02*
X007621Y007538D01*
X007427Y007345D01*
X007041Y007345D02*
X006460Y007345D01*
X006267Y007538D01*
X006267Y007925D01*
X006460Y008119D01*
X007041Y008119D01*
X007041Y006958D01*
X008200Y007345D02*
X008200Y008119D01*
X007814Y008119D02*
X007427Y008119D01*
X008200Y007345D02*
X008781Y007345D01*
X008974Y007538D01*
X008974Y008119D01*
X009360Y007925D02*
X009554Y008119D01*
X009941Y008119D01*
X010134Y007925D01*
X010134Y007538D01*
X009941Y007345D01*
X009554Y007345D01*
X009360Y007538D01*
X009360Y007925D01*
X005881Y008119D02*
X005881Y007538D01*
X005687Y007345D01*
X005107Y007345D01*
X005107Y008119D01*
X004721Y008119D02*
X004334Y008119D01*
X004527Y008312D02*
X004527Y007538D01*
X004334Y007345D01*
X003947Y007345D02*
X003947Y007538D01*
X003754Y007538D01*
X003754Y007345D01*
X003947Y007345D01*
X004914Y010737D02*
X005107Y010737D01*
X004914Y010737D02*
X004720Y010931D01*
X004720Y011898D01*
X005494Y011898D02*
X005494Y011318D01*
X005301Y011124D01*
X004720Y011124D01*
X005880Y011511D02*
X006654Y011511D01*
X006654Y011318D02*
X006654Y011705D01*
X006461Y011898D01*
X006074Y011898D01*
X005880Y011705D01*
X005880Y011511D01*
X006074Y011124D02*
X006461Y011124D01*
X006654Y011318D01*
X007040Y011124D02*
X007040Y011705D01*
X007234Y011898D01*
X007621Y011898D01*
X007814Y011705D01*
X007814Y012285D02*
X007814Y011124D01*
X008587Y011124D02*
X008587Y012285D01*
X008974Y012285D02*
X008200Y012285D01*
X007814Y013014D02*
X007621Y013208D01*
X007427Y013014D01*
X007234Y013208D01*
X007234Y013788D01*
X008008Y013788D02*
X008008Y013208D01*
X007814Y013014D01*
X008394Y013401D02*
X009168Y013401D01*
X009168Y013208D02*
X009168Y013595D01*
X008974Y013788D01*
X008587Y013788D01*
X008394Y013595D01*
X008394Y013401D01*
X008587Y013014D02*
X008974Y013014D01*
X009168Y013208D01*
X009747Y013014D02*
X009747Y013982D01*
X009554Y014175D01*
X009554Y013595D02*
X009941Y013595D01*
X011487Y013595D02*
X012261Y013595D01*
X012261Y013788D02*
X011874Y014175D01*
X011487Y013788D01*
X011487Y013014D01*
X012261Y013014D02*
X012261Y013788D01*
X013808Y013208D02*
X013808Y013014D01*
X014001Y013014D01*
X014001Y013208D01*
X013808Y013208D01*
X014387Y013788D02*
X014581Y013788D01*
X014968Y013401D01*
X015354Y013401D02*
X015354Y013595D01*
X015547Y013788D01*
X015934Y013788D01*
X016128Y013595D01*
X016128Y013208D01*
X015934Y013014D01*
X015547Y013014D01*
X014968Y013014D02*
X014968Y013788D01*
X015354Y013401D02*
X016128Y013401D01*
X016514Y013014D02*
X016708Y013208D01*
X016708Y013982D01*
X016901Y013788D02*
X016514Y013788D01*
X017287Y013788D02*
X017287Y013014D01*
X017868Y013014D01*
X018061Y013208D01*
X018061Y013788D01*
X018447Y013595D02*
X018447Y013208D01*
X018641Y013014D01*
X019221Y013014D01*
X019607Y013014D02*
X019607Y013595D01*
X019801Y013788D01*
X019994Y013595D01*
X019994Y013014D01*
X020381Y013014D02*
X020381Y013788D01*
X020188Y013788D01*
X019994Y013595D01*
X020767Y013595D02*
X020767Y013208D01*
X020961Y013014D01*
X021348Y013014D01*
X021541Y013208D01*
X021541Y013595D01*
X021348Y013788D01*
X020961Y013788D01*
X020767Y013595D01*
X021928Y013788D02*
X022508Y013788D01*
X022701Y013595D01*
X022701Y013208D01*
X022508Y013014D01*
X021928Y013014D01*
X022121Y012479D02*
X022121Y012285D01*
X021541Y012285D02*
X021348Y012285D01*
X021348Y011124D01*
X021541Y011124D02*
X021154Y011124D01*
X020768Y011124D02*
X020381Y011124D01*
X020575Y011124D02*
X020575Y012285D01*
X020768Y012285D01*
X022121Y011898D02*
X022121Y011124D01*
X021928Y011124D02*
X022315Y011124D01*
X022701Y011318D02*
X022701Y011898D01*
X022315Y011898D02*
X022121Y011898D01*
X022701Y011318D02*
X022894Y011124D01*
X023088Y011318D01*
X023281Y011124D01*
X023475Y011318D01*
X023475Y011898D01*
X025021Y011898D02*
X025601Y011898D01*
X025795Y011705D01*
X025601Y011511D01*
X025214Y011511D01*
X025021Y011318D01*
X025214Y011124D01*
X025795Y011124D01*
X026181Y011124D02*
X026375Y011318D01*
X026375Y012092D01*
X026568Y011898D02*
X026181Y011898D01*
X026955Y011898D02*
X027148Y011898D01*
X027535Y011511D01*
X027535Y011124D02*
X027535Y011898D01*
X027921Y011705D02*
X028115Y011898D01*
X028502Y011898D01*
X028695Y011705D01*
X028695Y011318D01*
X028502Y011124D01*
X028115Y011124D01*
X027921Y011318D01*
X027921Y011705D01*
X029081Y011705D02*
X029081Y011318D01*
X029275Y011124D01*
X029855Y011124D01*
X029855Y010737D02*
X029855Y011898D01*
X029275Y011898D01*
X029081Y011705D01*
X029661Y013014D02*
X029855Y013208D01*
X029855Y013982D01*
X030048Y013788D02*
X029661Y013788D01*
X030435Y013788D02*
X031015Y013788D01*
X031208Y013595D01*
X031208Y013208D01*
X031015Y013014D01*
X030435Y013014D01*
X031595Y013401D02*
X031595Y013595D01*
X031788Y013788D01*
X032175Y013788D01*
X032368Y013595D01*
X032368Y013208D01*
X032175Y013014D01*
X031788Y013014D01*
X031595Y013401D02*
X032368Y013401D01*
X032755Y013595D02*
X032755Y013014D01*
X033529Y013014D02*
X033529Y013788D01*
X032948Y013788D01*
X032755Y013595D01*
X033915Y013595D02*
X033915Y013014D01*
X033528Y012479D02*
X033528Y012285D01*
X033528Y011898D02*
X033528Y011124D01*
X033335Y011124D02*
X033722Y011124D01*
X032949Y011318D02*
X032755Y011511D01*
X032175Y011511D01*
X032175Y011705D02*
X032175Y011124D01*
X032755Y011124D01*
X032949Y011318D01*
X032755Y011898D02*
X032368Y011898D01*
X032175Y011705D01*
X031788Y011124D02*
X031402Y011124D01*
X031595Y011124D02*
X031595Y012285D01*
X031788Y012285D01*
X033528Y011898D02*
X033722Y011898D01*
X034108Y011898D02*
X034302Y011898D01*
X034689Y011511D01*
X035075Y011511D02*
X035075Y011705D01*
X035268Y011898D01*
X035655Y011898D01*
X035849Y011705D01*
X035849Y011318D01*
X035655Y011124D01*
X035268Y011124D01*
X035075Y011511D02*
X035849Y011511D01*
X036235Y011318D02*
X036428Y011511D01*
X036815Y011511D01*
X037009Y011705D01*
X036815Y011898D01*
X036235Y011898D01*
X036235Y011318D02*
X036428Y011124D01*
X037009Y011124D01*
X036815Y010009D02*
X036428Y010009D01*
X036235Y009815D01*
X036235Y009235D01*
X036815Y009235D01*
X037009Y009428D01*
X036815Y009622D01*
X036235Y009622D01*
X035849Y009622D02*
X035462Y010009D01*
X035268Y010009D01*
X034882Y009815D02*
X034688Y010009D01*
X034301Y010009D01*
X034108Y009815D01*
X034108Y009622D01*
X034882Y009622D01*
X034882Y009815D02*
X034882Y009428D01*
X034688Y009235D01*
X034301Y009235D01*
X033529Y008312D02*
X033335Y008506D01*
X032948Y008506D01*
X032755Y008312D01*
X032368Y008119D02*
X031982Y008119D01*
X032175Y008312D02*
X032175Y007538D01*
X031982Y007345D01*
X031595Y007538D02*
X031402Y007732D01*
X030821Y007732D01*
X030821Y007925D02*
X030821Y007345D01*
X031402Y007345D01*
X031595Y007538D01*
X031015Y008119D02*
X030821Y007925D01*
X031015Y008119D02*
X031402Y008119D01*
X030435Y008119D02*
X030048Y008119D01*
X030242Y008312D02*
X030242Y007538D01*
X030048Y007345D01*
X029662Y007345D02*
X029275Y007345D01*
X029468Y007345D02*
X029468Y008119D01*
X029662Y008119D01*
X029468Y008506D02*
X029468Y008699D01*
X029275Y009235D02*
X029468Y009428D01*
X029468Y010202D01*
X029275Y010009D02*
X029662Y010009D01*
X030048Y010009D02*
X030241Y010009D01*
X030628Y009622D01*
X030628Y009235D02*
X030628Y010009D01*
X031208Y010009D02*
X031208Y009235D01*
X031015Y009235D02*
X031402Y009235D01*
X032175Y009235D02*
X031788Y010009D01*
X031402Y010009D02*
X031208Y010009D01*
X031208Y010395D02*
X031208Y010589D01*
X032562Y010009D02*
X032175Y009235D01*
X033529Y008312D02*
X033529Y008119D01*
X033335Y007925D01*
X032948Y007925D01*
X032755Y007732D01*
X032755Y007538D01*
X032948Y007345D01*
X033335Y007345D01*
X033529Y007538D01*
X033915Y007345D02*
X034495Y007345D01*
X034689Y007538D01*
X034689Y007925D01*
X034495Y008119D01*
X033915Y008119D01*
X035075Y007925D02*
X035075Y007732D01*
X035849Y007732D01*
X035849Y007925D02*
X035849Y007538D01*
X035655Y007345D01*
X035268Y007345D01*
X036235Y007538D02*
X036235Y008312D01*
X036428Y008506D01*
X037009Y008506D01*
X037009Y007345D01*
X036428Y007345D01*
X036235Y007538D01*
X035849Y007925D02*
X035655Y008119D01*
X035268Y008119D01*
X035075Y007925D01*
X035849Y009235D02*
X035849Y010009D01*
X034689Y011124D02*
X034689Y011898D01*
X034689Y013014D02*
X034689Y013788D01*
X034108Y013788D01*
X033915Y013595D01*
X035075Y013595D02*
X035075Y013208D01*
X035268Y013014D01*
X035655Y013014D01*
X035849Y013208D01*
X035849Y013595D01*
X035655Y013788D01*
X035268Y013788D01*
X035075Y013595D01*
X036235Y013982D02*
X036428Y014175D01*
X036815Y014175D01*
X037009Y013982D01*
X037009Y013208D01*
X036815Y013014D01*
X036428Y013014D01*
X036235Y013208D01*
X036235Y014904D02*
X036235Y015678D01*
X035655Y015678D01*
X035461Y015484D01*
X035461Y014904D01*
X035075Y014904D02*
X034495Y014904D01*
X034301Y015097D01*
X034495Y015291D01*
X034882Y015291D01*
X035075Y015484D01*
X034882Y015678D01*
X034301Y015678D01*
X033915Y015484D02*
X033722Y015678D01*
X033335Y015678D01*
X033141Y015484D01*
X033141Y015291D01*
X033915Y015291D01*
X033915Y015484D02*
X033915Y015097D01*
X033722Y014904D01*
X033335Y014904D01*
X032755Y014904D02*
X032755Y015678D01*
X032368Y015678D02*
X032175Y015678D01*
X032368Y015678D02*
X032755Y015291D01*
X031788Y015678D02*
X031402Y015678D01*
X031595Y015871D02*
X031595Y015097D01*
X031402Y014904D01*
X029855Y014904D02*
X029275Y014904D01*
X029081Y015097D01*
X029081Y015484D01*
X029275Y015678D01*
X029855Y015678D01*
X029855Y016065D02*
X029855Y014904D01*
X028695Y015097D02*
X028695Y015484D01*
X028502Y015678D01*
X028115Y015678D01*
X027921Y015484D01*
X027921Y015097D01*
X028115Y014904D01*
X028502Y014904D01*
X028695Y015097D01*
X027535Y015097D02*
X027341Y014904D01*
X026761Y014904D01*
X026761Y015484D01*
X026955Y015678D01*
X027341Y015678D01*
X027341Y015291D02*
X026761Y015291D01*
X026375Y015291D02*
X025988Y015678D01*
X025794Y015678D01*
X025408Y015484D02*
X025215Y015678D01*
X024634Y015678D01*
X024634Y016065D02*
X024634Y014904D01*
X025215Y014904D01*
X025408Y015097D01*
X025408Y015484D01*
X026375Y015678D02*
X026375Y014904D01*
X027341Y015291D02*
X027535Y015097D01*
X027922Y013982D02*
X027922Y013208D01*
X027728Y013014D01*
X027342Y013208D02*
X027148Y013014D01*
X026761Y013014D01*
X026568Y013208D01*
X026568Y013595D01*
X026761Y013788D01*
X027148Y013788D01*
X027342Y013595D01*
X027342Y013208D01*
X027728Y013788D02*
X028115Y013788D01*
X025022Y013208D02*
X024828Y013401D01*
X024248Y013401D01*
X024248Y013595D02*
X024248Y013014D01*
X024828Y013014D01*
X025022Y013208D01*
X024441Y013788D02*
X024248Y013595D01*
X024441Y013788D02*
X024828Y013788D01*
X023088Y014904D02*
X022701Y014904D01*
X022895Y014904D02*
X022895Y015678D01*
X023088Y015678D01*
X022895Y016065D02*
X022895Y016258D01*
X022315Y015678D02*
X021734Y015678D01*
X021541Y015484D01*
X021541Y014904D01*
X020961Y015097D02*
X020768Y014904D01*
X020961Y015097D02*
X020961Y015871D01*
X020768Y015678D02*
X021155Y015678D01*
X020381Y015484D02*
X020381Y015097D01*
X020188Y014904D01*
X019801Y014904D01*
X019607Y015097D01*
X019607Y015484D01*
X019801Y015678D01*
X020188Y015678D01*
X020381Y015484D01*
X022315Y015678D02*
X022315Y014904D01*
X019221Y013788D02*
X018641Y013788D01*
X018447Y013595D01*
X019221Y013788D02*
X019221Y012627D01*
X018641Y011898D02*
X018061Y011898D01*
X017675Y011705D02*
X017481Y011898D01*
X017094Y011898D01*
X016901Y011705D01*
X016901Y011124D01*
X016515Y011318D02*
X016321Y011124D01*
X015934Y011124D01*
X015741Y011318D01*
X015741Y011705D01*
X015934Y011898D01*
X016321Y011898D01*
X016515Y011705D01*
X016515Y011318D01*
X015354Y011318D02*
X015161Y011124D01*
X014968Y011318D01*
X014774Y011124D01*
X014581Y011318D01*
X014581Y011898D01*
X015354Y011898D02*
X015354Y011318D01*
X015161Y010009D02*
X015161Y009235D01*
X015547Y009428D02*
X015547Y009815D01*
X015741Y010009D01*
X016128Y010009D01*
X016321Y009815D01*
X016321Y009428D01*
X016128Y009235D01*
X015741Y009235D01*
X015547Y009428D01*
X015161Y009622D02*
X014774Y010009D01*
X014581Y010009D01*
X014194Y010009D02*
X013807Y010009D01*
X014001Y010202D02*
X014001Y009428D01*
X013807Y009235D01*
X013421Y009235D02*
X012841Y009235D01*
X016707Y009428D02*
X016901Y009235D01*
X017481Y009235D01*
X017481Y008848D02*
X017481Y010009D01*
X016901Y010009D01*
X016707Y009815D01*
X016707Y009428D01*
X017094Y008119D02*
X017674Y008119D01*
X017868Y007925D01*
X019028Y009235D02*
X019415Y009235D01*
X019221Y009235D02*
X019221Y010395D01*
X019415Y010395D01*
X019994Y010009D02*
X019801Y009815D01*
X019801Y009235D01*
X020381Y009235D01*
X020575Y009428D01*
X020381Y009622D01*
X019801Y009622D01*
X019994Y010009D02*
X020381Y010009D01*
X021155Y010009D02*
X021155Y009235D01*
X021348Y009235D02*
X020961Y009235D01*
X021155Y010009D02*
X021348Y010009D01*
X021734Y010009D02*
X021928Y010009D01*
X022315Y009622D01*
X022701Y009622D02*
X022701Y009815D01*
X022894Y010009D01*
X023281Y010009D01*
X023475Y009815D01*
X023475Y009428D01*
X023281Y009235D01*
X022894Y009235D01*
X022315Y009235D02*
X022315Y010009D01*
X022701Y009622D02*
X023475Y009622D01*
X023861Y009428D02*
X024054Y009622D01*
X024441Y009622D01*
X024635Y009815D01*
X024441Y010009D01*
X023861Y010009D01*
X023861Y009428D02*
X024054Y009235D01*
X024635Y009235D01*
X024635Y008506D02*
X024248Y008506D01*
X024054Y008312D01*
X024054Y007538D01*
X024248Y007345D01*
X024635Y007345D01*
X024828Y007538D01*
X024828Y008312D01*
X024635Y008506D01*
X026181Y009235D02*
X026568Y009235D01*
X026375Y009235D02*
X026375Y010395D01*
X026568Y010395D01*
X027148Y010009D02*
X026954Y009815D01*
X026954Y009235D01*
X027535Y009235D01*
X027728Y009428D01*
X027535Y009622D01*
X026954Y009622D01*
X027148Y010009D02*
X027535Y010009D01*
X028114Y010009D02*
X028114Y009235D01*
X028695Y009235D01*
X028888Y009428D01*
X028888Y010009D01*
X028695Y008119D02*
X028308Y008119D01*
X028114Y007925D01*
X028114Y007538D01*
X028308Y007345D01*
X028695Y007345D01*
X028888Y007538D01*
X028888Y007925D01*
X028695Y008119D01*
X027728Y008119D02*
X027148Y008119D01*
X026954Y007925D01*
X026954Y007345D01*
X026568Y007345D02*
X026568Y007538D01*
X026375Y007538D01*
X026375Y007345D01*
X026568Y007345D01*
X027728Y007345D02*
X027728Y008119D01*
X028115Y006036D02*
X027922Y005842D01*
X027535Y005842D01*
X027341Y005649D01*
X027535Y005455D01*
X028115Y005455D01*
X028501Y005649D02*
X028695Y005842D01*
X029082Y005842D01*
X029275Y006036D01*
X029275Y005455D02*
X028695Y005455D01*
X028501Y005649D01*
X033142Y005455D02*
X033335Y005649D01*
X033335Y006422D01*
X033142Y006229D02*
X033529Y006229D01*
X033915Y006036D02*
X034108Y006229D01*
X034495Y006229D01*
X034689Y006036D01*
X034689Y005649D01*
X034495Y005455D01*
X034108Y005455D01*
X033915Y005649D01*
X033915Y006036D01*
X035075Y006036D02*
X035075Y005649D01*
X035268Y005455D01*
X035655Y005455D01*
X035849Y005649D01*
X035849Y006036D01*
X035655Y006229D01*
X035268Y006229D01*
X035075Y006036D01*
X036235Y006036D02*
X036428Y005842D01*
X037009Y005842D01*
X037009Y005455D02*
X037009Y006616D01*
X036428Y006616D01*
X036235Y006422D01*
X036235Y006036D01*
X036622Y005842D02*
X036235Y005455D01*
X021155Y010395D02*
X021155Y010589D01*
X018835Y011124D02*
X018254Y011124D01*
X018061Y011318D01*
X018254Y011511D01*
X018641Y011511D01*
X018835Y011705D01*
X018641Y011898D01*
X017675Y012285D02*
X017675Y011124D01*
X019995Y008119D02*
X020188Y007925D01*
X017288Y006229D02*
X017288Y005455D01*
X016901Y005455D02*
X016901Y006036D01*
X012068Y005649D02*
X012068Y005455D01*
X011874Y005455D01*
X011874Y005649D01*
X012068Y005649D01*
X015354Y003030D02*
X015354Y002836D01*
X015354Y002449D02*
X015548Y002449D01*
X012647Y001289D02*
X012454Y001289D01*
X012260Y001482D01*
X012260Y002449D01*
X020575Y001869D02*
X020575Y001676D01*
X020768Y001676D01*
X020768Y001869D01*
X020575Y001869D01*
X017868Y014904D02*
X017287Y014904D01*
X017287Y015484D01*
X017481Y015678D01*
X017868Y015678D01*
X017868Y015291D02*
X017287Y015291D01*
X017868Y015291D02*
X018061Y015097D01*
X017868Y014904D01*
X015741Y015097D02*
X015741Y016065D01*
X014967Y016065D02*
X014967Y015097D01*
X015161Y014904D01*
X015548Y014904D01*
X015741Y015097D01*
X014581Y015097D02*
X014388Y014904D01*
X014001Y014904D01*
X013807Y015097D01*
X013807Y015291D01*
X014001Y015484D01*
X014388Y015484D01*
X014581Y015678D01*
X014581Y015871D01*
X014388Y016065D01*
X014001Y016065D01*
X013807Y015871D01*
X013421Y016065D02*
X012841Y016065D01*
X012647Y015871D01*
X012647Y015678D01*
X012841Y015484D01*
X013421Y015484D01*
X013421Y014904D02*
X013421Y016065D01*
X012841Y015484D02*
X012647Y015291D01*
X012647Y015097D01*
X012841Y014904D01*
X013421Y014904D01*
X012261Y015484D02*
X011487Y015484D01*
X011101Y015097D02*
X010908Y014904D01*
X010521Y014904D01*
X010327Y015097D01*
X011101Y015097D02*
X011101Y015871D01*
X010908Y016065D01*
X010521Y016065D01*
X010327Y015871D01*
X010521Y016794D02*
X009940Y016794D01*
X009940Y017568D01*
X009554Y017568D02*
X009167Y017568D01*
X009361Y017761D02*
X009361Y016987D01*
X009167Y016794D01*
X008781Y016987D02*
X008781Y017374D01*
X008587Y017568D01*
X008200Y017568D01*
X008007Y017374D01*
X008007Y017181D01*
X008781Y017181D01*
X008781Y016987D02*
X008587Y016794D01*
X008200Y016794D01*
X007621Y016794D02*
X007621Y017568D01*
X007621Y017181D02*
X007234Y017568D01*
X007040Y017568D01*
X006654Y016987D02*
X006461Y016987D01*
X006461Y016794D01*
X006654Y016794D01*
X006654Y016987D01*
X006461Y016065D02*
X006461Y014904D01*
X005880Y014904D01*
X005687Y015097D01*
X005687Y015484D01*
X005880Y015678D01*
X006461Y015678D01*
X006847Y015484D02*
X006847Y014904D01*
X007427Y014904D01*
X007621Y015097D01*
X007427Y015291D01*
X006847Y015291D01*
X006847Y015484D02*
X007040Y015678D01*
X007427Y015678D01*
X008007Y015678D02*
X008587Y015678D01*
X008781Y015484D01*
X008781Y015097D01*
X008587Y014904D01*
X008007Y014904D01*
X005301Y014904D02*
X004914Y014904D01*
X005107Y014904D02*
X005107Y016065D01*
X005301Y016065D01*
X004527Y015484D02*
X004334Y015678D01*
X003947Y015678D01*
X003753Y015484D01*
X003753Y015291D01*
X004527Y015291D01*
X004527Y015484D02*
X004527Y015097D01*
X004334Y014904D01*
X003947Y014904D01*
X003367Y014904D02*
X003174Y014904D01*
X003174Y015097D01*
X003367Y015097D01*
X003367Y014904D01*
X010521Y016794D02*
X010714Y016987D01*
X010714Y017568D01*
X011100Y017374D02*
X011100Y016987D01*
X011294Y016794D01*
X011874Y016794D01*
X012260Y016794D02*
X012260Y017374D01*
X012454Y017568D01*
X012647Y017374D01*
X012647Y016794D01*
X013034Y016794D02*
X013034Y017568D01*
X012841Y017568D01*
X012647Y017374D01*
X013421Y017374D02*
X013421Y016987D01*
X013614Y016794D01*
X014001Y016794D01*
X014194Y016987D01*
X014194Y017374D01*
X014001Y017568D01*
X013614Y017568D01*
X013421Y017374D01*
X014581Y017568D02*
X015161Y017568D01*
X015354Y017374D01*
X015354Y016987D01*
X015161Y016794D01*
X014581Y016794D01*
X016901Y016794D02*
X017675Y017568D01*
X018061Y017568D02*
X018061Y016794D01*
X018641Y016794D01*
X018835Y016987D01*
X018835Y017568D01*
X019221Y017374D02*
X019221Y016794D01*
X019221Y017374D02*
X019414Y017568D01*
X019995Y017568D01*
X019995Y016794D01*
X020381Y016794D02*
X020768Y016794D01*
X020575Y016794D02*
X020575Y017568D01*
X020768Y017568D01*
X020575Y017955D02*
X020575Y018148D01*
X021348Y017955D02*
X021348Y016794D01*
X021541Y016794D02*
X021154Y016794D01*
X021348Y017955D02*
X021541Y017955D01*
X023281Y017955D02*
X023281Y016794D01*
X023088Y016794D02*
X023475Y016794D01*
X023861Y016794D02*
X024248Y016794D01*
X024055Y016794D02*
X024055Y017955D01*
X024248Y017955D01*
X024634Y017568D02*
X024634Y016794D01*
X025215Y016794D01*
X025408Y016987D01*
X025408Y017568D01*
X025795Y017374D02*
X026182Y017374D01*
X025988Y017761D02*
X025988Y016794D01*
X025988Y017761D02*
X025795Y017955D01*
X027728Y017374D02*
X027728Y016794D01*
X028308Y016794D01*
X028502Y016987D01*
X028308Y017181D01*
X027728Y017181D01*
X027728Y017374D02*
X027921Y017568D01*
X028308Y017568D01*
X030048Y017568D02*
X030628Y017568D01*
X030822Y017374D01*
X030628Y017181D01*
X030241Y017181D01*
X030048Y016987D01*
X030241Y016794D01*
X030822Y016794D01*
X031208Y016794D02*
X031595Y016794D01*
X031402Y016794D02*
X031402Y017568D01*
X031595Y017568D01*
X031402Y017955D02*
X031402Y018148D01*
X033141Y017568D02*
X033722Y017568D01*
X033915Y017374D01*
X033722Y017181D01*
X033335Y017181D01*
X033141Y016987D01*
X033335Y016794D01*
X033915Y016794D01*
X034302Y016794D02*
X034689Y016794D01*
X034495Y016794D02*
X034495Y017568D01*
X034689Y017568D01*
X035075Y017374D02*
X035075Y016794D01*
X035075Y017374D02*
X035268Y017568D01*
X035655Y017568D01*
X035849Y017374D01*
X035849Y016794D02*
X035849Y017955D01*
X036235Y017955D02*
X037009Y017955D01*
X036622Y017955D02*
X036622Y016794D01*
X036622Y016065D02*
X037009Y016065D01*
X036815Y016065D02*
X036815Y014904D01*
X036622Y014904D02*
X037009Y014904D01*
X034495Y017955D02*
X034495Y018148D01*
X023475Y017955D02*
X023281Y017955D01*
X017675Y016794D02*
X016901Y017568D01*
X011874Y017568D02*
X011874Y016407D01*
X011100Y017374D02*
X011294Y017568D01*
X011874Y017568D01*
M02*
