G75*
%MOIN*%
%OFA0B0*%
%FSLAX24Y24*%
%IPPOS*%
%LPD*%
%AMOC8*
5,1,8,0,0,1.08239X$1,22.5*
%
%ADD10C,0.0000*%
D10*
X002689Y000881D02*
X002689Y016427D01*
X003222Y016960D01*
X003221Y016961D02*
X003233Y016971D01*
X003247Y016978D01*
X003262Y016982D01*
X003277Y016984D01*
X003292Y016982D01*
X003307Y016978D01*
X003321Y016971D01*
X003333Y016961D01*
X003333Y016960D02*
X004516Y015777D01*
X004549Y015748D01*
X004583Y015721D01*
X004620Y015698D01*
X004659Y015678D01*
X004699Y015661D01*
X004741Y015648D01*
X004783Y015639D01*
X004826Y015633D01*
X004870Y015631D01*
X004914Y015633D01*
X004957Y015639D01*
X004999Y015648D01*
X005041Y015661D01*
X005081Y015678D01*
X005120Y015698D01*
X005157Y015721D01*
X005191Y015748D01*
X005224Y015777D01*
X005253Y015810D01*
X005280Y015844D01*
X005303Y015881D01*
X005323Y015920D01*
X005340Y015960D01*
X005353Y016002D01*
X005362Y016044D01*
X005368Y016087D01*
X005370Y016131D01*
X005368Y016175D01*
X005362Y016218D01*
X005353Y016260D01*
X005340Y016302D01*
X005323Y016342D01*
X005303Y016381D01*
X005280Y016418D01*
X005253Y016452D01*
X005224Y016485D01*
X005223Y016484D02*
X004750Y016958D01*
X004333Y017375D01*
X004193Y017514D01*
X004068Y017807D01*
X005763Y019502D01*
X006056Y019377D01*
X006195Y019238D01*
X006613Y018820D01*
X007086Y018347D01*
X007085Y018346D02*
X007118Y018317D01*
X007152Y018290D01*
X007189Y018267D01*
X007228Y018247D01*
X007268Y018230D01*
X007310Y018217D01*
X007352Y018208D01*
X007395Y018202D01*
X007439Y018200D01*
X007483Y018202D01*
X007526Y018208D01*
X007568Y018217D01*
X007610Y018230D01*
X007650Y018247D01*
X007689Y018267D01*
X007726Y018290D01*
X007760Y018317D01*
X007793Y018346D01*
X007822Y018379D01*
X007849Y018413D01*
X007872Y018450D01*
X007892Y018489D01*
X007909Y018529D01*
X007922Y018571D01*
X007931Y018613D01*
X007937Y018656D01*
X007939Y018700D01*
X007937Y018744D01*
X007931Y018787D01*
X007922Y018829D01*
X007909Y018871D01*
X007892Y018911D01*
X007872Y018950D01*
X007849Y018987D01*
X007822Y019021D01*
X007793Y019054D01*
X006610Y020237D01*
X006609Y020237D02*
X006599Y020249D01*
X006592Y020263D01*
X006588Y020278D01*
X006586Y020293D01*
X006588Y020308D01*
X006592Y020323D01*
X006599Y020337D01*
X006609Y020349D01*
X006610Y020348D02*
X007143Y020881D01*
X037689Y020881D01*
X037689Y000881D01*
X002689Y000881D01*
M02*
