G75*
%MOIN*%
%OFA0B0*%
%FSLAX24Y24*%
%IPPOS*%
%LPD*%
%AMOC8*
5,1,8,0,0,1.08239X$1,22.5*
%
%ADD10C,0.0170*%
%ADD11C,0.0130*%
%ADD12C,0.0090*%
%ADD13R,0.0257X0.0651*%
%ADD14R,0.0660X0.0660*%
%ADD15C,0.0660*%
%ADD16R,0.0572X0.0690*%
%ADD17R,0.0946X0.0572*%
%ADD18R,0.0946X0.0336*%
%ADD19R,0.0946X0.0651*%
%ADD20R,0.0611X0.0651*%
%ADD21R,0.0454X0.0651*%
%ADD22R,0.0769X0.0277*%
%ADD23R,0.0277X0.0769*%
%ADD24R,0.0690X0.0572*%
%ADD25R,0.0651X0.0572*%
%ADD26R,0.0277X0.0454*%
%ADD27R,0.1438X0.0158*%
%ADD28R,0.1635X0.0158*%
%ADD29R,0.0572X0.0651*%
%ADD30R,0.0560X0.0260*%
D10*
X009678Y005148D02*
X009912Y005148D01*
X010147Y005382D01*
X010147Y006554D01*
X009209Y006554D02*
X009209Y005851D01*
X009444Y005616D01*
X010147Y005616D01*
X008704Y006554D02*
X008469Y006554D01*
X008001Y006085D01*
X008001Y005616D02*
X008001Y006554D01*
X007503Y006554D02*
X007034Y006554D01*
X007268Y006788D02*
X007268Y005851D01*
X007503Y005616D01*
X006536Y005616D02*
X006067Y005616D01*
X006302Y005616D02*
X006302Y006554D01*
X006067Y006554D01*
X005555Y006319D02*
X005555Y005616D01*
X005086Y005616D02*
X005086Y006319D01*
X005320Y006554D01*
X005555Y006319D01*
X005086Y006319D02*
X004852Y006554D01*
X004617Y006554D01*
X004617Y005616D01*
X004105Y005851D02*
X004105Y006788D01*
X003870Y007023D01*
X003167Y007023D01*
X003167Y005616D01*
X003870Y005616D01*
X004105Y005851D01*
X006302Y007023D02*
X006302Y007257D01*
X012109Y006788D02*
X012109Y005851D01*
X012344Y005616D01*
X012812Y005616D01*
X013047Y005851D01*
X013047Y006319D01*
X012578Y006319D01*
X013047Y006788D02*
X012812Y007023D01*
X012344Y007023D01*
X012109Y006788D01*
X013559Y006554D02*
X013559Y005616D01*
X013559Y006085D02*
X014028Y006554D01*
X014262Y006554D01*
X014768Y006554D02*
X015002Y006554D01*
X015002Y005616D01*
X014768Y005616D02*
X015236Y005616D01*
X015734Y005616D02*
X015734Y006554D01*
X016437Y006554D01*
X016672Y006319D01*
X016672Y005616D01*
X017185Y005616D02*
X017888Y005616D01*
X018122Y005851D01*
X018122Y006319D01*
X017888Y006554D01*
X017185Y006554D01*
X017185Y007023D02*
X017185Y005616D01*
X018635Y005851D02*
X018635Y006319D01*
X018869Y006554D01*
X019338Y006554D01*
X019572Y006319D01*
X019572Y006085D01*
X018635Y006085D01*
X018635Y005851D02*
X018869Y005616D01*
X019338Y005616D01*
X020085Y005616D02*
X020085Y006554D01*
X020553Y006554D02*
X020788Y006554D01*
X020553Y006554D02*
X020085Y006085D01*
X021293Y005851D02*
X021527Y005616D01*
X022230Y005616D01*
X022230Y005382D02*
X022230Y006554D01*
X021527Y006554D01*
X021293Y006319D01*
X021293Y005851D01*
X021996Y005148D02*
X022230Y005382D01*
X021996Y005148D02*
X021762Y005148D01*
X015002Y007023D02*
X015002Y007257D01*
D11*
X003147Y002373D02*
X003147Y001671D01*
X003498Y001671D02*
X003498Y002197D01*
X003673Y002373D01*
X003849Y002197D01*
X003849Y001671D01*
X004235Y001847D02*
X004235Y002197D01*
X004410Y002373D01*
X004761Y002373D01*
X004936Y002197D01*
X004936Y002022D01*
X004235Y002022D01*
X004235Y001847D02*
X004410Y001671D01*
X004761Y001671D01*
X005322Y001847D02*
X005322Y002548D01*
X005498Y002723D01*
X005848Y002723D01*
X006024Y002548D01*
X006024Y002197D01*
X005848Y002022D01*
X005848Y002373D01*
X005498Y002373D01*
X005498Y002022D01*
X005848Y002022D01*
X006024Y001847D02*
X005848Y001671D01*
X005498Y001671D01*
X005322Y001847D01*
X006410Y001847D02*
X006585Y001671D01*
X007111Y001671D01*
X007111Y002723D01*
X007111Y002373D02*
X006585Y002373D01*
X006410Y002197D01*
X006410Y001847D01*
X007497Y001671D02*
X007497Y002373D01*
X007673Y002373D01*
X007848Y002197D01*
X008023Y002373D01*
X008199Y002197D01*
X008199Y001671D01*
X007848Y001671D02*
X007848Y002197D01*
X008585Y002373D02*
X008760Y002373D01*
X008760Y001671D01*
X008585Y001671D02*
X008936Y001671D01*
X009485Y001847D02*
X009661Y001671D01*
X009485Y001847D02*
X009485Y002548D01*
X009310Y002373D02*
X009661Y002373D01*
X010035Y002373D02*
X010035Y001671D01*
X010035Y002022D02*
X010386Y002373D01*
X010561Y002373D01*
X010941Y002373D02*
X010941Y001847D01*
X011117Y001671D01*
X011643Y001671D01*
X011643Y001496D02*
X011467Y001321D01*
X011292Y001321D01*
X011643Y001496D02*
X011643Y002373D01*
X012029Y001847D02*
X012204Y001847D01*
X012204Y001671D01*
X012029Y001671D01*
X012029Y001847D01*
X012573Y001847D02*
X012573Y002197D01*
X012748Y002373D01*
X013274Y002373D01*
X013274Y001496D01*
X013099Y001321D01*
X012923Y001321D01*
X012748Y001671D02*
X013274Y001671D01*
X013660Y001671D02*
X013660Y002373D01*
X013660Y002022D02*
X014011Y002373D01*
X014186Y002373D01*
X012748Y001671D02*
X012573Y001847D01*
X015461Y003271D02*
X015636Y003271D01*
X015812Y003446D01*
X015812Y004323D01*
X016198Y003797D02*
X016373Y003797D01*
X016373Y003621D01*
X016198Y003621D01*
X016198Y003797D01*
X015812Y003621D02*
X015286Y003621D01*
X015110Y003797D01*
X015110Y004323D01*
X014730Y004323D02*
X014555Y004323D01*
X014204Y003972D01*
X014204Y003621D02*
X014204Y004323D01*
X013830Y004323D02*
X013479Y004323D01*
X013654Y004498D02*
X013654Y003797D01*
X013830Y003621D01*
X013105Y003621D02*
X012754Y003621D01*
X012929Y003621D02*
X012929Y004323D01*
X012754Y004323D01*
X012368Y004147D02*
X012368Y003621D01*
X012017Y003621D02*
X012017Y004147D01*
X012192Y004323D01*
X012368Y004147D01*
X012017Y004147D02*
X011842Y004323D01*
X011666Y004323D01*
X011666Y003621D01*
X011280Y003621D02*
X010754Y003621D01*
X010579Y003797D01*
X010579Y004147D01*
X010754Y004323D01*
X011280Y004323D01*
X011280Y004673D02*
X011280Y003621D01*
X010193Y004673D02*
X009491Y003621D01*
X008760Y002899D02*
X008760Y002723D01*
X008404Y003621D02*
X009105Y004673D01*
X008035Y004323D02*
X008035Y004147D01*
X007860Y004147D01*
X007860Y004323D01*
X008035Y004323D01*
X007474Y004323D02*
X006948Y004323D01*
X006772Y004147D01*
X006948Y003972D01*
X007298Y003972D01*
X007474Y003797D01*
X007298Y003621D01*
X006772Y003621D01*
X006386Y003797D02*
X006211Y003621D01*
X005685Y003621D01*
X005685Y003271D02*
X005685Y004323D01*
X006211Y004323D01*
X006386Y004147D01*
X006386Y003797D01*
X005311Y003621D02*
X005135Y003797D01*
X005135Y004498D01*
X004960Y004323D02*
X005311Y004323D01*
X004585Y004323D02*
X004235Y004323D01*
X004410Y004498D02*
X004410Y003797D01*
X004585Y003621D01*
X003849Y003621D02*
X003849Y004147D01*
X003673Y004323D01*
X003323Y004323D01*
X003147Y004147D01*
X003147Y004673D02*
X003147Y003621D01*
X003147Y002373D02*
X003323Y002373D01*
X003498Y002197D01*
X007860Y003621D02*
X007860Y003797D01*
X008035Y003797D01*
X008035Y003621D01*
X007860Y003621D01*
X012929Y004673D02*
X012929Y004849D01*
X016742Y004147D02*
X016742Y003797D01*
X016917Y003621D01*
X017443Y003621D01*
X017443Y003446D02*
X017443Y004323D01*
X016917Y004323D01*
X016742Y004147D01*
X017829Y003972D02*
X018180Y004323D01*
X018355Y004323D01*
X017829Y004323D02*
X017829Y003621D01*
X017443Y003446D02*
X017268Y003271D01*
X017092Y003271D01*
D12*
X019109Y003139D02*
X019109Y002674D01*
X019225Y002558D01*
X019458Y002558D01*
X019574Y002674D01*
X019834Y002790D02*
X020066Y003023D01*
X020183Y003023D01*
X020438Y002907D02*
X020438Y002674D01*
X020554Y002558D01*
X020787Y002558D01*
X020903Y002790D02*
X020438Y002790D01*
X020438Y002907D02*
X020554Y003023D01*
X020787Y003023D01*
X020903Y002907D01*
X020903Y002790D01*
X021163Y002674D02*
X021279Y002558D01*
X021628Y002558D01*
X021628Y002907D01*
X021512Y003023D01*
X021279Y003023D01*
X021279Y002790D02*
X021628Y002790D01*
X021279Y002790D02*
X021163Y002674D01*
X021888Y003023D02*
X022121Y003023D01*
X022004Y003139D02*
X022004Y002674D01*
X022121Y002558D01*
X022371Y002558D02*
X022604Y002558D01*
X022488Y002558D02*
X022488Y003023D01*
X022371Y003023D01*
X022488Y003256D02*
X022488Y003372D01*
X022855Y003023D02*
X023204Y003023D01*
X023320Y002907D01*
X023320Y002558D01*
X023580Y002674D02*
X023696Y002558D01*
X024045Y002558D01*
X024045Y002441D02*
X024045Y003023D01*
X023696Y003023D01*
X023580Y002907D01*
X023580Y002674D01*
X023929Y002325D02*
X024045Y002441D01*
X023929Y002325D02*
X023812Y002325D01*
X023817Y001842D02*
X024049Y001842D01*
X024166Y001725D01*
X024166Y001609D01*
X023700Y001609D01*
X023700Y001493D02*
X023700Y001725D01*
X023817Y001842D01*
X023441Y001842D02*
X023208Y001376D01*
X022975Y001842D01*
X022716Y001725D02*
X022716Y001609D01*
X022250Y001609D01*
X022250Y001493D02*
X022250Y001725D01*
X022367Y001842D01*
X022599Y001842D01*
X022716Y001725D01*
X022599Y001376D02*
X022367Y001376D01*
X022250Y001493D01*
X021995Y001842D02*
X021879Y001842D01*
X021646Y001609D01*
X021646Y001376D02*
X021646Y001842D01*
X020666Y001842D02*
X020550Y001842D01*
X020317Y001609D01*
X020317Y001376D02*
X020317Y001842D01*
X020057Y001725D02*
X019941Y001842D01*
X019708Y001842D01*
X019592Y001725D01*
X019592Y001493D01*
X019708Y001376D01*
X019941Y001376D01*
X020057Y001493D01*
X020057Y001725D01*
X019341Y001376D02*
X019109Y001609D01*
X019109Y001842D01*
X019341Y002074D01*
X019834Y002558D02*
X019834Y003023D01*
X019574Y003139D02*
X019458Y003256D01*
X019225Y003256D01*
X019109Y003139D01*
X022855Y003023D02*
X022855Y002558D01*
X024425Y001842D02*
X024425Y001376D01*
X024425Y001609D02*
X024658Y001842D01*
X024774Y001842D01*
X025030Y001725D02*
X025146Y001842D01*
X025495Y001842D01*
X025379Y001609D02*
X025146Y001609D01*
X025030Y001725D01*
X025030Y001376D02*
X025379Y001376D01*
X025495Y001493D01*
X025379Y001609D01*
X025755Y001609D02*
X026220Y001609D01*
X026220Y001725D01*
X026104Y001842D01*
X025871Y001842D01*
X025755Y001725D01*
X025755Y001493D01*
X025871Y001376D01*
X026104Y001376D01*
X026480Y001144D02*
X026712Y001376D01*
X026596Y001376D01*
X026596Y001493D01*
X026712Y001493D01*
X026712Y001376D01*
X027688Y001493D02*
X027804Y001609D01*
X028153Y001609D01*
X028153Y001725D02*
X028153Y001376D01*
X027804Y001376D01*
X027688Y001493D01*
X027804Y001842D02*
X028037Y001842D01*
X028153Y001725D01*
X028413Y001725D02*
X028529Y001842D01*
X028878Y001842D01*
X028762Y001609D02*
X028529Y001609D01*
X028413Y001725D01*
X028413Y001376D02*
X028762Y001376D01*
X028878Y001493D01*
X028762Y001609D01*
X029863Y001376D02*
X029863Y001842D01*
X030212Y001842D01*
X030329Y001725D01*
X030329Y001376D01*
X030588Y001493D02*
X030588Y001725D01*
X030705Y001842D01*
X030937Y001842D01*
X031054Y001725D01*
X031054Y001609D01*
X030588Y001609D01*
X030588Y001493D02*
X030705Y001376D01*
X030937Y001376D01*
X031313Y001493D02*
X031313Y001725D01*
X031430Y001842D01*
X031662Y001842D01*
X031779Y001725D01*
X031779Y001609D01*
X031313Y001609D01*
X031313Y001493D02*
X031430Y001376D01*
X031662Y001376D01*
X032038Y001493D02*
X032038Y001725D01*
X032155Y001842D01*
X032504Y001842D01*
X032504Y002074D02*
X032504Y001376D01*
X032155Y001376D01*
X032038Y001493D01*
X032763Y001493D02*
X032763Y001725D01*
X032880Y001842D01*
X033112Y001842D01*
X033229Y001725D01*
X033229Y001609D01*
X032763Y001609D01*
X032763Y001493D02*
X032880Y001376D01*
X033112Y001376D01*
X033488Y001493D02*
X033488Y001725D01*
X033605Y001842D01*
X033954Y001842D01*
X033954Y002074D02*
X033954Y001376D01*
X033605Y001376D01*
X033488Y001493D01*
X034213Y001376D02*
X034446Y001609D01*
X034446Y001842D01*
X034213Y002074D01*
X034195Y002558D02*
X033846Y002558D01*
X033730Y002674D01*
X033730Y002907D01*
X033846Y003023D01*
X034195Y003023D01*
X034455Y002907D02*
X034571Y003023D01*
X034804Y003023D01*
X034920Y002907D01*
X034920Y002558D01*
X035180Y002674D02*
X035296Y002790D01*
X035645Y002790D01*
X035645Y002907D02*
X035645Y002558D01*
X035296Y002558D01*
X035180Y002674D01*
X035296Y003023D02*
X035529Y003023D01*
X035645Y002907D01*
X035905Y002907D02*
X035905Y002674D01*
X036021Y002558D01*
X036254Y002558D01*
X036370Y002674D01*
X036370Y002907D01*
X036254Y003023D01*
X036021Y003023D01*
X035905Y002907D01*
X036630Y002907D02*
X036746Y003023D01*
X037095Y003023D01*
X036979Y002790D02*
X036746Y002790D01*
X036630Y002907D01*
X036979Y002790D02*
X037095Y002674D01*
X036979Y002558D01*
X036630Y002558D01*
X034455Y002558D02*
X034455Y003256D01*
X032754Y003256D02*
X032638Y003139D01*
X032638Y002558D01*
X032262Y002674D02*
X032262Y002907D01*
X032146Y003023D01*
X031913Y003023D01*
X031797Y002907D01*
X031797Y002674D01*
X031913Y002558D01*
X032146Y002558D01*
X032262Y002674D01*
X032522Y002907D02*
X032754Y002907D01*
X030821Y003023D02*
X030588Y003023D01*
X030705Y003139D02*
X030705Y002674D01*
X030821Y002558D01*
X030329Y002558D02*
X030329Y003023D01*
X029863Y003023D02*
X029863Y002674D01*
X029980Y002558D01*
X030329Y002558D01*
X029603Y002674D02*
X029603Y002907D01*
X029487Y003023D01*
X029254Y003023D01*
X029138Y002907D01*
X029138Y002674D01*
X029254Y002558D01*
X029487Y002558D01*
X029603Y002674D01*
X028158Y003023D02*
X028042Y003023D01*
X027809Y002790D01*
X027809Y002558D02*
X027809Y003023D01*
X027549Y002907D02*
X027549Y002790D01*
X027084Y002790D01*
X027084Y002674D02*
X027084Y002907D01*
X027200Y003023D01*
X027433Y003023D01*
X027549Y002907D01*
X027200Y002558D02*
X027084Y002674D01*
X027200Y002558D02*
X027433Y002558D01*
X026824Y002558D02*
X026475Y002558D01*
X026359Y002674D01*
X026359Y002907D01*
X026475Y003023D01*
X026824Y003023D01*
X026824Y003256D02*
X026824Y002558D01*
X026104Y003023D02*
X025987Y003023D01*
X025755Y002790D01*
X025755Y002558D02*
X025755Y003023D01*
X025495Y002907D02*
X025495Y002674D01*
X025379Y002558D01*
X025146Y002558D01*
X025030Y002674D01*
X025030Y002907D01*
X025146Y003023D01*
X025379Y003023D01*
X025495Y002907D01*
X024049Y001376D02*
X023817Y001376D01*
X023700Y001493D01*
D13*
X025561Y008460D03*
X026061Y008460D03*
X026561Y008460D03*
X027061Y008460D03*
X027061Y010626D03*
X026561Y010626D03*
X026061Y010626D03*
X025561Y010626D03*
X018399Y010626D03*
X017899Y010626D03*
X017399Y010626D03*
X016899Y010626D03*
X016899Y008460D03*
X017399Y008460D03*
X017899Y008460D03*
X018399Y008460D03*
X009738Y008460D03*
X009238Y008460D03*
X008738Y008460D03*
X008238Y008460D03*
X008238Y010626D03*
X008738Y010626D03*
X009238Y010626D03*
X009738Y010626D03*
X034222Y010626D03*
X034722Y010626D03*
X035222Y010626D03*
X035722Y010626D03*
X035722Y008460D03*
X035222Y008460D03*
X034722Y008460D03*
X034222Y008460D03*
D14*
X011839Y015381D03*
D15*
X011839Y016381D03*
X011839Y017381D03*
X011839Y018381D03*
D16*
X017995Y018481D03*
X018782Y018481D03*
X018032Y013131D03*
X017245Y013131D03*
X007282Y012831D03*
X006495Y012831D03*
X035070Y014231D03*
X035857Y014231D03*
D17*
X035721Y015421D03*
D18*
X035721Y015894D03*
X035721Y016327D03*
X035721Y016760D03*
X035721Y017193D03*
X035721Y017626D03*
X035721Y018059D03*
X035721Y018492D03*
X035721Y018925D03*
D19*
X035721Y019890D03*
D20*
X032296Y019890D03*
X031371Y019890D03*
X032581Y015382D03*
D21*
X031991Y015382D03*
D22*
X021092Y015524D03*
X021092Y015209D03*
X021092Y014894D03*
X021092Y014579D03*
X021092Y015839D03*
X021092Y016154D03*
X021092Y016469D03*
X021092Y016784D03*
X017785Y016784D03*
X017785Y016469D03*
X017785Y016154D03*
X017785Y015839D03*
X017785Y015524D03*
X017785Y015209D03*
X017785Y014894D03*
X017785Y014579D03*
D23*
X018336Y014028D03*
X018651Y014028D03*
X018966Y014028D03*
X019281Y014028D03*
X019596Y014028D03*
X019911Y014028D03*
X020226Y014028D03*
X020541Y014028D03*
X020541Y017335D03*
X020226Y017335D03*
X019911Y017335D03*
X019596Y017335D03*
X019281Y017335D03*
X018966Y017335D03*
X018651Y017335D03*
X018336Y017335D03*
D24*
X019739Y018288D03*
X019739Y019075D03*
X008189Y014625D03*
X008189Y013838D03*
X010759Y009346D03*
X010759Y008559D03*
X019421Y008559D03*
X019421Y009346D03*
X028082Y009346D03*
X028082Y008559D03*
X036744Y008559D03*
X036744Y009346D03*
D25*
X030657Y017315D03*
X030657Y018063D03*
X013189Y016356D03*
X013189Y015607D03*
D26*
X007313Y014663D03*
X006939Y014663D03*
X006565Y014663D03*
X006565Y013600D03*
X007313Y013600D03*
D27*
G36*
X004589Y017840D02*
X005605Y016824D01*
X005493Y016712D01*
X004477Y017728D01*
X004589Y017840D01*
G37*
G36*
X004728Y017980D02*
X005744Y016964D01*
X005632Y016852D01*
X004616Y017868D01*
X004728Y017980D01*
G37*
G36*
X005007Y018258D02*
X006023Y017242D01*
X005911Y017130D01*
X004895Y018146D01*
X005007Y018258D01*
G37*
G36*
X005146Y018397D02*
X006162Y017381D01*
X006050Y017269D01*
X005034Y018285D01*
X005146Y018397D01*
G37*
G36*
X005285Y018536D02*
X006301Y017520D01*
X006189Y017408D01*
X005173Y018424D01*
X005285Y018536D01*
G37*
G36*
X005424Y018675D02*
X006440Y017659D01*
X006328Y017547D01*
X005312Y018563D01*
X005424Y018675D01*
G37*
G36*
X005703Y018954D02*
X006719Y017938D01*
X006607Y017826D01*
X005591Y018842D01*
X005703Y018954D01*
G37*
G36*
X005842Y019093D02*
X006858Y018077D01*
X006746Y017965D01*
X005730Y018981D01*
X005842Y019093D01*
G37*
D28*
G36*
X005842Y019371D02*
X006996Y018217D01*
X006884Y018105D01*
X005730Y019259D01*
X005842Y019371D01*
G37*
G36*
X005425Y018953D02*
X006579Y017799D01*
X006467Y017687D01*
X005313Y018841D01*
X005425Y018953D01*
G37*
G36*
X004729Y018257D02*
X005883Y017103D01*
X005771Y016991D01*
X004617Y018145D01*
X004729Y018257D01*
G37*
G36*
X004311Y017840D02*
X005465Y016686D01*
X005353Y016574D01*
X004199Y017728D01*
X004311Y017840D01*
G37*
D29*
G36*
X008592Y018644D02*
X008997Y019049D01*
X009456Y018590D01*
X009051Y018185D01*
X008592Y018644D01*
G37*
G36*
X009121Y019173D02*
X009526Y019578D01*
X009985Y019119D01*
X009580Y018714D01*
X009121Y019173D01*
G37*
G36*
X004621Y014773D02*
X005026Y015178D01*
X005485Y014719D01*
X005080Y014314D01*
X004621Y014773D01*
G37*
G36*
X004092Y014244D02*
X004497Y014649D01*
X004956Y014190D01*
X004551Y013785D01*
X004092Y014244D01*
G37*
D30*
X029653Y017330D03*
X029653Y017930D03*
M02*
