%
M48
M72
T01C0.0098
T02C0.0400
%
T01
X8239Y8636
X8739Y8647
X9739Y8648
X10739Y8656
X9752Y10626
X9240Y10432
X7339Y12881
X7314Y13831
X7289Y14206
X6539Y14256
X5239Y14681
X7989Y14531
X5464Y16556
X6139Y16831
X6049Y17096
X6274Y17146
X6439Y17306
X6814Y17256
X6839Y17581
X7014Y18106
X9014Y18406
X13389Y16506
X13289Y15531
X18264Y15531
X18264Y15231
X18264Y14906
X18339Y14431
X18964Y14506
X19289Y14506
X19589Y14506
X20239Y14531
X20614Y14606
X20614Y14881
X20614Y15206
X20614Y15506
X20614Y15881
X20614Y16156
X20614Y16456
X20614Y16781
X19889Y16831
X19289Y16806
X18964Y16856
X18639Y16806
X18314Y16856
X19764Y18331
X18764Y18531
X20535Y13779
X18064Y13306
X18409Y10460
X17902Y10425
X17402Y8648
X16900Y8635
X18400Y8623
X19364Y8658
X25564Y8663
X26064Y8639
X27067Y8665
X27976Y8547
X27067Y10425
X26564Y10433
X34214Y8656
X34739Y8681
X35725Y8631
X36714Y8631
X35714Y10431
X35214Y10431
X35739Y14206
X35039Y16331
X34964Y17181
X34864Y17606
X34789Y18081
X34939Y18481
X30775Y17500
X29653Y17405
X29653Y17819
X30539Y18208
X31933Y15196
T02
X11839Y15381
X11839Y16381
X11839Y17381
X11839Y18381
M30
