G75*
%MOIN*%
%OFA0B0*%
%FSLAX24Y24*%
%IPPOS*%
%LPD*%
%AMOC8*
5,1,8,0,0,1.08239X$1,22.5*
%
%ADD10R,0.0197X0.0591*%
%ADD11R,0.0512X0.0630*%
%ADD12R,0.0886X0.0512*%
%ADD13R,0.0886X0.0276*%
%ADD14R,0.0886X0.0591*%
%ADD15R,0.0551X0.0591*%
%ADD16R,0.0394X0.0591*%
%ADD17R,0.0709X0.0217*%
%ADD18R,0.0217X0.0709*%
%ADD19R,0.0630X0.0512*%
%ADD20R,0.0591X0.0512*%
%ADD21R,0.0217X0.0394*%
%ADD22R,0.1378X0.0098*%
%ADD23R,0.1575X0.0098*%
%ADD24R,0.0512X0.0591*%
%ADD25R,0.0500X0.0200*%
D10*
X008238Y008460D03*
X008738Y008460D03*
X009238Y008460D03*
X009738Y008460D03*
X009738Y010626D03*
X009238Y010626D03*
X008738Y010626D03*
X008238Y010626D03*
X016899Y010626D03*
X017399Y010626D03*
X017899Y010626D03*
X018399Y010626D03*
X018399Y008460D03*
X017899Y008460D03*
X017399Y008460D03*
X016899Y008460D03*
X025561Y008460D03*
X026061Y008460D03*
X026561Y008460D03*
X027061Y008460D03*
X027061Y010626D03*
X026561Y010626D03*
X026061Y010626D03*
X025561Y010626D03*
X034222Y010626D03*
X034722Y010626D03*
X035222Y010626D03*
X035722Y010626D03*
X035722Y008460D03*
X035222Y008460D03*
X034722Y008460D03*
X034222Y008460D03*
D11*
X035070Y014231D03*
X035857Y014231D03*
X018782Y018481D03*
X017995Y018481D03*
X018032Y013131D03*
X017245Y013131D03*
X007282Y012831D03*
X006495Y012831D03*
D12*
X035721Y015421D03*
D13*
X035721Y015894D03*
X035721Y016327D03*
X035721Y016760D03*
X035721Y017193D03*
X035721Y017626D03*
X035721Y018059D03*
X035721Y018492D03*
X035721Y018925D03*
D14*
X035721Y019890D03*
D15*
X032296Y019890D03*
X031371Y019890D03*
X032581Y015382D03*
D16*
X031991Y015382D03*
D17*
X021092Y015524D03*
X021092Y015209D03*
X021092Y014894D03*
X021092Y014579D03*
X021092Y015839D03*
X021092Y016154D03*
X021092Y016469D03*
X021092Y016784D03*
X017785Y016784D03*
X017785Y016469D03*
X017785Y016154D03*
X017785Y015839D03*
X017785Y015524D03*
X017785Y015209D03*
X017785Y014894D03*
X017785Y014579D03*
D18*
X018336Y014028D03*
X018651Y014028D03*
X018966Y014028D03*
X019281Y014028D03*
X019596Y014028D03*
X019911Y014028D03*
X020226Y014028D03*
X020541Y014028D03*
X020541Y017335D03*
X020226Y017335D03*
X019911Y017335D03*
X019596Y017335D03*
X019281Y017335D03*
X018966Y017335D03*
X018651Y017335D03*
X018336Y017335D03*
D19*
X019739Y018288D03*
X019739Y019075D03*
X008189Y014625D03*
X008189Y013838D03*
X010759Y009346D03*
X010759Y008559D03*
X019421Y008559D03*
X019421Y009346D03*
X028082Y009346D03*
X028082Y008559D03*
X036744Y008559D03*
X036744Y009346D03*
D20*
X030657Y017315D03*
X030657Y018063D03*
X013189Y016356D03*
X013189Y015607D03*
D21*
X007313Y014663D03*
X006939Y014663D03*
X006565Y014663D03*
X006565Y013600D03*
X007313Y013600D03*
D22*
G36*
X004589Y017797D02*
X005562Y016824D01*
X005493Y016755D01*
X004520Y017728D01*
X004589Y017797D01*
G37*
G36*
X004728Y017937D02*
X005701Y016964D01*
X005632Y016895D01*
X004659Y017868D01*
X004728Y017937D01*
G37*
G36*
X005007Y018215D02*
X005980Y017242D01*
X005911Y017173D01*
X004938Y018146D01*
X005007Y018215D01*
G37*
G36*
X005146Y018354D02*
X006119Y017381D01*
X006050Y017312D01*
X005077Y018285D01*
X005146Y018354D01*
G37*
G36*
X005285Y018493D02*
X006258Y017520D01*
X006189Y017451D01*
X005216Y018424D01*
X005285Y018493D01*
G37*
G36*
X005424Y018632D02*
X006397Y017659D01*
X006328Y017590D01*
X005355Y018563D01*
X005424Y018632D01*
G37*
G36*
X005703Y018911D02*
X006676Y017938D01*
X006607Y017869D01*
X005634Y018842D01*
X005703Y018911D01*
G37*
G36*
X005842Y019050D02*
X006815Y018077D01*
X006746Y018008D01*
X005773Y018981D01*
X005842Y019050D01*
G37*
D23*
G36*
X005842Y019329D02*
X006954Y018217D01*
X006884Y018147D01*
X005772Y019259D01*
X005842Y019329D01*
G37*
G36*
X005425Y018911D02*
X006537Y017799D01*
X006467Y017729D01*
X005355Y018841D01*
X005425Y018911D01*
G37*
G36*
X004729Y018215D02*
X005841Y017103D01*
X005771Y017033D01*
X004659Y018145D01*
X004729Y018215D01*
G37*
G36*
X004311Y017798D02*
X005423Y016686D01*
X005353Y016616D01*
X004241Y017728D01*
X004311Y017798D01*
G37*
D24*
G36*
X008635Y018644D02*
X008997Y019006D01*
X009413Y018590D01*
X009051Y018228D01*
X008635Y018644D01*
G37*
G36*
X009164Y019173D02*
X009526Y019535D01*
X009942Y019119D01*
X009580Y018757D01*
X009164Y019173D01*
G37*
G36*
X004664Y014773D02*
X005026Y015135D01*
X005442Y014719D01*
X005080Y014357D01*
X004664Y014773D01*
G37*
G36*
X004135Y014244D02*
X004497Y014606D01*
X004913Y014190D01*
X004551Y013828D01*
X004135Y014244D01*
G37*
D25*
X029653Y017330D03*
X029653Y017930D03*
M02*
