G75*
%MOIN*%
%OFA0B0*%
%FSLAX24Y24*%
%IPPOS*%
%LPD*%
%AMOC8*
5,1,8,0,0,1.08239X$1,22.5*
%
%ADD10R,0.0257X0.0651*%
%ADD11R,0.0660X0.0660*%
%ADD12C,0.0660*%
%ADD13R,0.0572X0.0690*%
%ADD14R,0.0946X0.0572*%
%ADD15R,0.0946X0.0336*%
%ADD16R,0.0946X0.0651*%
%ADD17R,0.0611X0.0651*%
%ADD18R,0.0454X0.0651*%
%ADD19R,0.0769X0.0277*%
%ADD20R,0.0277X0.0769*%
%ADD21R,0.0690X0.0572*%
%ADD22R,0.0651X0.0572*%
%ADD23R,0.0277X0.0454*%
%ADD24R,0.1438X0.0158*%
%ADD25R,0.1635X0.0158*%
%ADD26R,0.0572X0.0651*%
%ADD27R,0.0560X0.0260*%
D10*
X008238Y008460D03*
X008738Y008460D03*
X009238Y008460D03*
X009738Y008460D03*
X009738Y010626D03*
X009238Y010626D03*
X008738Y010626D03*
X008238Y010626D03*
X016899Y010626D03*
X017399Y010626D03*
X017899Y010626D03*
X018399Y010626D03*
X018399Y008460D03*
X017899Y008460D03*
X017399Y008460D03*
X016899Y008460D03*
X025561Y008460D03*
X026061Y008460D03*
X026561Y008460D03*
X027061Y008460D03*
X027061Y010626D03*
X026561Y010626D03*
X026061Y010626D03*
X025561Y010626D03*
X034222Y010626D03*
X034722Y010626D03*
X035222Y010626D03*
X035722Y010626D03*
X035722Y008460D03*
X035222Y008460D03*
X034722Y008460D03*
X034222Y008460D03*
D11*
X011839Y015381D03*
D12*
X011839Y016381D03*
X011839Y017381D03*
X011839Y018381D03*
D13*
X017995Y018481D03*
X018782Y018481D03*
X018032Y013131D03*
X017245Y013131D03*
X007282Y012831D03*
X006495Y012831D03*
X035070Y014231D03*
X035857Y014231D03*
D14*
X035721Y015421D03*
D15*
X035721Y015894D03*
X035721Y016327D03*
X035721Y016760D03*
X035721Y017193D03*
X035721Y017626D03*
X035721Y018059D03*
X035721Y018492D03*
X035721Y018925D03*
D16*
X035721Y019890D03*
D17*
X032296Y019890D03*
X031371Y019890D03*
X032581Y015382D03*
D18*
X031991Y015382D03*
D19*
X021092Y015524D03*
X021092Y015209D03*
X021092Y014894D03*
X021092Y014579D03*
X021092Y015839D03*
X021092Y016154D03*
X021092Y016469D03*
X021092Y016784D03*
X017785Y016784D03*
X017785Y016469D03*
X017785Y016154D03*
X017785Y015839D03*
X017785Y015524D03*
X017785Y015209D03*
X017785Y014894D03*
X017785Y014579D03*
D20*
X018336Y014028D03*
X018651Y014028D03*
X018966Y014028D03*
X019281Y014028D03*
X019596Y014028D03*
X019911Y014028D03*
X020226Y014028D03*
X020541Y014028D03*
X020541Y017335D03*
X020226Y017335D03*
X019911Y017335D03*
X019596Y017335D03*
X019281Y017335D03*
X018966Y017335D03*
X018651Y017335D03*
X018336Y017335D03*
D21*
X019739Y018288D03*
X019739Y019075D03*
X008189Y014625D03*
X008189Y013838D03*
X010759Y009346D03*
X010759Y008559D03*
X019421Y008559D03*
X019421Y009346D03*
X028082Y009346D03*
X028082Y008559D03*
X036744Y008559D03*
X036744Y009346D03*
D22*
X030657Y017315D03*
X030657Y018063D03*
X013189Y016356D03*
X013189Y015607D03*
D23*
X007313Y014663D03*
X006939Y014663D03*
X006565Y014663D03*
X006565Y013600D03*
X007313Y013600D03*
D24*
G36*
X004589Y017840D02*
X005605Y016824D01*
X005493Y016712D01*
X004477Y017728D01*
X004589Y017840D01*
G37*
G36*
X004728Y017980D02*
X005744Y016964D01*
X005632Y016852D01*
X004616Y017868D01*
X004728Y017980D01*
G37*
G36*
X005007Y018258D02*
X006023Y017242D01*
X005911Y017130D01*
X004895Y018146D01*
X005007Y018258D01*
G37*
G36*
X005146Y018397D02*
X006162Y017381D01*
X006050Y017269D01*
X005034Y018285D01*
X005146Y018397D01*
G37*
G36*
X005285Y018536D02*
X006301Y017520D01*
X006189Y017408D01*
X005173Y018424D01*
X005285Y018536D01*
G37*
G36*
X005424Y018675D02*
X006440Y017659D01*
X006328Y017547D01*
X005312Y018563D01*
X005424Y018675D01*
G37*
G36*
X005703Y018954D02*
X006719Y017938D01*
X006607Y017826D01*
X005591Y018842D01*
X005703Y018954D01*
G37*
G36*
X005842Y019093D02*
X006858Y018077D01*
X006746Y017965D01*
X005730Y018981D01*
X005842Y019093D01*
G37*
D25*
G36*
X005842Y019371D02*
X006996Y018217D01*
X006884Y018105D01*
X005730Y019259D01*
X005842Y019371D01*
G37*
G36*
X005425Y018953D02*
X006579Y017799D01*
X006467Y017687D01*
X005313Y018841D01*
X005425Y018953D01*
G37*
G36*
X004729Y018257D02*
X005883Y017103D01*
X005771Y016991D01*
X004617Y018145D01*
X004729Y018257D01*
G37*
G36*
X004311Y017840D02*
X005465Y016686D01*
X005353Y016574D01*
X004199Y017728D01*
X004311Y017840D01*
G37*
D26*
G36*
X008592Y018644D02*
X008997Y019049D01*
X009456Y018590D01*
X009051Y018185D01*
X008592Y018644D01*
G37*
G36*
X009121Y019173D02*
X009526Y019578D01*
X009985Y019119D01*
X009580Y018714D01*
X009121Y019173D01*
G37*
G36*
X004621Y014773D02*
X005026Y015178D01*
X005485Y014719D01*
X005080Y014314D01*
X004621Y014773D01*
G37*
G36*
X004092Y014244D02*
X004497Y014649D01*
X004956Y014190D01*
X004551Y013785D01*
X004092Y014244D01*
G37*
D27*
X029653Y017330D03*
X029653Y017930D03*
M02*
