G75*
%MOIN*%
%OFA0B0*%
%FSLAX24Y24*%
%IPPOS*%
%LPD*%
%AMOC8*
5,1,8,0,0,1.08239X$1,22.5*
%
%ADD10C,0.0600*%
%ADD11C,0.0051*%
%ADD12C,0.0178*%
%ADD13C,0.0236*%
%ADD14C,0.0197*%
D10*
X011839Y015381D03*
X011839Y016381D03*
X011839Y017381D03*
X011839Y018381D03*
D11*
X002754Y016400D02*
X002754Y000946D01*
X037624Y000946D01*
X037624Y020817D01*
X007170Y020817D01*
X006675Y020321D01*
X006656Y020302D01*
X006653Y020300D01*
X006652Y020293D01*
X006653Y020286D01*
X006656Y020283D01*
X006674Y020264D01*
X007824Y019114D01*
X007839Y019100D01*
X007839Y019100D01*
X007930Y019009D01*
X007930Y019009D01*
X008015Y018765D01*
X008015Y018765D01*
X007986Y018509D01*
X007986Y018509D01*
X007849Y018291D01*
X007849Y018291D01*
X007849Y018291D01*
X007631Y018153D01*
X007631Y018153D01*
X007374Y018124D01*
X007374Y018124D01*
X007150Y018203D01*
X007178Y018175D01*
X007178Y018038D01*
X007082Y017942D01*
X006945Y017942D01*
X006849Y018038D01*
X006849Y018175D01*
X006945Y018271D01*
X007070Y018271D01*
X007040Y018301D01*
X007040Y018301D01*
X007023Y018318D01*
X006566Y018775D01*
X006168Y019173D01*
X006168Y019173D01*
X006137Y019204D01*
X006130Y019211D01*
X006019Y019322D01*
X005778Y019425D01*
X004145Y017792D01*
X004248Y017551D01*
X004359Y017440D01*
X004366Y017433D01*
X004397Y017402D01*
X004397Y017402D01*
X004777Y017023D01*
X005253Y016546D01*
X005269Y016530D01*
X005269Y016530D01*
X005299Y016501D01*
X005299Y016625D01*
X005395Y016721D01*
X005532Y016721D01*
X005628Y016625D01*
X005628Y016488D01*
X005532Y016392D01*
X005395Y016392D01*
X005367Y016420D01*
X005446Y016196D01*
X005446Y016196D01*
X005417Y015939D01*
X005417Y015939D01*
X005280Y015721D01*
X005280Y015721D01*
X005061Y015584D01*
X005061Y015584D01*
X004805Y015555D01*
X004805Y015555D01*
X004562Y015640D01*
X004562Y015640D01*
X004470Y015731D01*
X004470Y015731D01*
X004459Y015743D01*
X003304Y016897D01*
X003287Y016914D01*
X003284Y016917D01*
X003277Y016918D01*
X003271Y016917D01*
X003268Y016914D01*
X003249Y016895D01*
X002754Y016400D01*
X002754Y016382D02*
X003819Y016382D01*
X003770Y016432D02*
X002785Y016432D01*
X002835Y016481D02*
X003720Y016481D01*
X003670Y016531D02*
X002884Y016531D01*
X002934Y016581D02*
X003621Y016581D01*
X003571Y016630D02*
X002984Y016630D01*
X003033Y016680D02*
X003521Y016680D01*
X003472Y016730D02*
X003083Y016730D01*
X003133Y016780D02*
X003422Y016780D01*
X003372Y016829D02*
X003182Y016829D01*
X003232Y016879D02*
X003323Y016879D01*
X003869Y016332D02*
X002754Y016332D01*
X002754Y016283D02*
X003919Y016283D01*
X003969Y016233D02*
X002754Y016233D01*
X002754Y016183D02*
X004018Y016183D01*
X004068Y016134D02*
X002754Y016134D01*
X002754Y016084D02*
X004118Y016084D01*
X004167Y016034D02*
X002754Y016034D01*
X002754Y015985D02*
X004217Y015985D01*
X004267Y015935D02*
X002754Y015935D01*
X002754Y015885D02*
X004316Y015885D01*
X004366Y015836D02*
X002754Y015836D01*
X002754Y015786D02*
X004416Y015786D01*
X004465Y015736D02*
X002754Y015736D01*
X002754Y015687D02*
X004515Y015687D01*
X004571Y015637D02*
X002754Y015637D01*
X002754Y015587D02*
X004713Y015587D01*
X005067Y015587D02*
X005945Y015587D01*
X005945Y015537D02*
X002754Y015537D01*
X002754Y015488D02*
X005945Y015488D01*
X005945Y015438D02*
X002754Y015438D01*
X002754Y015388D02*
X005945Y015388D01*
X005945Y015339D02*
X002754Y015339D01*
X002754Y015289D02*
X005945Y015289D01*
X005945Y015239D02*
X002754Y015239D01*
X002754Y015190D02*
X005945Y015190D01*
X005945Y015140D02*
X002754Y015140D01*
X002754Y015090D02*
X005945Y015090D01*
X005945Y015041D02*
X002754Y015041D01*
X002754Y014991D02*
X005945Y014991D01*
X005945Y014941D02*
X002754Y014941D01*
X002754Y014892D02*
X005945Y014892D01*
X005945Y014842D02*
X005311Y014842D01*
X005307Y014846D02*
X005170Y014846D01*
X005074Y014750D01*
X005074Y014613D01*
X005170Y014517D01*
X005307Y014517D01*
X005403Y014613D01*
X005403Y014750D01*
X005307Y014846D01*
X005361Y014792D02*
X005945Y014792D01*
X005945Y014743D02*
X005403Y014743D01*
X005403Y014693D02*
X005945Y014693D01*
X005945Y014643D02*
X005403Y014643D01*
X005383Y014594D02*
X005945Y014594D01*
X005945Y014576D02*
X006345Y014176D01*
X006458Y014063D01*
X007199Y014063D01*
X007220Y014042D01*
X007357Y014042D01*
X007378Y014063D01*
X007794Y014063D01*
X007907Y014176D01*
X008182Y014451D01*
X008182Y014612D01*
X008069Y014725D01*
X007908Y014725D01*
X007633Y014450D01*
X006619Y014450D01*
X006332Y014737D01*
X006332Y016479D01*
X007092Y016479D01*
X007350Y016738D01*
X007369Y016738D01*
X007482Y016851D01*
X007482Y017412D01*
X007369Y017525D01*
X011438Y017525D01*
X011444Y017545D02*
X011423Y017481D01*
X011413Y017415D01*
X011413Y017407D01*
X011813Y017407D01*
X011813Y017356D01*
X011413Y017356D01*
X011413Y017348D01*
X011423Y017282D01*
X011444Y017218D01*
X011475Y017158D01*
X011514Y017104D01*
X011561Y017057D01*
X011616Y017017D01*
X011675Y016987D01*
X011739Y016966D01*
X011805Y016956D01*
X011813Y016956D01*
X011813Y017356D01*
X011864Y017356D01*
X011864Y016956D01*
X011872Y016956D01*
X011938Y016966D01*
X012002Y016987D01*
X012062Y017017D01*
X012116Y017057D01*
X012163Y017104D01*
X012203Y017158D01*
X012233Y017218D01*
X012254Y017282D01*
X012264Y017348D01*
X012264Y017356D01*
X011864Y017356D01*
X011864Y017407D01*
X011813Y017407D01*
X011813Y017807D01*
X011805Y017807D01*
X011739Y017797D01*
X011675Y017776D01*
X011616Y017745D01*
X011561Y017706D01*
X011514Y017659D01*
X011475Y017605D01*
X011444Y017545D01*
X011459Y017574D02*
X007319Y017574D01*
X007369Y017525D02*
X007119Y017775D01*
X006758Y017775D01*
X006645Y017662D01*
X006645Y017501D01*
X006735Y017411D01*
X006649Y017325D01*
X006649Y017188D01*
X006745Y017092D01*
X006882Y017092D01*
X006978Y017188D01*
X006978Y017325D01*
X006915Y017388D01*
X006958Y017388D01*
X007095Y017251D01*
X007095Y017030D01*
X007077Y017012D01*
X006931Y016866D01*
X006377Y016866D01*
X006262Y016982D01*
X006342Y016982D01*
X006438Y017078D01*
X006438Y017142D01*
X006507Y017142D01*
X006603Y017238D01*
X006603Y017375D01*
X006507Y017471D01*
X006370Y017471D01*
X006274Y017375D01*
X006274Y017311D01*
X006205Y017311D01*
X006136Y017242D01*
X006117Y017261D01*
X005980Y017261D01*
X005884Y017165D01*
X005884Y017028D01*
X005973Y016939D01*
X005945Y016912D01*
X005945Y014576D01*
X005978Y014544D02*
X005334Y014544D01*
X005143Y014544D02*
X002754Y014544D01*
X002754Y014594D02*
X005094Y014594D01*
X005074Y014643D02*
X002754Y014643D01*
X002754Y014693D02*
X005074Y014693D01*
X005074Y014743D02*
X002754Y014743D01*
X002754Y014792D02*
X005117Y014792D01*
X005166Y014842D02*
X002754Y014842D01*
X002754Y014494D02*
X006027Y014494D01*
X006077Y014445D02*
X002754Y014445D01*
X002754Y014395D02*
X006127Y014395D01*
X006176Y014345D02*
X002754Y014345D01*
X002754Y014295D02*
X006226Y014295D01*
X006276Y014246D02*
X002754Y014246D01*
X002754Y014196D02*
X006325Y014196D01*
X006345Y014176D02*
X006345Y014176D01*
X006375Y014146D02*
X002754Y014146D01*
X002754Y014097D02*
X006425Y014097D01*
X006539Y014256D02*
X006589Y014206D01*
X007289Y014206D01*
X007362Y014047D02*
X013961Y014047D01*
X013912Y013997D02*
X002754Y013997D01*
X002754Y013948D02*
X013862Y013948D01*
X013812Y013898D02*
X002754Y013898D01*
X002754Y013848D02*
X013763Y013848D01*
X013713Y013799D02*
X002754Y013799D01*
X002754Y013749D02*
X013663Y013749D01*
X013614Y013699D02*
X002754Y013699D01*
X002754Y013650D02*
X013564Y013650D01*
X013514Y013600D02*
X002754Y013600D01*
X002754Y013550D02*
X013465Y013550D01*
X013415Y013501D02*
X002754Y013501D01*
X002754Y013451D02*
X013365Y013451D01*
X013315Y013401D02*
X002754Y013401D01*
X002754Y013352D02*
X013266Y013352D01*
X013216Y013302D02*
X002754Y013302D01*
X002754Y013252D02*
X013166Y013252D01*
X013117Y013202D02*
X002754Y013202D01*
X002754Y013153D02*
X013067Y013153D01*
X013017Y013103D02*
X002754Y013103D01*
X002754Y013053D02*
X012968Y013053D01*
X012918Y013004D02*
X002754Y013004D01*
X002754Y012954D02*
X012868Y012954D01*
X012819Y012904D02*
X002754Y012904D01*
X002754Y012855D02*
X012769Y012855D01*
X012719Y012805D02*
X002754Y012805D01*
X002754Y012755D02*
X012670Y012755D01*
X012620Y012706D02*
X002754Y012706D01*
X002754Y012656D02*
X012570Y012656D01*
X012521Y012606D02*
X002754Y012606D01*
X002754Y012557D02*
X012471Y012557D01*
X012421Y012507D02*
X002754Y012507D01*
X002754Y012457D02*
X012372Y012457D01*
X012322Y012408D02*
X002754Y012408D01*
X002754Y012358D02*
X012272Y012358D01*
X012222Y012308D02*
X002754Y012308D01*
X002754Y012259D02*
X012173Y012259D01*
X012123Y012209D02*
X002754Y012209D01*
X002754Y012159D02*
X012073Y012159D01*
X012024Y012109D02*
X002754Y012109D01*
X002754Y012060D02*
X011974Y012060D01*
X011924Y012010D02*
X002754Y012010D01*
X002754Y011960D02*
X011875Y011960D01*
X011825Y011911D02*
X002754Y011911D01*
X002754Y011861D02*
X011775Y011861D01*
X011726Y011811D02*
X002754Y011811D01*
X002754Y011762D02*
X011676Y011762D01*
X011626Y011712D02*
X002754Y011712D01*
X002754Y011662D02*
X011577Y011662D01*
X011527Y011613D02*
X002754Y011613D01*
X002754Y011563D02*
X011477Y011563D01*
X011428Y011513D02*
X002754Y011513D01*
X002754Y011464D02*
X011378Y011464D01*
X011328Y011414D02*
X002754Y011414D01*
X002754Y011364D02*
X011279Y011364D01*
X011229Y011315D02*
X002754Y011315D01*
X002754Y011265D02*
X011179Y011265D01*
X011129Y011215D02*
X002754Y011215D01*
X002754Y011166D02*
X011080Y011166D01*
X011030Y011116D02*
X002754Y011116D01*
X002754Y011066D02*
X010980Y011066D01*
X010931Y011016D02*
X002754Y011016D01*
X002754Y010967D02*
X010881Y010967D01*
X010831Y010917D02*
X002754Y010917D01*
X002754Y010867D02*
X010782Y010867D01*
X010732Y010818D02*
X002754Y010818D01*
X002754Y010768D02*
X009661Y010768D01*
X009683Y010790D02*
X009620Y010727D01*
X009048Y010727D01*
X008906Y010585D01*
X008906Y009934D01*
X008966Y009875D01*
X009076Y009765D01*
X009076Y009765D01*
X009135Y009706D01*
X035580Y009706D01*
X035640Y009765D01*
X035815Y009940D01*
X035815Y010300D01*
X035878Y010363D01*
X035878Y010500D01*
X035782Y010596D01*
X035645Y010596D01*
X035549Y010500D01*
X035549Y010363D01*
X035613Y010300D01*
X035613Y010023D01*
X035497Y009907D01*
X027168Y009907D01*
X027168Y010293D01*
X027231Y010357D01*
X027231Y010493D01*
X027135Y010589D01*
X026998Y010589D01*
X026902Y010493D01*
X026902Y010357D01*
X026966Y010293D01*
X026966Y009907D01*
X020340Y009907D01*
X020340Y014400D01*
X020403Y014463D01*
X020403Y014600D01*
X020307Y014696D01*
X020170Y014696D01*
X020074Y014600D01*
X020074Y014463D01*
X020138Y014400D01*
X020138Y009907D01*
X018510Y009907D01*
X018510Y010328D01*
X018574Y010392D01*
X018574Y010528D01*
X018477Y010625D01*
X018341Y010625D01*
X018244Y010528D01*
X018244Y010392D01*
X018308Y010328D01*
X018308Y009907D01*
X009219Y009907D01*
X009108Y010018D01*
X009108Y010330D01*
X009172Y010267D01*
X009308Y010267D01*
X009372Y010331D01*
X010531Y010331D01*
X010590Y010390D01*
X015005Y014806D01*
X018132Y014806D01*
X018195Y014742D01*
X018332Y014742D01*
X018428Y014838D01*
X018428Y014975D01*
X018334Y015069D01*
X018428Y015163D01*
X018428Y015300D01*
X018346Y015381D01*
X018428Y015463D01*
X018428Y015600D01*
X018332Y015696D01*
X018195Y015696D01*
X018099Y015600D01*
X018099Y015463D01*
X018181Y015381D01*
X018099Y015300D01*
X018099Y015163D01*
X018193Y015069D01*
X018132Y015007D01*
X014922Y015007D01*
X014863Y014948D01*
X010447Y010533D01*
X009891Y010533D01*
X009916Y010557D01*
X009916Y010694D01*
X009820Y010790D01*
X009683Y010790D01*
X009842Y010768D02*
X010682Y010768D01*
X010633Y010718D02*
X009892Y010718D01*
X009916Y010669D02*
X010583Y010669D01*
X010533Y010619D02*
X009916Y010619D01*
X009916Y010569D02*
X010484Y010569D01*
X010489Y010432D02*
X009240Y010432D01*
X009362Y010321D02*
X017773Y010321D01*
X017737Y010357D02*
X017834Y010261D01*
X017970Y010261D01*
X018066Y010357D01*
X018066Y010494D01*
X017970Y010590D01*
X017834Y010590D01*
X017737Y010494D01*
X017737Y010357D01*
X017737Y010371D02*
X010571Y010371D01*
X010590Y010390D02*
X010590Y010390D01*
X010620Y010420D02*
X017737Y010420D01*
X017737Y010470D02*
X010670Y010470D01*
X010720Y010520D02*
X017763Y010520D01*
X017813Y010569D02*
X010769Y010569D01*
X010819Y010619D02*
X018335Y010619D01*
X018285Y010569D02*
X017991Y010569D01*
X018040Y010520D02*
X018244Y010520D01*
X018244Y010470D02*
X018066Y010470D01*
X018066Y010420D02*
X018244Y010420D01*
X018266Y010371D02*
X018066Y010371D01*
X018030Y010321D02*
X018308Y010321D01*
X018308Y010271D02*
X017980Y010271D01*
X017823Y010271D02*
X009312Y010271D01*
X009168Y010271D02*
X009108Y010271D01*
X009108Y010222D02*
X018308Y010222D01*
X018308Y010172D02*
X009108Y010172D01*
X009108Y010122D02*
X018308Y010122D01*
X018308Y010073D02*
X009108Y010073D01*
X009108Y010023D02*
X018308Y010023D01*
X018308Y009973D02*
X009153Y009973D01*
X009203Y009924D02*
X018308Y009924D01*
X018409Y009806D02*
X009177Y009806D01*
X009007Y009976D01*
X009007Y010543D01*
X009090Y010626D01*
X009752Y010626D01*
X010489Y010432D02*
X014964Y014906D01*
X018264Y014906D01*
X018382Y014792D02*
X020470Y014792D01*
X020449Y014813D02*
X020518Y014744D01*
X020449Y014675D01*
X020449Y014538D01*
X020545Y014442D01*
X020682Y014442D01*
X020778Y014538D01*
X020778Y014675D01*
X020709Y014744D01*
X020778Y014813D01*
X020778Y014950D01*
X020684Y015044D01*
X020778Y015138D01*
X020778Y015275D01*
X020696Y015356D01*
X020745Y015406D01*
X034255Y015406D01*
X035017Y016167D01*
X035107Y016167D01*
X035203Y016263D01*
X035203Y016400D01*
X035107Y016496D01*
X034970Y016496D01*
X034874Y016400D01*
X034874Y016310D01*
X034172Y015607D01*
X020745Y015607D01*
X020682Y015671D01*
X020545Y015671D01*
X020449Y015575D01*
X020449Y015438D01*
X018403Y015438D01*
X018428Y015488D02*
X020449Y015488D01*
X020449Y015537D02*
X018428Y015537D01*
X018428Y015587D02*
X020461Y015587D01*
X020511Y015637D02*
X018391Y015637D01*
X018341Y015687D02*
X034251Y015687D01*
X034300Y015736D02*
X020701Y015736D01*
X020682Y015717D02*
X020778Y015813D01*
X020778Y015950D01*
X020709Y016019D01*
X020745Y016056D01*
X033980Y016056D01*
X034942Y017017D01*
X035032Y017017D01*
X035128Y017113D01*
X035128Y017250D01*
X035032Y017346D01*
X034895Y017346D01*
X034799Y017250D01*
X034799Y017160D01*
X033897Y016257D01*
X020745Y016257D01*
X020696Y016306D01*
X020778Y016388D01*
X020778Y016525D01*
X020684Y016619D01*
X020778Y016713D01*
X020778Y016850D01*
X020682Y016946D01*
X020545Y016946D01*
X020449Y016850D01*
X020449Y016713D01*
X020543Y016619D01*
X020449Y016525D01*
X020449Y016388D01*
X020531Y016306D01*
X020449Y016225D01*
X020449Y016088D01*
X020518Y016019D01*
X020449Y015950D01*
X020449Y015813D01*
X020545Y015717D01*
X020682Y015717D01*
X020716Y015637D02*
X034201Y015637D01*
X034214Y015506D02*
X035039Y016331D01*
X035203Y016332D02*
X037624Y016332D01*
X037624Y016283D02*
X035203Y016283D01*
X035173Y016233D02*
X037624Y016233D01*
X037624Y016183D02*
X035123Y016183D01*
X034984Y016134D02*
X037624Y016134D01*
X037624Y016084D02*
X034934Y016084D01*
X034884Y016034D02*
X037624Y016034D01*
X037624Y015985D02*
X034835Y015985D01*
X034785Y015935D02*
X037624Y015935D01*
X037624Y015885D02*
X034735Y015885D01*
X034685Y015836D02*
X037624Y015836D01*
X037624Y015786D02*
X034636Y015786D01*
X034586Y015736D02*
X037624Y015736D01*
X037624Y015687D02*
X034536Y015687D01*
X034487Y015637D02*
X037624Y015637D01*
X037624Y015587D02*
X034437Y015587D01*
X034387Y015537D02*
X037624Y015537D01*
X037624Y015488D02*
X034338Y015488D01*
X034288Y015438D02*
X037624Y015438D01*
X037624Y015388D02*
X020728Y015388D01*
X020714Y015339D02*
X031842Y015339D01*
X031864Y015361D02*
X031768Y015265D01*
X031768Y015175D01*
X030474Y013880D01*
X020667Y013880D01*
X020603Y013944D01*
X020467Y013944D01*
X020370Y013847D01*
X020370Y013711D01*
X020467Y013615D01*
X020603Y013615D01*
X020667Y013678D01*
X030557Y013678D01*
X030616Y013737D01*
X031911Y015032D01*
X032001Y015032D01*
X032097Y015128D01*
X032097Y015265D01*
X032001Y015361D01*
X031864Y015361D01*
X031793Y015289D02*
X020764Y015289D01*
X020778Y015239D02*
X031768Y015239D01*
X031768Y015190D02*
X020778Y015190D01*
X020778Y015140D02*
X031733Y015140D01*
X031684Y015090D02*
X020730Y015090D01*
X020687Y015041D02*
X031634Y015041D01*
X031584Y014991D02*
X020737Y014991D01*
X020778Y014941D02*
X031535Y014941D01*
X031485Y014892D02*
X020778Y014892D01*
X020778Y014842D02*
X031435Y014842D01*
X031386Y014792D02*
X020757Y014792D01*
X020710Y014743D02*
X031336Y014743D01*
X031286Y014693D02*
X020760Y014693D01*
X020778Y014643D02*
X031237Y014643D01*
X031187Y014594D02*
X020778Y014594D01*
X020778Y014544D02*
X031137Y014544D01*
X031088Y014494D02*
X020734Y014494D01*
X020684Y014445D02*
X031038Y014445D01*
X030988Y014395D02*
X020340Y014395D01*
X020340Y014345D02*
X030939Y014345D01*
X030889Y014295D02*
X020340Y014295D01*
X020340Y014246D02*
X030839Y014246D01*
X030790Y014196D02*
X020340Y014196D01*
X020340Y014146D02*
X030740Y014146D01*
X030690Y014097D02*
X020340Y014097D01*
X020340Y014047D02*
X030640Y014047D01*
X030591Y013997D02*
X020340Y013997D01*
X020340Y013948D02*
X030541Y013948D01*
X030491Y013898D02*
X020649Y013898D01*
X020535Y013779D02*
X030515Y013779D01*
X031933Y015196D01*
X032097Y015190D02*
X037624Y015190D01*
X037624Y015239D02*
X032097Y015239D01*
X032073Y015289D02*
X037624Y015289D01*
X037624Y015339D02*
X032023Y015339D01*
X032097Y015140D02*
X037624Y015140D01*
X037624Y015090D02*
X032059Y015090D01*
X032010Y015041D02*
X037624Y015041D01*
X037624Y014991D02*
X031870Y014991D01*
X031820Y014941D02*
X037624Y014941D01*
X037624Y014892D02*
X031771Y014892D01*
X031721Y014842D02*
X037624Y014842D01*
X037624Y014792D02*
X031671Y014792D01*
X031622Y014743D02*
X037624Y014743D01*
X037624Y014693D02*
X031572Y014693D01*
X031522Y014643D02*
X037624Y014643D01*
X037624Y014594D02*
X031473Y014594D01*
X031423Y014544D02*
X037624Y014544D01*
X037624Y014494D02*
X031373Y014494D01*
X031324Y014445D02*
X037624Y014445D01*
X037624Y014395D02*
X031274Y014395D01*
X031224Y014345D02*
X037624Y014345D01*
X037624Y014295D02*
X031174Y014295D01*
X031125Y014246D02*
X037624Y014246D01*
X037624Y014196D02*
X031075Y014196D01*
X031025Y014146D02*
X037624Y014146D01*
X037624Y014097D02*
X030976Y014097D01*
X030926Y014047D02*
X037624Y014047D01*
X037624Y013997D02*
X030876Y013997D01*
X030827Y013948D02*
X037624Y013948D01*
X037624Y013898D02*
X030777Y013898D01*
X030727Y013848D02*
X037624Y013848D01*
X037624Y013799D02*
X030678Y013799D01*
X030628Y013749D02*
X037624Y013749D01*
X037624Y013699D02*
X030578Y013699D01*
X034214Y015506D02*
X020614Y015506D01*
X020499Y015388D02*
X018353Y015388D01*
X018389Y015339D02*
X020513Y015339D01*
X020531Y015356D02*
X020449Y015275D01*
X020449Y015138D01*
X020543Y015044D01*
X020449Y014950D01*
X020449Y014813D01*
X020449Y014842D02*
X018428Y014842D01*
X018428Y014892D02*
X020449Y014892D01*
X020449Y014941D02*
X018428Y014941D01*
X018412Y014991D02*
X020490Y014991D01*
X020540Y015041D02*
X018362Y015041D01*
X018355Y015090D02*
X020497Y015090D01*
X020449Y015140D02*
X018405Y015140D01*
X018428Y015190D02*
X020449Y015190D01*
X020449Y015239D02*
X018428Y015239D01*
X018428Y015289D02*
X020463Y015289D01*
X020531Y015356D02*
X020449Y015438D01*
X020526Y015736D02*
X011963Y015736D01*
X011913Y015757D02*
X011764Y015757D01*
X011626Y015700D01*
X011520Y015594D01*
X011463Y015456D01*
X011463Y015307D01*
X011520Y015169D01*
X011626Y015063D01*
X011764Y015006D01*
X011913Y015006D01*
X012051Y015063D01*
X012157Y015169D01*
X012214Y015307D01*
X012214Y015456D01*
X012157Y015594D01*
X012051Y015700D01*
X011913Y015757D01*
X012064Y015687D02*
X018186Y015687D01*
X018136Y015637D02*
X012114Y015637D01*
X012160Y015587D02*
X018099Y015587D01*
X018099Y015537D02*
X012180Y015537D01*
X012201Y015488D02*
X018099Y015488D01*
X018124Y015438D02*
X012214Y015438D01*
X012214Y015388D02*
X018174Y015388D01*
X018138Y015339D02*
X012214Y015339D01*
X012207Y015289D02*
X018099Y015289D01*
X018099Y015239D02*
X012186Y015239D01*
X012165Y015190D02*
X018099Y015190D01*
X018122Y015140D02*
X012128Y015140D01*
X012078Y015090D02*
X018172Y015090D01*
X018165Y015041D02*
X011997Y015041D01*
X011680Y015041D02*
X006332Y015041D01*
X006332Y015090D02*
X011599Y015090D01*
X011549Y015140D02*
X006332Y015140D01*
X006332Y015190D02*
X011512Y015190D01*
X011491Y015239D02*
X006332Y015239D01*
X006332Y015289D02*
X011471Y015289D01*
X011463Y015339D02*
X006332Y015339D01*
X006332Y015388D02*
X011463Y015388D01*
X011463Y015438D02*
X006332Y015438D01*
X006332Y015488D02*
X011476Y015488D01*
X011497Y015537D02*
X006332Y015537D01*
X006332Y015587D02*
X011517Y015587D01*
X011563Y015637D02*
X006332Y015637D01*
X006332Y015687D02*
X011613Y015687D01*
X011714Y015736D02*
X006332Y015736D01*
X006332Y015786D02*
X020476Y015786D01*
X020449Y015836D02*
X006332Y015836D01*
X006332Y015885D02*
X020449Y015885D01*
X020449Y015935D02*
X006332Y015935D01*
X006332Y015985D02*
X020484Y015985D01*
X020503Y016034D02*
X011981Y016034D01*
X011913Y016006D02*
X012051Y016063D01*
X012157Y016169D01*
X012214Y016307D01*
X012214Y016406D01*
X013257Y016406D01*
X013320Y016342D01*
X013457Y016342D01*
X013520Y016406D01*
X018380Y016406D01*
X018440Y016465D01*
X018617Y016642D01*
X018707Y016642D01*
X018803Y016738D01*
X018803Y016875D01*
X018707Y016971D01*
X018570Y016971D01*
X018478Y016879D01*
X018478Y016879D01*
X018478Y016925D01*
X018382Y017021D01*
X018245Y017021D01*
X018149Y016925D01*
X018149Y016788D01*
X018245Y016692D01*
X018381Y016692D01*
X018297Y016607D01*
X013520Y016607D01*
X013457Y016671D01*
X013320Y016671D01*
X013257Y016607D01*
X012143Y016607D01*
X012051Y016700D01*
X011913Y016757D01*
X011764Y016757D01*
X011626Y016700D01*
X011520Y016594D01*
X011463Y016456D01*
X011463Y016307D01*
X011520Y016169D01*
X011626Y016063D01*
X011764Y016006D01*
X011913Y016006D01*
X012072Y016084D02*
X020453Y016084D01*
X020449Y016134D02*
X012122Y016134D01*
X012163Y016183D02*
X020449Y016183D01*
X020457Y016233D02*
X012183Y016233D01*
X012204Y016283D02*
X020507Y016283D01*
X020505Y016332D02*
X012214Y016332D01*
X012214Y016382D02*
X013280Y016382D01*
X013389Y016506D02*
X018339Y016506D01*
X018639Y016806D01*
X018745Y016680D02*
X019141Y016680D01*
X019095Y016726D02*
X019208Y016613D01*
X019369Y016613D01*
X019844Y017088D01*
X019957Y017201D01*
X019957Y018412D01*
X019844Y018525D01*
X019683Y018525D01*
X019570Y018412D01*
X019570Y017362D01*
X019095Y016887D01*
X019095Y016726D01*
X019095Y016730D02*
X018795Y016730D01*
X018803Y016780D02*
X019095Y016780D01*
X019095Y016829D02*
X018803Y016829D01*
X018799Y016879D02*
X019095Y016879D01*
X019137Y016929D02*
X018749Y016929D01*
X018528Y016929D02*
X018474Y016929D01*
X018425Y016978D02*
X019187Y016978D01*
X019236Y017028D02*
X012076Y017028D01*
X012137Y017078D02*
X019286Y017078D01*
X019336Y017127D02*
X012180Y017127D01*
X012212Y017177D02*
X019385Y017177D01*
X019435Y017227D02*
X012236Y017227D01*
X012252Y017276D02*
X019485Y017276D01*
X019534Y017326D02*
X012261Y017326D01*
X012264Y017407D02*
X011864Y017407D01*
X011864Y017807D01*
X011872Y017807D01*
X011938Y017797D01*
X012002Y017776D01*
X012062Y017745D01*
X012116Y017706D01*
X012163Y017659D01*
X012203Y017605D01*
X012233Y017545D01*
X012254Y017481D01*
X012264Y017415D01*
X012264Y017407D01*
X012263Y017425D02*
X019570Y017425D01*
X019570Y017376D02*
X011864Y017376D01*
X011839Y017381D02*
X011589Y017381D01*
X011039Y016831D01*
X011039Y016331D01*
X011464Y015906D01*
X012914Y015906D01*
X013289Y015531D01*
X013664Y015906D01*
X015139Y015906D01*
X014905Y014991D02*
X006332Y014991D01*
X006332Y014941D02*
X014856Y014941D01*
X014806Y014892D02*
X006332Y014892D01*
X006332Y014842D02*
X014756Y014842D01*
X014707Y014792D02*
X006332Y014792D01*
X006332Y014743D02*
X014657Y014743D01*
X014607Y014693D02*
X008101Y014693D01*
X008150Y014643D02*
X014558Y014643D01*
X014508Y014594D02*
X008182Y014594D01*
X008182Y014544D02*
X014458Y014544D01*
X014408Y014494D02*
X008182Y014494D01*
X008175Y014445D02*
X014359Y014445D01*
X014309Y014395D02*
X008126Y014395D01*
X008076Y014345D02*
X014259Y014345D01*
X014210Y014295D02*
X008026Y014295D01*
X007977Y014246D02*
X014160Y014246D01*
X014110Y014196D02*
X007927Y014196D01*
X007877Y014146D02*
X014061Y014146D01*
X014011Y014097D02*
X007827Y014097D01*
X007678Y014494D02*
X006575Y014494D01*
X006525Y014544D02*
X007727Y014544D01*
X007777Y014594D02*
X006475Y014594D01*
X006425Y014643D02*
X007827Y014643D01*
X007876Y014693D02*
X006376Y014693D01*
X007215Y014047D02*
X002754Y014047D01*
X005146Y015637D02*
X005945Y015637D01*
X005945Y015687D02*
X005225Y015687D01*
X005289Y015736D02*
X005945Y015736D01*
X005945Y015786D02*
X005320Y015786D01*
X005352Y015836D02*
X005945Y015836D01*
X005945Y015885D02*
X005383Y015885D01*
X005414Y015935D02*
X005945Y015935D01*
X005945Y015985D02*
X005422Y015985D01*
X005427Y016034D02*
X005945Y016034D01*
X005945Y016084D02*
X005433Y016084D01*
X005439Y016134D02*
X005945Y016134D01*
X005945Y016183D02*
X005444Y016183D01*
X005433Y016233D02*
X005945Y016233D01*
X005945Y016283D02*
X005415Y016283D01*
X005398Y016332D02*
X005945Y016332D01*
X005945Y016382D02*
X005380Y016382D01*
X005299Y016531D02*
X005268Y016531D01*
X005299Y016581D02*
X005219Y016581D01*
X005169Y016630D02*
X005305Y016630D01*
X005354Y016680D02*
X005119Y016680D01*
X005070Y016730D02*
X005945Y016730D01*
X005945Y016780D02*
X005020Y016780D01*
X004970Y016829D02*
X005945Y016829D01*
X005945Y016879D02*
X004921Y016879D01*
X004871Y016929D02*
X005962Y016929D01*
X005934Y016978D02*
X004821Y016978D01*
X004772Y017028D02*
X005884Y017028D01*
X005884Y017078D02*
X004722Y017078D01*
X004672Y017127D02*
X005884Y017127D01*
X005896Y017177D02*
X004623Y017177D01*
X004573Y017227D02*
X005946Y017227D01*
X006171Y017276D02*
X004523Y017276D01*
X004474Y017326D02*
X006274Y017326D01*
X006275Y017376D02*
X004424Y017376D01*
X004374Y017425D02*
X006325Y017425D01*
X006552Y017425D02*
X006721Y017425D01*
X006700Y017376D02*
X006602Y017376D01*
X006603Y017326D02*
X006650Y017326D01*
X006649Y017276D02*
X006603Y017276D01*
X006592Y017227D02*
X006649Y017227D01*
X006660Y017177D02*
X006542Y017177D01*
X006438Y017127D02*
X006710Y017127D01*
X006917Y017127D02*
X007095Y017127D01*
X007095Y017078D02*
X006437Y017078D01*
X006388Y017028D02*
X007093Y017028D01*
X007043Y016978D02*
X006265Y016978D01*
X006315Y016929D02*
X006994Y016929D01*
X006944Y016879D02*
X006365Y016879D01*
X005945Y016680D02*
X005573Y016680D01*
X005622Y016630D02*
X005945Y016630D01*
X005945Y016581D02*
X005628Y016581D01*
X005628Y016531D02*
X005945Y016531D01*
X005945Y016481D02*
X005621Y016481D01*
X005572Y016432D02*
X005945Y016432D01*
X006332Y016432D02*
X011463Y016432D01*
X011463Y016382D02*
X006332Y016382D01*
X006332Y016332D02*
X011463Y016332D01*
X011473Y016283D02*
X006332Y016283D01*
X006332Y016233D02*
X011494Y016233D01*
X011514Y016183D02*
X006332Y016183D01*
X006332Y016134D02*
X011556Y016134D01*
X011605Y016084D02*
X006332Y016084D01*
X006332Y016034D02*
X011696Y016034D01*
X011839Y016381D02*
X011964Y016506D01*
X013389Y016506D01*
X013497Y016382D02*
X020455Y016382D01*
X020449Y016432D02*
X018407Y016432D01*
X018456Y016481D02*
X020449Y016481D01*
X020455Y016531D02*
X018506Y016531D01*
X018556Y016581D02*
X020505Y016581D01*
X020532Y016630D02*
X019386Y016630D01*
X019436Y016680D02*
X019807Y016680D01*
X019820Y016667D02*
X019957Y016667D01*
X020053Y016763D01*
X020053Y016853D01*
X021580Y018381D01*
X030438Y018381D01*
X030438Y018340D01*
X030374Y018276D01*
X030374Y018140D01*
X030471Y018044D01*
X030607Y018044D01*
X030704Y018140D01*
X030704Y018276D01*
X030640Y018340D01*
X030640Y018381D01*
X034807Y018381D01*
X034870Y018317D01*
X035007Y018317D01*
X035103Y018413D01*
X035103Y018550D01*
X035007Y018646D01*
X034870Y018646D01*
X034807Y018582D01*
X021497Y018582D01*
X021438Y018523D01*
X019910Y016996D01*
X019820Y016996D01*
X019724Y016900D01*
X019724Y016763D01*
X019820Y016667D01*
X019757Y016730D02*
X019486Y016730D01*
X019535Y016780D02*
X019724Y016780D01*
X019724Y016829D02*
X019585Y016829D01*
X019635Y016879D02*
X019724Y016879D01*
X019753Y016929D02*
X019684Y016929D01*
X019734Y016978D02*
X019803Y016978D01*
X019784Y017028D02*
X019942Y017028D01*
X019992Y017078D02*
X019833Y017078D01*
X019883Y017127D02*
X020042Y017127D01*
X020091Y017177D02*
X019933Y017177D01*
X019957Y017227D02*
X020141Y017227D01*
X020191Y017276D02*
X019957Y017276D01*
X019957Y017326D02*
X020240Y017326D01*
X020290Y017376D02*
X019957Y017376D01*
X019957Y017425D02*
X020340Y017425D01*
X020389Y017475D02*
X019957Y017475D01*
X019957Y017525D02*
X020439Y017525D01*
X020489Y017574D02*
X019957Y017574D01*
X019957Y017624D02*
X020538Y017624D01*
X020588Y017674D02*
X019957Y017674D01*
X019957Y017723D02*
X020638Y017723D01*
X020687Y017773D02*
X019957Y017773D01*
X019957Y017823D02*
X020737Y017823D01*
X020787Y017873D02*
X019957Y017873D01*
X019957Y017922D02*
X020836Y017922D01*
X020886Y017972D02*
X019957Y017972D01*
X019957Y018022D02*
X020936Y018022D01*
X020986Y018071D02*
X019957Y018071D01*
X019957Y018121D02*
X021035Y018121D01*
X021085Y018171D02*
X019957Y018171D01*
X019957Y018220D02*
X021135Y018220D01*
X021184Y018270D02*
X019957Y018270D01*
X019957Y018320D02*
X021234Y018320D01*
X021284Y018369D02*
X019957Y018369D01*
X019950Y018419D02*
X021333Y018419D01*
X021383Y018469D02*
X019900Y018469D01*
X019850Y018518D02*
X021433Y018518D01*
X021438Y018523D02*
X021438Y018523D01*
X021482Y018568D02*
X012168Y018568D01*
X012157Y018594D02*
X012051Y018700D01*
X011913Y018757D01*
X011764Y018757D01*
X011626Y018700D01*
X011520Y018594D01*
X011463Y018456D01*
X011463Y018307D01*
X011520Y018169D01*
X011626Y018063D01*
X011764Y018006D01*
X011913Y018006D01*
X012051Y018063D01*
X012157Y018169D01*
X012214Y018307D01*
X012214Y018456D01*
X012157Y018594D01*
X012133Y018618D02*
X034842Y018618D01*
X034939Y018481D02*
X030539Y018481D01*
X030362Y018481D01*
X021539Y018481D01*
X019889Y016831D01*
X020053Y016829D02*
X020449Y016829D01*
X020449Y016780D02*
X020053Y016780D01*
X020020Y016730D02*
X020449Y016730D01*
X020482Y016680D02*
X019970Y016680D01*
X020079Y016879D02*
X020478Y016879D01*
X020528Y016929D02*
X020128Y016929D01*
X020178Y016978D02*
X034618Y016978D01*
X034667Y017028D02*
X020228Y017028D01*
X020278Y017078D02*
X034717Y017078D01*
X034767Y017127D02*
X020327Y017127D01*
X020377Y017177D02*
X034799Y017177D01*
X034799Y017227D02*
X020427Y017227D01*
X020476Y017276D02*
X029549Y017276D01*
X029585Y017241D02*
X029721Y017241D01*
X029785Y017304D01*
X030723Y017304D01*
X030753Y017335D01*
X030843Y017335D01*
X030940Y017431D01*
X030940Y017568D01*
X030843Y017664D01*
X030707Y017664D01*
X030611Y017568D01*
X030611Y017506D01*
X029785Y017506D01*
X029721Y017570D01*
X029585Y017570D01*
X029489Y017473D01*
X029489Y017337D01*
X029585Y017241D01*
X029499Y017326D02*
X020526Y017326D01*
X020576Y017376D02*
X029489Y017376D01*
X029489Y017425D02*
X020625Y017425D01*
X020675Y017475D02*
X029490Y017475D01*
X029540Y017525D02*
X020725Y017525D01*
X020774Y017574D02*
X030617Y017574D01*
X030611Y017525D02*
X029766Y017525D01*
X029653Y017405D02*
X030681Y017405D01*
X030775Y017500D01*
X030667Y017624D02*
X020824Y017624D01*
X020874Y017674D02*
X037624Y017674D01*
X037624Y017723D02*
X020923Y017723D01*
X020973Y017773D02*
X037624Y017773D01*
X037624Y017823D02*
X021023Y017823D01*
X021072Y017873D02*
X037624Y017873D01*
X037624Y017922D02*
X034862Y017922D01*
X034857Y017917D02*
X034953Y018013D01*
X034953Y018150D01*
X034857Y018246D01*
X034720Y018246D01*
X034624Y018150D01*
X034624Y018013D01*
X034720Y017917D01*
X034857Y017917D01*
X034912Y017972D02*
X037624Y017972D01*
X037624Y018022D02*
X034953Y018022D01*
X034953Y018071D02*
X037624Y018071D01*
X037624Y018121D02*
X034953Y018121D01*
X034932Y018171D02*
X037624Y018171D01*
X037624Y018220D02*
X034883Y018220D01*
X034868Y018320D02*
X030660Y018320D01*
X030640Y018369D02*
X034818Y018369D01*
X034695Y018220D02*
X030704Y018220D01*
X030704Y018171D02*
X034645Y018171D01*
X034624Y018121D02*
X030684Y018121D01*
X030635Y018071D02*
X034624Y018071D01*
X034624Y018022D02*
X021221Y018022D01*
X021172Y017972D02*
X034665Y017972D01*
X034715Y017922D02*
X021122Y017922D01*
X021271Y018071D02*
X030443Y018071D01*
X030394Y018121D02*
X021321Y018121D01*
X021370Y018171D02*
X030374Y018171D01*
X030374Y018220D02*
X021420Y018220D01*
X021470Y018270D02*
X030374Y018270D01*
X030418Y018320D02*
X021520Y018320D01*
X021569Y018369D02*
X030438Y018369D01*
X030539Y018481D02*
X030539Y018208D01*
X030704Y018270D02*
X037624Y018270D01*
X037624Y018320D02*
X035010Y018320D01*
X035059Y018369D02*
X037624Y018369D01*
X037624Y018419D02*
X035103Y018419D01*
X035103Y018469D02*
X037624Y018469D01*
X037624Y018518D02*
X035103Y018518D01*
X035085Y018568D02*
X037624Y018568D01*
X037624Y018618D02*
X035035Y018618D01*
X035052Y017326D02*
X037624Y017326D01*
X037624Y017276D02*
X035102Y017276D01*
X035128Y017227D02*
X037624Y017227D01*
X037624Y017177D02*
X035128Y017177D01*
X035128Y017127D02*
X037624Y017127D01*
X037624Y017078D02*
X035092Y017078D01*
X035043Y017028D02*
X037624Y017028D01*
X037624Y016978D02*
X034903Y016978D01*
X034853Y016929D02*
X037624Y016929D01*
X037624Y016879D02*
X034804Y016879D01*
X034754Y016829D02*
X037624Y016829D01*
X037624Y016780D02*
X034704Y016780D01*
X034655Y016730D02*
X037624Y016730D01*
X037624Y016680D02*
X034605Y016680D01*
X034555Y016630D02*
X037624Y016630D01*
X037624Y016581D02*
X034506Y016581D01*
X034456Y016531D02*
X037624Y016531D01*
X037624Y016481D02*
X035121Y016481D01*
X035171Y016432D02*
X037624Y016432D01*
X037624Y016382D02*
X035203Y016382D01*
X034956Y016481D02*
X034406Y016481D01*
X034357Y016432D02*
X034906Y016432D01*
X034874Y016382D02*
X034307Y016382D01*
X034257Y016332D02*
X034874Y016332D01*
X034847Y016283D02*
X034208Y016283D01*
X034158Y016233D02*
X034797Y016233D01*
X034748Y016183D02*
X034108Y016183D01*
X034059Y016134D02*
X034698Y016134D01*
X034648Y016084D02*
X034009Y016084D01*
X033939Y016156D02*
X034964Y017181D01*
X034826Y017276D02*
X029757Y017276D01*
X030744Y017326D02*
X034875Y017326D01*
X034568Y016929D02*
X020699Y016929D01*
X020749Y016879D02*
X034518Y016879D01*
X034468Y016829D02*
X020778Y016829D01*
X020778Y016780D02*
X034419Y016780D01*
X034369Y016730D02*
X020778Y016730D01*
X020745Y016680D02*
X034319Y016680D01*
X034270Y016630D02*
X020695Y016630D01*
X020722Y016581D02*
X034220Y016581D01*
X034170Y016531D02*
X020772Y016531D01*
X020778Y016481D02*
X034121Y016481D01*
X034071Y016432D02*
X020778Y016432D01*
X020772Y016382D02*
X034021Y016382D01*
X033972Y016332D02*
X020722Y016332D01*
X020720Y016283D02*
X033922Y016283D01*
X033939Y016156D02*
X020614Y016156D01*
X020724Y016034D02*
X034599Y016034D01*
X034549Y015985D02*
X020743Y015985D01*
X020778Y015935D02*
X034499Y015935D01*
X034450Y015885D02*
X020778Y015885D01*
X020778Y015836D02*
X034400Y015836D01*
X034350Y015786D02*
X020751Y015786D01*
X019191Y016630D02*
X018605Y016630D01*
X018369Y016680D02*
X012071Y016680D01*
X012120Y016630D02*
X013280Y016630D01*
X013497Y016630D02*
X018320Y016630D01*
X018207Y016730D02*
X011979Y016730D01*
X011975Y016978D02*
X018203Y016978D01*
X018153Y016929D02*
X007482Y016929D01*
X007482Y016978D02*
X011702Y016978D01*
X011813Y016978D02*
X011864Y016978D01*
X011864Y017028D02*
X011813Y017028D01*
X011813Y017078D02*
X011864Y017078D01*
X011864Y017127D02*
X011813Y017127D01*
X011813Y017177D02*
X011864Y017177D01*
X011864Y017227D02*
X011813Y017227D01*
X011813Y017276D02*
X011864Y017276D01*
X011864Y017326D02*
X011813Y017326D01*
X011813Y017376D02*
X007482Y017376D01*
X007482Y017326D02*
X011416Y017326D01*
X011425Y017276D02*
X007482Y017276D01*
X007482Y017227D02*
X011441Y017227D01*
X011465Y017177D02*
X007482Y017177D01*
X007482Y017127D02*
X011497Y017127D01*
X011541Y017078D02*
X007482Y017078D01*
X007482Y017028D02*
X011601Y017028D01*
X011699Y016730D02*
X007342Y016730D01*
X007292Y016680D02*
X011606Y016680D01*
X011557Y016630D02*
X007243Y016630D01*
X007193Y016581D02*
X011515Y016581D01*
X011494Y016531D02*
X007143Y016531D01*
X007094Y016481D02*
X011474Y016481D01*
X011415Y017425D02*
X007468Y017425D01*
X007419Y017475D02*
X011423Y017475D01*
X011489Y017624D02*
X007270Y017624D01*
X007220Y017674D02*
X011529Y017674D01*
X011585Y017723D02*
X007170Y017723D01*
X007121Y017773D02*
X011670Y017773D01*
X011813Y017773D02*
X011864Y017773D01*
X011864Y017723D02*
X011813Y017723D01*
X011813Y017674D02*
X011864Y017674D01*
X011864Y017624D02*
X011813Y017624D01*
X011813Y017574D02*
X011864Y017574D01*
X011864Y017525D02*
X011813Y017525D01*
X011813Y017475D02*
X011864Y017475D01*
X011864Y017425D02*
X011813Y017425D01*
X012007Y017773D02*
X019570Y017773D01*
X019570Y017723D02*
X012092Y017723D01*
X012148Y017674D02*
X019570Y017674D01*
X019570Y017624D02*
X012188Y017624D01*
X012218Y017574D02*
X019570Y017574D01*
X019570Y017525D02*
X012240Y017525D01*
X012255Y017475D02*
X019570Y017475D01*
X019570Y017823D02*
X004176Y017823D01*
X004153Y017773D02*
X006757Y017773D01*
X006707Y017723D02*
X004174Y017723D01*
X004196Y017674D02*
X006657Y017674D01*
X006645Y017624D02*
X004217Y017624D01*
X004238Y017574D02*
X006645Y017574D01*
X006645Y017525D02*
X004275Y017525D01*
X004324Y017475D02*
X006671Y017475D01*
X006927Y017376D02*
X006971Y017376D01*
X006977Y017326D02*
X007020Y017326D01*
X006978Y017276D02*
X007070Y017276D01*
X007095Y017227D02*
X006978Y017227D01*
X006967Y017177D02*
X007095Y017177D01*
X007482Y016879D02*
X018149Y016879D01*
X018149Y016829D02*
X007460Y016829D01*
X007410Y016780D02*
X018158Y016780D01*
X019570Y017873D02*
X004226Y017873D01*
X004275Y017922D02*
X019570Y017922D01*
X019570Y017972D02*
X007112Y017972D01*
X007161Y018022D02*
X011727Y018022D01*
X011618Y018071D02*
X007178Y018071D01*
X007178Y018121D02*
X011568Y018121D01*
X011520Y018171D02*
X007658Y018171D01*
X007737Y018220D02*
X011499Y018220D01*
X011478Y018270D02*
X009110Y018270D01*
X009082Y018242D02*
X009178Y018338D01*
X009178Y018475D01*
X009082Y018571D01*
X008945Y018571D01*
X008849Y018475D01*
X008849Y018338D01*
X008945Y018242D01*
X009082Y018242D01*
X009160Y018320D02*
X011463Y018320D01*
X011463Y018369D02*
X009178Y018369D01*
X009178Y018419D02*
X011463Y018419D01*
X011468Y018469D02*
X009178Y018469D01*
X009134Y018518D02*
X011489Y018518D01*
X011510Y018568D02*
X009085Y018568D01*
X008942Y018568D02*
X007993Y018568D01*
X007987Y018518D02*
X008893Y018518D01*
X008849Y018469D02*
X007961Y018469D01*
X007930Y018419D02*
X008849Y018419D01*
X008849Y018369D02*
X007899Y018369D01*
X007867Y018320D02*
X008868Y018320D01*
X008917Y018270D02*
X007816Y018270D01*
X007999Y018618D02*
X011544Y018618D01*
X011594Y018667D02*
X008004Y018667D01*
X008010Y018717D02*
X011668Y018717D01*
X012009Y018717D02*
X037624Y018717D01*
X037624Y018667D02*
X012084Y018667D01*
X012188Y018518D02*
X019677Y018518D01*
X019627Y018469D02*
X012209Y018469D01*
X012214Y018419D02*
X019577Y018419D01*
X019570Y018369D02*
X012214Y018369D01*
X012214Y018320D02*
X019570Y018320D01*
X019570Y018270D02*
X012199Y018270D01*
X012178Y018220D02*
X019570Y018220D01*
X019570Y018171D02*
X012158Y018171D01*
X012109Y018121D02*
X019570Y018121D01*
X019570Y018071D02*
X012059Y018071D01*
X011951Y018022D02*
X019570Y018022D01*
X018145Y014792D02*
X014992Y014792D01*
X014942Y014743D02*
X018195Y014743D01*
X018332Y014743D02*
X020517Y014743D01*
X020467Y014693D02*
X020310Y014693D01*
X020360Y014643D02*
X020449Y014643D01*
X020449Y014594D02*
X020403Y014594D01*
X020403Y014544D02*
X020449Y014544D01*
X020493Y014494D02*
X020403Y014494D01*
X020384Y014445D02*
X020543Y014445D01*
X020239Y014531D02*
X020239Y009806D01*
X018409Y009806D01*
X018409Y010460D01*
X018574Y010470D02*
X020138Y010470D01*
X020138Y010520D02*
X018574Y010520D01*
X018533Y010569D02*
X020138Y010569D01*
X020138Y010619D02*
X018483Y010619D01*
X018574Y010420D02*
X020138Y010420D01*
X020138Y010371D02*
X018552Y010371D01*
X018510Y010321D02*
X020138Y010321D01*
X020138Y010271D02*
X018510Y010271D01*
X018510Y010222D02*
X020138Y010222D01*
X020138Y010172D02*
X018510Y010172D01*
X018510Y010122D02*
X020138Y010122D01*
X020138Y010073D02*
X018510Y010073D01*
X018510Y010023D02*
X020138Y010023D01*
X020138Y009973D02*
X018510Y009973D01*
X018510Y009924D02*
X020138Y009924D01*
X020239Y009806D02*
X027067Y009806D01*
X027067Y010425D01*
X027231Y010420D02*
X035049Y010420D01*
X035049Y010371D02*
X027231Y010371D01*
X027195Y010321D02*
X035091Y010321D01*
X035049Y010363D02*
X035145Y010267D01*
X035282Y010267D01*
X035378Y010363D01*
X035378Y010500D01*
X035282Y010596D01*
X035145Y010596D01*
X035049Y010500D01*
X035049Y010363D01*
X035049Y010470D02*
X027231Y010470D01*
X027204Y010520D02*
X035069Y010520D01*
X035119Y010569D02*
X027155Y010569D01*
X026978Y010569D02*
X026660Y010569D01*
X026632Y010598D02*
X026495Y010598D01*
X026399Y010501D01*
X026399Y010365D01*
X026495Y010268D01*
X026632Y010268D01*
X026728Y010365D01*
X026728Y010501D01*
X026632Y010598D01*
X026710Y010520D02*
X026929Y010520D01*
X026902Y010470D02*
X026728Y010470D01*
X026728Y010420D02*
X026902Y010420D01*
X026902Y010371D02*
X026728Y010371D01*
X026684Y010321D02*
X026938Y010321D01*
X026966Y010271D02*
X026635Y010271D01*
X026493Y010271D02*
X020340Y010271D01*
X020340Y010222D02*
X026966Y010222D01*
X026966Y010172D02*
X020340Y010172D01*
X020340Y010122D02*
X026966Y010122D01*
X026966Y010073D02*
X020340Y010073D01*
X020340Y010023D02*
X026966Y010023D01*
X026966Y009973D02*
X020340Y009973D01*
X020340Y009924D02*
X026966Y009924D01*
X027067Y009806D02*
X035539Y009806D01*
X035714Y009981D01*
X035714Y010431D01*
X035836Y010321D02*
X037624Y010321D01*
X037624Y010371D02*
X035878Y010371D01*
X035878Y010420D02*
X037624Y010420D01*
X037624Y010470D02*
X035878Y010470D01*
X035858Y010520D02*
X037624Y010520D01*
X037624Y010569D02*
X035809Y010569D01*
X035619Y010569D02*
X035309Y010569D01*
X035358Y010520D02*
X035569Y010520D01*
X035549Y010470D02*
X035378Y010470D01*
X035378Y010420D02*
X035549Y010420D01*
X035549Y010371D02*
X035378Y010371D01*
X035336Y010321D02*
X035591Y010321D01*
X035613Y010271D02*
X035286Y010271D01*
X035141Y010271D02*
X027168Y010271D01*
X027168Y010222D02*
X035613Y010222D01*
X035613Y010172D02*
X027168Y010172D01*
X027168Y010122D02*
X035613Y010122D01*
X035613Y010073D02*
X027168Y010073D01*
X027168Y010023D02*
X035612Y010023D01*
X035562Y009973D02*
X027168Y009973D01*
X027168Y009924D02*
X035513Y009924D01*
X035649Y009774D02*
X037624Y009774D01*
X037624Y009725D02*
X035600Y009725D01*
X035699Y009824D02*
X037624Y009824D01*
X037624Y009874D02*
X035749Y009874D01*
X035798Y009924D02*
X037624Y009924D01*
X037624Y009973D02*
X035815Y009973D01*
X035815Y010023D02*
X037624Y010023D01*
X037624Y010073D02*
X035815Y010073D01*
X035815Y010122D02*
X037624Y010122D01*
X037624Y010172D02*
X035815Y010172D01*
X035815Y010222D02*
X037624Y010222D01*
X037624Y010271D02*
X035815Y010271D01*
X037624Y010619D02*
X020340Y010619D01*
X020340Y010569D02*
X026467Y010569D01*
X026417Y010520D02*
X020340Y010520D01*
X020340Y010470D02*
X026399Y010470D01*
X026399Y010420D02*
X020340Y010420D01*
X020340Y010371D02*
X026399Y010371D01*
X026443Y010321D02*
X020340Y010321D01*
X020340Y010669D02*
X037624Y010669D01*
X037624Y010718D02*
X020340Y010718D01*
X020340Y010768D02*
X037624Y010768D01*
X037624Y010818D02*
X020340Y010818D01*
X020340Y010867D02*
X037624Y010867D01*
X037624Y010917D02*
X020340Y010917D01*
X020340Y010967D02*
X037624Y010967D01*
X037624Y011016D02*
X020340Y011016D01*
X020340Y011066D02*
X037624Y011066D01*
X037624Y011116D02*
X020340Y011116D01*
X020340Y011166D02*
X037624Y011166D01*
X037624Y011215D02*
X020340Y011215D01*
X020340Y011265D02*
X037624Y011265D01*
X037624Y011315D02*
X020340Y011315D01*
X020340Y011364D02*
X037624Y011364D01*
X037624Y011414D02*
X020340Y011414D01*
X020340Y011464D02*
X037624Y011464D01*
X037624Y011513D02*
X020340Y011513D01*
X020340Y011563D02*
X037624Y011563D01*
X037624Y011613D02*
X020340Y011613D01*
X020340Y011662D02*
X037624Y011662D01*
X037624Y011712D02*
X020340Y011712D01*
X020340Y011762D02*
X037624Y011762D01*
X037624Y011811D02*
X020340Y011811D01*
X020340Y011861D02*
X037624Y011861D01*
X037624Y011911D02*
X020340Y011911D01*
X020340Y011960D02*
X037624Y011960D01*
X037624Y012010D02*
X020340Y012010D01*
X020340Y012060D02*
X037624Y012060D01*
X037624Y012109D02*
X020340Y012109D01*
X020340Y012159D02*
X037624Y012159D01*
X037624Y012209D02*
X020340Y012209D01*
X020340Y012259D02*
X037624Y012259D01*
X037624Y012308D02*
X020340Y012308D01*
X020340Y012358D02*
X037624Y012358D01*
X037624Y012408D02*
X020340Y012408D01*
X020340Y012457D02*
X037624Y012457D01*
X037624Y012507D02*
X020340Y012507D01*
X020340Y012557D02*
X037624Y012557D01*
X037624Y012606D02*
X020340Y012606D01*
X020340Y012656D02*
X037624Y012656D01*
X037624Y012706D02*
X020340Y012706D01*
X020340Y012755D02*
X037624Y012755D01*
X037624Y012805D02*
X020340Y012805D01*
X020340Y012855D02*
X037624Y012855D01*
X037624Y012904D02*
X020340Y012904D01*
X020340Y012954D02*
X037624Y012954D01*
X037624Y013004D02*
X020340Y013004D01*
X020340Y013053D02*
X037624Y013053D01*
X037624Y013103D02*
X020340Y013103D01*
X020340Y013153D02*
X037624Y013153D01*
X037624Y013202D02*
X020340Y013202D01*
X020340Y013252D02*
X037624Y013252D01*
X037624Y013302D02*
X020340Y013302D01*
X020340Y013352D02*
X037624Y013352D01*
X037624Y013401D02*
X020340Y013401D01*
X020340Y013451D02*
X037624Y013451D01*
X037624Y013501D02*
X020340Y013501D01*
X020340Y013550D02*
X037624Y013550D01*
X037624Y013600D02*
X020340Y013600D01*
X020340Y013650D02*
X020432Y013650D01*
X020382Y013699D02*
X020340Y013699D01*
X020340Y013749D02*
X020370Y013749D01*
X020370Y013799D02*
X020340Y013799D01*
X020340Y013848D02*
X020371Y013848D01*
X020340Y013898D02*
X020421Y013898D01*
X020138Y013898D02*
X014098Y013898D01*
X014148Y013948D02*
X020138Y013948D01*
X020138Y013997D02*
X014197Y013997D01*
X014247Y014047D02*
X020138Y014047D01*
X020138Y014097D02*
X014297Y014097D01*
X014346Y014146D02*
X020138Y014146D01*
X020138Y014196D02*
X014396Y014196D01*
X014446Y014246D02*
X020138Y014246D01*
X020138Y014295D02*
X014495Y014295D01*
X014545Y014345D02*
X018892Y014345D01*
X018895Y014342D02*
X019032Y014342D01*
X019126Y014436D01*
X019220Y014342D01*
X019357Y014342D01*
X019439Y014424D01*
X019520Y014342D01*
X019657Y014342D01*
X019753Y014438D01*
X019753Y014575D01*
X019657Y014671D01*
X019520Y014671D01*
X019439Y014589D01*
X019357Y014671D01*
X019220Y014671D01*
X019126Y014577D01*
X019032Y014671D01*
X018895Y014671D01*
X018799Y014575D01*
X018799Y014438D01*
X018895Y014342D01*
X018842Y014395D02*
X014595Y014395D01*
X014644Y014445D02*
X018799Y014445D01*
X018799Y014494D02*
X014694Y014494D01*
X014744Y014544D02*
X018799Y014544D01*
X018818Y014594D02*
X014793Y014594D01*
X014843Y014643D02*
X018868Y014643D01*
X019060Y014643D02*
X019193Y014643D01*
X019143Y014594D02*
X019109Y014594D01*
X019085Y014395D02*
X019167Y014395D01*
X019217Y014345D02*
X019035Y014345D01*
X019360Y014345D02*
X019517Y014345D01*
X019467Y014395D02*
X019410Y014395D01*
X019434Y014594D02*
X019443Y014594D01*
X019493Y014643D02*
X019385Y014643D01*
X019685Y014643D02*
X020118Y014643D01*
X020074Y014594D02*
X019734Y014594D01*
X019753Y014544D02*
X020074Y014544D01*
X020074Y014494D02*
X019753Y014494D01*
X019753Y014445D02*
X020093Y014445D01*
X020138Y014395D02*
X019710Y014395D01*
X019660Y014345D02*
X020138Y014345D01*
X020167Y014693D02*
X014893Y014693D01*
X014048Y013848D02*
X020138Y013848D01*
X020138Y013799D02*
X013999Y013799D01*
X013949Y013749D02*
X020138Y013749D01*
X020138Y013699D02*
X013899Y013699D01*
X013849Y013650D02*
X020138Y013650D01*
X020138Y013600D02*
X013800Y013600D01*
X013750Y013550D02*
X020138Y013550D01*
X020138Y013501D02*
X013700Y013501D01*
X013651Y013451D02*
X020138Y013451D01*
X020138Y013401D02*
X013601Y013401D01*
X013551Y013352D02*
X020138Y013352D01*
X020138Y013302D02*
X013502Y013302D01*
X013452Y013252D02*
X020138Y013252D01*
X020138Y013202D02*
X013402Y013202D01*
X013353Y013153D02*
X020138Y013153D01*
X020138Y013103D02*
X013303Y013103D01*
X013253Y013053D02*
X020138Y013053D01*
X020138Y013004D02*
X013204Y013004D01*
X013154Y012954D02*
X020138Y012954D01*
X020138Y012904D02*
X013104Y012904D01*
X013055Y012855D02*
X020138Y012855D01*
X020138Y012805D02*
X013005Y012805D01*
X012955Y012755D02*
X020138Y012755D01*
X020138Y012706D02*
X012906Y012706D01*
X012856Y012656D02*
X020138Y012656D01*
X020138Y012606D02*
X012806Y012606D01*
X012757Y012557D02*
X020138Y012557D01*
X020138Y012507D02*
X012707Y012507D01*
X012657Y012457D02*
X020138Y012457D01*
X020138Y012408D02*
X012607Y012408D01*
X012558Y012358D02*
X020138Y012358D01*
X020138Y012308D02*
X012508Y012308D01*
X012458Y012259D02*
X020138Y012259D01*
X020138Y012209D02*
X012409Y012209D01*
X012359Y012159D02*
X020138Y012159D01*
X020138Y012109D02*
X012309Y012109D01*
X012260Y012060D02*
X020138Y012060D01*
X020138Y012010D02*
X012210Y012010D01*
X012160Y011960D02*
X020138Y011960D01*
X020138Y011911D02*
X012111Y011911D01*
X012061Y011861D02*
X020138Y011861D01*
X020138Y011811D02*
X012011Y011811D01*
X011962Y011762D02*
X020138Y011762D01*
X020138Y011712D02*
X011912Y011712D01*
X011862Y011662D02*
X020138Y011662D01*
X020138Y011613D02*
X011813Y011613D01*
X011763Y011563D02*
X020138Y011563D01*
X020138Y011513D02*
X011713Y011513D01*
X011664Y011464D02*
X020138Y011464D01*
X020138Y011414D02*
X011614Y011414D01*
X011564Y011364D02*
X020138Y011364D01*
X020138Y011315D02*
X011514Y011315D01*
X011465Y011265D02*
X020138Y011265D01*
X020138Y011215D02*
X011415Y011215D01*
X011365Y011166D02*
X020138Y011166D01*
X020138Y011116D02*
X011316Y011116D01*
X011266Y011066D02*
X020138Y011066D01*
X020138Y011016D02*
X011216Y011016D01*
X011167Y010967D02*
X020138Y010967D01*
X020138Y010917D02*
X011117Y010917D01*
X011067Y010867D02*
X020138Y010867D01*
X020138Y010818D02*
X011018Y010818D01*
X010968Y010768D02*
X020138Y010768D01*
X020138Y010718D02*
X010918Y010718D01*
X010869Y010669D02*
X020138Y010669D01*
X017566Y008716D02*
X017470Y008813D01*
X017334Y008813D01*
X017237Y008716D01*
X017237Y008580D01*
X017334Y008483D01*
X017470Y008483D01*
X017566Y008580D01*
X017566Y008716D01*
X017551Y008731D02*
X025399Y008731D01*
X025399Y008594D01*
X025495Y008498D01*
X025632Y008498D01*
X025728Y008594D01*
X025728Y008731D01*
X025923Y008731D01*
X025899Y008707D02*
X025899Y008571D01*
X025995Y008474D01*
X026132Y008474D01*
X026228Y008571D01*
X026228Y008707D01*
X026132Y008804D01*
X025995Y008804D01*
X025899Y008707D01*
X025899Y008681D02*
X025728Y008681D01*
X025728Y008632D02*
X025899Y008632D01*
X025899Y008582D02*
X025716Y008582D01*
X025666Y008532D02*
X025937Y008532D01*
X025987Y008483D02*
X016981Y008483D01*
X016969Y008470D02*
X017065Y008567D01*
X017065Y008703D01*
X016969Y008799D01*
X016832Y008799D01*
X016736Y008703D01*
X016736Y008567D01*
X016832Y008470D01*
X016969Y008470D01*
X017031Y008532D02*
X017285Y008532D01*
X017237Y008582D02*
X017065Y008582D01*
X017065Y008632D02*
X017237Y008632D01*
X017237Y008681D02*
X017065Y008681D01*
X017037Y008731D02*
X017252Y008731D01*
X017302Y008781D02*
X016987Y008781D01*
X016814Y008781D02*
X008837Y008781D01*
X008807Y008811D02*
X008670Y008811D01*
X008574Y008715D01*
X008574Y008578D01*
X008670Y008482D01*
X008807Y008482D01*
X008903Y008578D01*
X008903Y008715D01*
X008807Y008811D01*
X008887Y008731D02*
X016764Y008731D01*
X016736Y008681D02*
X008903Y008681D01*
X008903Y008632D02*
X016736Y008632D01*
X016736Y008582D02*
X008903Y008582D01*
X008857Y008532D02*
X016770Y008532D01*
X016820Y008483D02*
X008807Y008483D01*
X008670Y008483D02*
X008318Y008483D01*
X008307Y008472D02*
X008403Y008568D01*
X008403Y008704D01*
X008307Y008801D01*
X008170Y008801D01*
X008074Y008704D01*
X008074Y008568D01*
X008170Y008472D01*
X008307Y008472D01*
X008368Y008532D02*
X008620Y008532D01*
X008574Y008582D02*
X008403Y008582D01*
X008403Y008632D02*
X008574Y008632D01*
X008574Y008681D02*
X008403Y008681D01*
X008376Y008731D02*
X008590Y008731D01*
X008640Y008781D02*
X008327Y008781D01*
X008150Y008781D02*
X002754Y008781D01*
X002754Y008831D02*
X034655Y008831D01*
X034670Y008846D02*
X034574Y008750D01*
X034574Y008613D01*
X034670Y008517D01*
X034807Y008517D01*
X034903Y008613D01*
X034903Y008750D01*
X034807Y008846D01*
X034670Y008846D01*
X034605Y008781D02*
X034322Y008781D01*
X034282Y008821D02*
X034145Y008821D01*
X034049Y008725D01*
X034049Y008588D01*
X034145Y008492D01*
X034282Y008492D01*
X034378Y008588D01*
X034378Y008725D01*
X034282Y008821D01*
X034372Y008731D02*
X034574Y008731D01*
X034574Y008681D02*
X034378Y008681D01*
X034378Y008632D02*
X034574Y008632D01*
X034605Y008582D02*
X034372Y008582D01*
X034322Y008532D02*
X034655Y008532D01*
X034822Y008532D02*
X037624Y008532D01*
X037624Y008483D02*
X026140Y008483D01*
X026190Y008532D02*
X034105Y008532D01*
X034055Y008582D02*
X026228Y008582D01*
X026228Y008632D02*
X034049Y008632D01*
X034049Y008681D02*
X026228Y008681D01*
X026204Y008731D02*
X034055Y008731D01*
X034105Y008781D02*
X026155Y008781D01*
X025973Y008781D02*
X025678Y008781D01*
X025632Y008827D02*
X025495Y008827D01*
X025399Y008731D01*
X025399Y008681D02*
X017566Y008681D01*
X017566Y008632D02*
X025399Y008632D01*
X025411Y008582D02*
X017566Y008582D01*
X017519Y008532D02*
X025461Y008532D01*
X025449Y008781D02*
X017502Y008781D01*
X025632Y008827D02*
X025728Y008731D01*
X020638Y013650D02*
X037624Y013650D01*
X037624Y017376D02*
X030884Y017376D01*
X030934Y017425D02*
X037624Y017425D01*
X037624Y017475D02*
X030940Y017475D01*
X030940Y017525D02*
X037624Y017525D01*
X037624Y017574D02*
X030933Y017574D01*
X030883Y017624D02*
X037624Y017624D01*
X037624Y018767D02*
X008015Y018767D01*
X007997Y018816D02*
X037624Y018816D01*
X037624Y018866D02*
X007980Y018866D01*
X007962Y018916D02*
X037624Y018916D01*
X037624Y018966D02*
X007945Y018966D01*
X007923Y019015D02*
X037624Y019015D01*
X037624Y019065D02*
X007874Y019065D01*
X007824Y019115D02*
X037624Y019115D01*
X037624Y019164D02*
X007774Y019164D01*
X007725Y019214D02*
X037624Y019214D01*
X037624Y019264D02*
X007675Y019264D01*
X007625Y019313D02*
X037624Y019313D01*
X037624Y019363D02*
X007576Y019363D01*
X007526Y019413D02*
X037624Y019413D01*
X037624Y019462D02*
X007476Y019462D01*
X007427Y019512D02*
X037624Y019512D01*
X037624Y019562D02*
X007377Y019562D01*
X007327Y019611D02*
X037624Y019611D01*
X037624Y019661D02*
X007278Y019661D01*
X007228Y019711D02*
X037624Y019711D01*
X037624Y019760D02*
X007178Y019760D01*
X007128Y019810D02*
X037624Y019810D01*
X037624Y019860D02*
X007079Y019860D01*
X007029Y019909D02*
X037624Y019909D01*
X037624Y019959D02*
X006979Y019959D01*
X006930Y020009D02*
X037624Y020009D01*
X037624Y020058D02*
X006880Y020058D01*
X006830Y020108D02*
X037624Y020108D01*
X037624Y020158D02*
X006781Y020158D01*
X006731Y020208D02*
X037624Y020208D01*
X037624Y020257D02*
X006681Y020257D01*
X006660Y020307D02*
X037624Y020307D01*
X037624Y020357D02*
X006710Y020357D01*
X006760Y020406D02*
X037624Y020406D01*
X037624Y020456D02*
X006809Y020456D01*
X006859Y020506D02*
X037624Y020506D01*
X037624Y020555D02*
X006909Y020555D01*
X006958Y020605D02*
X037624Y020605D01*
X037624Y020655D02*
X007008Y020655D01*
X007058Y020704D02*
X037624Y020704D01*
X037624Y020754D02*
X007107Y020754D01*
X007157Y020804D02*
X037624Y020804D01*
X037624Y009675D02*
X002754Y009675D01*
X002754Y009625D02*
X037624Y009625D01*
X037624Y009576D02*
X002754Y009576D01*
X002754Y009526D02*
X037624Y009526D01*
X037624Y009476D02*
X002754Y009476D01*
X002754Y009427D02*
X037624Y009427D01*
X037624Y009377D02*
X002754Y009377D01*
X002754Y009327D02*
X037624Y009327D01*
X037624Y009278D02*
X002754Y009278D01*
X002754Y009228D02*
X037624Y009228D01*
X037624Y009178D02*
X002754Y009178D01*
X002754Y009129D02*
X037624Y009129D01*
X037624Y009079D02*
X002754Y009079D01*
X002754Y009029D02*
X037624Y009029D01*
X037624Y008980D02*
X002754Y008980D01*
X002754Y008930D02*
X037624Y008930D01*
X037624Y008880D02*
X002754Y008880D01*
X002754Y008731D02*
X008101Y008731D01*
X008074Y008681D02*
X002754Y008681D01*
X002754Y008632D02*
X008074Y008632D01*
X008074Y008582D02*
X002754Y008582D01*
X002754Y008532D02*
X008110Y008532D01*
X008159Y008483D02*
X002754Y008483D01*
X002754Y008433D02*
X037624Y008433D01*
X037624Y008383D02*
X002754Y008383D01*
X002754Y008334D02*
X037624Y008334D01*
X037624Y008284D02*
X002754Y008284D01*
X002754Y008234D02*
X037624Y008234D01*
X037624Y008185D02*
X002754Y008185D01*
X002754Y008135D02*
X037624Y008135D01*
X037624Y008085D02*
X002754Y008085D01*
X002754Y008036D02*
X037624Y008036D01*
X037624Y007986D02*
X002754Y007986D01*
X002754Y007936D02*
X037624Y007936D01*
X037624Y007887D02*
X002754Y007887D01*
X002754Y007837D02*
X037624Y007837D01*
X037624Y007787D02*
X002754Y007787D01*
X002754Y007738D02*
X037624Y007738D01*
X037624Y007688D02*
X002754Y007688D01*
X002754Y007638D02*
X037624Y007638D01*
X037624Y007588D02*
X002754Y007588D01*
X002754Y007539D02*
X037624Y007539D01*
X037624Y007489D02*
X002754Y007489D01*
X002754Y007439D02*
X037624Y007439D01*
X037624Y007390D02*
X002754Y007390D01*
X002754Y007340D02*
X037624Y007340D01*
X037624Y007290D02*
X002754Y007290D01*
X002754Y007241D02*
X037624Y007241D01*
X037624Y007191D02*
X002754Y007191D01*
X002754Y007141D02*
X037624Y007141D01*
X037624Y007092D02*
X002754Y007092D01*
X002754Y007042D02*
X037624Y007042D01*
X037624Y006992D02*
X002754Y006992D01*
X002754Y006943D02*
X037624Y006943D01*
X037624Y006893D02*
X002754Y006893D01*
X002754Y006843D02*
X037624Y006843D01*
X037624Y006794D02*
X002754Y006794D01*
X002754Y006744D02*
X037624Y006744D01*
X037624Y006694D02*
X002754Y006694D01*
X002754Y006645D02*
X037624Y006645D01*
X037624Y006595D02*
X002754Y006595D01*
X002754Y006545D02*
X037624Y006545D01*
X037624Y006495D02*
X002754Y006495D01*
X002754Y006446D02*
X037624Y006446D01*
X037624Y006396D02*
X002754Y006396D01*
X002754Y006346D02*
X037624Y006346D01*
X037624Y006297D02*
X002754Y006297D01*
X002754Y006247D02*
X037624Y006247D01*
X037624Y006197D02*
X002754Y006197D01*
X002754Y006148D02*
X037624Y006148D01*
X037624Y006098D02*
X002754Y006098D01*
X002754Y006048D02*
X037624Y006048D01*
X037624Y005999D02*
X002754Y005999D01*
X002754Y005949D02*
X037624Y005949D01*
X037624Y005899D02*
X002754Y005899D01*
X002754Y005850D02*
X037624Y005850D01*
X037624Y005800D02*
X002754Y005800D01*
X002754Y005750D02*
X037624Y005750D01*
X037624Y005701D02*
X002754Y005701D01*
X002754Y005651D02*
X037624Y005651D01*
X037624Y005601D02*
X002754Y005601D01*
X002754Y005552D02*
X037624Y005552D01*
X037624Y005502D02*
X002754Y005502D01*
X002754Y005452D02*
X037624Y005452D01*
X037624Y005402D02*
X002754Y005402D01*
X002754Y005353D02*
X037624Y005353D01*
X037624Y005303D02*
X002754Y005303D01*
X002754Y005253D02*
X037624Y005253D01*
X037624Y005204D02*
X002754Y005204D01*
X002754Y005154D02*
X037624Y005154D01*
X037624Y005104D02*
X002754Y005104D01*
X002754Y005055D02*
X037624Y005055D01*
X037624Y005005D02*
X002754Y005005D01*
X002754Y004955D02*
X037624Y004955D01*
X037624Y004906D02*
X002754Y004906D01*
X002754Y004856D02*
X037624Y004856D01*
X037624Y004806D02*
X002754Y004806D01*
X002754Y004757D02*
X037624Y004757D01*
X037624Y004707D02*
X002754Y004707D01*
X002754Y004657D02*
X037624Y004657D01*
X037624Y004608D02*
X002754Y004608D01*
X002754Y004558D02*
X037624Y004558D01*
X037624Y004508D02*
X002754Y004508D01*
X002754Y004459D02*
X037624Y004459D01*
X037624Y004409D02*
X002754Y004409D01*
X002754Y004359D02*
X037624Y004359D01*
X037624Y004310D02*
X002754Y004310D01*
X002754Y004260D02*
X037624Y004260D01*
X037624Y004210D02*
X002754Y004210D01*
X002754Y004160D02*
X037624Y004160D01*
X037624Y004111D02*
X002754Y004111D01*
X002754Y004061D02*
X037624Y004061D01*
X037624Y004011D02*
X002754Y004011D01*
X002754Y003962D02*
X037624Y003962D01*
X037624Y003912D02*
X002754Y003912D01*
X002754Y003862D02*
X037624Y003862D01*
X037624Y003813D02*
X002754Y003813D01*
X002754Y003763D02*
X037624Y003763D01*
X037624Y003713D02*
X002754Y003713D01*
X002754Y003664D02*
X037624Y003664D01*
X037624Y003614D02*
X002754Y003614D01*
X002754Y003564D02*
X037624Y003564D01*
X037624Y003515D02*
X002754Y003515D01*
X002754Y003465D02*
X037624Y003465D01*
X037624Y003415D02*
X002754Y003415D01*
X002754Y003366D02*
X037624Y003366D01*
X037624Y003316D02*
X002754Y003316D01*
X002754Y003266D02*
X037624Y003266D01*
X037624Y003217D02*
X002754Y003217D01*
X002754Y003167D02*
X037624Y003167D01*
X037624Y003117D02*
X002754Y003117D01*
X002754Y003067D02*
X037624Y003067D01*
X037624Y003018D02*
X002754Y003018D01*
X002754Y002968D02*
X037624Y002968D01*
X037624Y002918D02*
X002754Y002918D01*
X002754Y002869D02*
X037624Y002869D01*
X037624Y002819D02*
X002754Y002819D01*
X002754Y002769D02*
X037624Y002769D01*
X037624Y002720D02*
X002754Y002720D01*
X002754Y002670D02*
X037624Y002670D01*
X037624Y002620D02*
X002754Y002620D01*
X002754Y002571D02*
X037624Y002571D01*
X037624Y002521D02*
X002754Y002521D01*
X002754Y002471D02*
X037624Y002471D01*
X037624Y002422D02*
X002754Y002422D01*
X002754Y002372D02*
X037624Y002372D01*
X037624Y002322D02*
X002754Y002322D01*
X002754Y002273D02*
X037624Y002273D01*
X037624Y002223D02*
X002754Y002223D01*
X002754Y002173D02*
X037624Y002173D01*
X037624Y002124D02*
X002754Y002124D01*
X002754Y002074D02*
X037624Y002074D01*
X037624Y002024D02*
X002754Y002024D01*
X002754Y001974D02*
X037624Y001974D01*
X037624Y001925D02*
X002754Y001925D01*
X002754Y001875D02*
X037624Y001875D01*
X037624Y001825D02*
X002754Y001825D01*
X002754Y001776D02*
X037624Y001776D01*
X037624Y001726D02*
X002754Y001726D01*
X002754Y001676D02*
X037624Y001676D01*
X037624Y001627D02*
X002754Y001627D01*
X002754Y001577D02*
X037624Y001577D01*
X037624Y001527D02*
X002754Y001527D01*
X002754Y001478D02*
X037624Y001478D01*
X037624Y001428D02*
X002754Y001428D01*
X002754Y001378D02*
X037624Y001378D01*
X037624Y001329D02*
X002754Y001329D01*
X002754Y001279D02*
X037624Y001279D01*
X037624Y001229D02*
X002754Y001229D01*
X002754Y001180D02*
X037624Y001180D01*
X037624Y001130D02*
X002754Y001130D01*
X002754Y001080D02*
X037624Y001080D01*
X037624Y001031D02*
X002754Y001031D01*
X002754Y000981D02*
X037624Y000981D01*
X037624Y008582D02*
X034872Y008582D01*
X034903Y008632D02*
X037624Y008632D01*
X037624Y008681D02*
X034903Y008681D01*
X034903Y008731D02*
X037624Y008731D01*
X037624Y008781D02*
X034872Y008781D01*
X034822Y008831D02*
X037624Y008831D01*
X009116Y009725D02*
X002754Y009725D01*
X002754Y009774D02*
X009066Y009774D01*
X009017Y009824D02*
X002754Y009824D01*
X002754Y009874D02*
X008967Y009874D01*
X008966Y009875D02*
X008966Y009875D01*
X008917Y009924D02*
X002754Y009924D01*
X002754Y009973D02*
X008906Y009973D01*
X008906Y010023D02*
X002754Y010023D01*
X002754Y010073D02*
X008906Y010073D01*
X008906Y010122D02*
X002754Y010122D01*
X002754Y010172D02*
X008906Y010172D01*
X008906Y010222D02*
X002754Y010222D01*
X002754Y010271D02*
X008906Y010271D01*
X008906Y010321D02*
X002754Y010321D01*
X002754Y010371D02*
X008906Y010371D01*
X008906Y010420D02*
X002754Y010420D01*
X002754Y010470D02*
X008906Y010470D01*
X008906Y010520D02*
X002754Y010520D01*
X002754Y010569D02*
X008906Y010569D01*
X008941Y010619D02*
X002754Y010619D01*
X002754Y010669D02*
X008990Y010669D01*
X009040Y010718D02*
X002754Y010718D01*
X009108Y010321D02*
X009118Y010321D01*
X006915Y017972D02*
X004325Y017972D01*
X004375Y018022D02*
X006866Y018022D01*
X006849Y018071D02*
X004425Y018071D01*
X004474Y018121D02*
X006849Y018121D01*
X006849Y018171D02*
X004524Y018171D01*
X004574Y018220D02*
X006895Y018220D01*
X006944Y018270D02*
X004623Y018270D01*
X004673Y018320D02*
X007021Y018320D01*
X006971Y018369D02*
X004723Y018369D01*
X004772Y018419D02*
X006922Y018419D01*
X006872Y018469D02*
X004822Y018469D01*
X004872Y018518D02*
X006822Y018518D01*
X006773Y018568D02*
X004921Y018568D01*
X004971Y018618D02*
X006723Y018618D01*
X006673Y018667D02*
X005021Y018667D01*
X005070Y018717D02*
X006624Y018717D01*
X006574Y018767D02*
X005120Y018767D01*
X005170Y018816D02*
X006524Y018816D01*
X006474Y018866D02*
X005219Y018866D01*
X005269Y018916D02*
X006425Y018916D01*
X006375Y018966D02*
X005319Y018966D01*
X005368Y019015D02*
X006325Y019015D01*
X006276Y019065D02*
X005418Y019065D01*
X005468Y019115D02*
X006226Y019115D01*
X006176Y019164D02*
X005518Y019164D01*
X005567Y019214D02*
X006127Y019214D01*
X006077Y019264D02*
X005617Y019264D01*
X005667Y019313D02*
X006027Y019313D01*
X005923Y019363D02*
X005716Y019363D01*
X005766Y019413D02*
X005807Y019413D01*
X007178Y018171D02*
X007242Y018171D01*
D12*
X007014Y018106D03*
X006839Y017581D03*
X006814Y017256D03*
X006439Y017306D03*
X006274Y017146D03*
X006049Y017096D03*
X006139Y016831D03*
X005464Y016556D03*
X005239Y014681D03*
X006539Y014256D03*
X007289Y014206D03*
X007314Y013831D03*
X007989Y014531D03*
X007339Y012881D03*
X009240Y010432D03*
X009752Y010626D03*
X009739Y008648D03*
X008739Y008647D03*
X008239Y008636D03*
X010739Y008656D03*
X016900Y008635D03*
X017402Y008648D03*
X018400Y008623D03*
X019364Y008658D03*
X017902Y010425D03*
X018409Y010460D03*
X018064Y013306D03*
X018339Y014431D03*
X018964Y014506D03*
X019289Y014506D03*
X019589Y014506D03*
X020239Y014531D03*
X020614Y014606D03*
X020614Y014881D03*
X020614Y015206D03*
X020614Y015506D03*
X020614Y015881D03*
X020614Y016156D03*
X020614Y016456D03*
X020614Y016781D03*
X019889Y016831D03*
X019289Y016806D03*
X018964Y016856D03*
X018639Y016806D03*
X018314Y016856D03*
X018264Y015531D03*
X018264Y015231D03*
X018264Y014906D03*
X020535Y013779D03*
X026564Y010433D03*
X027067Y010425D03*
X027067Y008665D03*
X027976Y008547D03*
X026064Y008639D03*
X025564Y008663D03*
X034214Y008656D03*
X034739Y008681D03*
X035725Y008631D03*
X036714Y008631D03*
X035714Y010431D03*
X035214Y010431D03*
X035739Y014206D03*
X035039Y016331D03*
X034964Y017181D03*
X034864Y017606D03*
X034789Y018081D03*
X034939Y018481D03*
X030775Y017500D03*
X029653Y017405D03*
X029653Y017819D03*
X030539Y018208D03*
X031933Y015196D03*
X019764Y018331D03*
X018764Y018531D03*
X013389Y016506D03*
X013289Y015531D03*
X009014Y018406D03*
D13*
X007289Y017331D02*
X007289Y016931D01*
X007270Y016931D01*
X007011Y016673D01*
X006297Y016673D01*
X006139Y016831D01*
X006139Y014656D01*
X006539Y014256D01*
X007714Y014256D01*
X007989Y014531D01*
X007314Y013831D02*
X007314Y012906D01*
X007339Y012881D01*
X012114Y012881D01*
X015139Y015906D01*
X018964Y015906D01*
X018964Y015056D01*
X018339Y014431D01*
X018339Y013581D01*
X018064Y013306D01*
X018964Y015906D02*
X018964Y016856D01*
X018964Y018331D01*
X018764Y018531D01*
X019764Y018331D02*
X019764Y017281D01*
X019289Y016806D01*
X007289Y017331D02*
X007039Y017581D01*
X006839Y017581D01*
X007339Y012881D02*
X007339Y006881D01*
X008039Y006181D01*
X009739Y006181D01*
X009739Y008648D01*
X009739Y006181D02*
X018338Y006181D01*
X027039Y006181D01*
X027064Y006206D01*
X027039Y006181D02*
X035139Y006181D01*
X035746Y006789D01*
X037139Y008181D01*
X037139Y010531D01*
X035739Y011931D01*
X035739Y014206D01*
X036264Y014206D01*
X036714Y014656D01*
X036714Y017256D01*
X036364Y017606D01*
X034864Y017606D01*
D14*
X035725Y008631D02*
X035746Y008631D01*
X035746Y006789D01*
X035725Y008631D02*
X036714Y008631D01*
X027976Y008547D02*
X027185Y008547D01*
X027067Y008665D01*
X027064Y008662D01*
X027064Y006206D01*
X019364Y008623D02*
X019364Y008658D01*
X019364Y008623D02*
X018400Y008623D01*
X018338Y008623D01*
X018338Y006181D01*
X010739Y008656D02*
X009739Y008656D01*
X009739Y008648D01*
M02*
