G75*
%MOIN*%
%OFA0B0*%
%FSLAX24Y24*%
%IPPOS*%
%LPD*%
%AMOC8*
5,1,8,0,0,1.08239X$1,22.5*
%
%ADD10C,0.0600*%
%ADD11C,0.0178*%
%ADD12C,0.0051*%
D10*
X011839Y015381D03*
X011839Y016381D03*
X011839Y017381D03*
X011839Y018381D03*
D11*
X009014Y018406D03*
X007014Y018106D03*
X006839Y017581D03*
X006814Y017256D03*
X006439Y017306D03*
X006274Y017146D03*
X006049Y017096D03*
X006139Y016831D03*
X005464Y016556D03*
X005239Y014681D03*
X006539Y014256D03*
X007289Y014206D03*
X007314Y013831D03*
X007989Y014531D03*
X007339Y012881D03*
X009240Y010432D03*
X009752Y010626D03*
X009739Y008648D03*
X008739Y008647D03*
X008239Y008636D03*
X010739Y008656D03*
X016900Y008635D03*
X017402Y008648D03*
X018400Y008623D03*
X019364Y008658D03*
X017902Y010425D03*
X018409Y010460D03*
X018064Y013306D03*
X018339Y014431D03*
X018964Y014506D03*
X019289Y014506D03*
X019589Y014506D03*
X020239Y014531D03*
X020614Y014606D03*
X020614Y014881D03*
X020614Y015206D03*
X020614Y015506D03*
X020614Y015881D03*
X020614Y016156D03*
X020614Y016456D03*
X020614Y016781D03*
X019889Y016831D03*
X019289Y016806D03*
X018964Y016856D03*
X018639Y016806D03*
X018314Y016856D03*
X018264Y015531D03*
X018264Y015231D03*
X018264Y014906D03*
X020535Y013779D03*
X026564Y010433D03*
X027067Y010425D03*
X027067Y008665D03*
X027976Y008547D03*
X026064Y008639D03*
X025564Y008663D03*
X034214Y008656D03*
X034739Y008681D03*
X035725Y008631D03*
X036714Y008631D03*
X035714Y010431D03*
X035214Y010431D03*
X035739Y014206D03*
X035039Y016331D03*
X034964Y017181D03*
X034864Y017606D03*
X034789Y018081D03*
X034939Y018481D03*
X030775Y017500D03*
X029653Y017405D03*
X029653Y017819D03*
X030539Y018208D03*
X031933Y015196D03*
X019764Y018331D03*
X018764Y018531D03*
X013389Y016506D03*
X013289Y015531D03*
D12*
X002754Y016400D02*
X002754Y000946D01*
X037624Y000946D01*
X037624Y020817D01*
X007170Y020817D01*
X006675Y020321D01*
X006656Y020302D01*
X006653Y020300D01*
X006652Y020293D01*
X006653Y020286D01*
X006656Y020283D01*
X006674Y020264D01*
X007824Y019114D01*
X007839Y019100D01*
X007839Y019100D01*
X007930Y019009D01*
X007930Y019009D01*
X008015Y018765D01*
X008015Y018765D01*
X007986Y018509D01*
X007986Y018509D01*
X007849Y018291D01*
X007849Y018291D01*
X007849Y018291D01*
X007631Y018153D01*
X007631Y018153D01*
X007374Y018124D01*
X007374Y018124D01*
X007131Y018210D01*
X007131Y018210D01*
X007040Y018301D01*
X007040Y018301D01*
X007023Y018318D01*
X006566Y018775D01*
X006168Y019173D01*
X006168Y019173D01*
X006137Y019204D01*
X006130Y019211D01*
X006019Y019322D01*
X005778Y019425D01*
X004145Y017792D01*
X004248Y017551D01*
X004359Y017440D01*
X004366Y017433D01*
X004397Y017402D01*
X004397Y017402D01*
X004777Y017023D01*
X005253Y016546D01*
X005269Y016530D01*
X005269Y016530D01*
X005360Y016439D01*
X005360Y016439D01*
X005446Y016196D01*
X005446Y016196D01*
X005417Y015939D01*
X005417Y015939D01*
X005280Y015721D01*
X005280Y015721D01*
X005061Y015584D01*
X005061Y015584D01*
X004805Y015555D01*
X004805Y015555D01*
X004562Y015640D01*
X004562Y015640D01*
X004470Y015731D01*
X004470Y015731D01*
X004459Y015743D01*
X003304Y016897D01*
X003287Y016914D01*
X003284Y016917D01*
X003277Y016918D01*
X003271Y016917D01*
X003268Y016914D01*
X003249Y016895D01*
X002754Y016400D01*
X002754Y016382D02*
X003819Y016382D01*
X003770Y016432D02*
X002785Y016432D01*
X002835Y016481D02*
X003720Y016481D01*
X003670Y016531D02*
X002884Y016531D01*
X002934Y016581D02*
X003621Y016581D01*
X003571Y016630D02*
X002984Y016630D01*
X003033Y016680D02*
X003521Y016680D01*
X003472Y016730D02*
X003083Y016730D01*
X003133Y016780D02*
X003422Y016780D01*
X003372Y016829D02*
X003182Y016829D01*
X003232Y016879D02*
X003323Y016879D01*
X003869Y016332D02*
X002754Y016332D01*
X002754Y016283D02*
X003919Y016283D01*
X003969Y016233D02*
X002754Y016233D01*
X002754Y016183D02*
X004018Y016183D01*
X004068Y016134D02*
X002754Y016134D01*
X002754Y016084D02*
X004118Y016084D01*
X004167Y016034D02*
X002754Y016034D01*
X002754Y015985D02*
X004217Y015985D01*
X004267Y015935D02*
X002754Y015935D01*
X002754Y015885D02*
X004316Y015885D01*
X004366Y015836D02*
X002754Y015836D01*
X002754Y015786D02*
X004416Y015786D01*
X004465Y015736D02*
X002754Y015736D01*
X002754Y015687D02*
X004515Y015687D01*
X004571Y015637D02*
X002754Y015637D01*
X002754Y015587D02*
X004713Y015587D01*
X005067Y015587D02*
X005713Y015587D01*
X005713Y015537D02*
X002754Y015537D01*
X002754Y015488D02*
X005713Y015488D01*
X005713Y015438D02*
X002754Y015438D01*
X002754Y015388D02*
X005713Y015388D01*
X005713Y015348D02*
X005210Y014846D01*
X005170Y014846D01*
X005074Y014750D01*
X005074Y014613D01*
X005170Y014517D01*
X005307Y014517D01*
X005403Y014613D01*
X005403Y014750D01*
X005401Y014751D01*
X005855Y015206D01*
X005915Y015265D01*
X005915Y016820D01*
X005974Y016879D01*
X005974Y016763D01*
X006070Y016667D01*
X006207Y016667D01*
X006303Y016763D01*
X006303Y016900D01*
X006221Y016982D01*
X006295Y016982D01*
X006522Y016756D01*
X008453Y016756D01*
X008513Y016815D01*
X010597Y018899D01*
X012793Y018899D01*
X014022Y020127D01*
X019678Y020127D01*
X021113Y018693D01*
X021113Y017823D01*
X020188Y016898D01*
X020188Y016540D01*
X020313Y016415D01*
X020372Y016356D01*
X020482Y016356D01*
X020531Y016306D01*
X020449Y016225D01*
X020449Y016088D01*
X020518Y016019D01*
X020449Y015950D01*
X020449Y015813D01*
X020545Y015717D01*
X020682Y015717D01*
X020745Y015781D01*
X032630Y015781D01*
X033614Y016764D01*
X034663Y015715D01*
X034663Y010273D01*
X034113Y009723D01*
X034113Y008788D01*
X034049Y008725D01*
X034049Y008588D01*
X034145Y008492D01*
X034282Y008492D01*
X034378Y008588D01*
X034378Y008725D01*
X034315Y008788D01*
X034315Y009640D01*
X034638Y009963D01*
X034638Y008813D01*
X034574Y008750D01*
X034574Y008613D01*
X034670Y008517D01*
X034807Y008517D01*
X034903Y008613D01*
X034903Y008750D01*
X034840Y008813D01*
X034840Y009890D01*
X035030Y010081D01*
X035090Y010140D01*
X035090Y010323D01*
X035145Y010267D01*
X035282Y010267D01*
X035378Y010363D01*
X035378Y010500D01*
X035315Y010563D01*
X035315Y016198D01*
X035203Y016310D01*
X035203Y016400D01*
X035107Y016496D01*
X034970Y016496D01*
X034874Y016400D01*
X034874Y016264D01*
X034790Y016348D01*
X034790Y016865D01*
X034942Y017017D01*
X035032Y017017D01*
X035128Y017113D01*
X035128Y017250D01*
X035032Y017346D01*
X034895Y017346D01*
X034799Y017250D01*
X034799Y017160D01*
X034588Y016948D01*
X034588Y016265D01*
X034647Y016206D01*
X034888Y015965D01*
X034888Y010223D01*
X034865Y010200D01*
X034865Y015798D01*
X033756Y016906D01*
X034767Y017917D01*
X034857Y017917D01*
X034953Y018013D01*
X034953Y018150D01*
X034857Y018246D01*
X034720Y018246D01*
X034624Y018150D01*
X034624Y018060D01*
X033572Y017007D01*
X033513Y016948D01*
X032547Y015982D01*
X020745Y015982D01*
X020709Y016019D01*
X020778Y016088D01*
X020778Y016225D01*
X020696Y016306D01*
X020778Y016388D01*
X020778Y016525D01*
X020684Y016619D01*
X020778Y016713D01*
X020778Y016850D01*
X020715Y016913D01*
X020715Y016969D01*
X021356Y017611D01*
X021416Y017670D01*
X021416Y018829D01*
X019871Y020373D01*
X019812Y020432D01*
X013897Y020432D01*
X013838Y020373D01*
X012672Y019207D01*
X010472Y019207D01*
X010413Y019148D01*
X008372Y017107D01*
X006897Y017107D01*
X006945Y017156D01*
X007905Y017156D01*
X008992Y018242D01*
X009082Y018242D01*
X009178Y018338D01*
X009178Y018475D01*
X009082Y018571D01*
X008945Y018571D01*
X008849Y018475D01*
X008849Y018385D01*
X007822Y017357D01*
X006945Y017357D01*
X006886Y017417D01*
X006907Y017417D01*
X007003Y017513D01*
X007003Y017650D01*
X006907Y017746D01*
X006770Y017746D01*
X006674Y017650D01*
X006674Y017513D01*
X006766Y017421D01*
X006745Y017421D01*
X006649Y017325D01*
X006649Y017239D01*
X006603Y017285D01*
X006603Y017375D01*
X006507Y017471D01*
X006370Y017471D01*
X006274Y017375D01*
X006274Y017311D01*
X006205Y017311D01*
X006136Y017242D01*
X006117Y017261D01*
X005980Y017261D01*
X005884Y017165D01*
X005884Y017075D01*
X005772Y016962D01*
X005713Y016903D01*
X005713Y015348D01*
X005703Y015339D02*
X002754Y015339D01*
X002754Y015289D02*
X005653Y015289D01*
X005604Y015239D02*
X002754Y015239D01*
X002754Y015190D02*
X005554Y015190D01*
X005504Y015140D02*
X002754Y015140D01*
X002754Y015090D02*
X005455Y015090D01*
X005405Y015041D02*
X002754Y015041D01*
X002754Y014991D02*
X005355Y014991D01*
X005306Y014941D02*
X002754Y014941D01*
X002754Y014892D02*
X005256Y014892D01*
X005166Y014842D02*
X002754Y014842D01*
X002754Y014792D02*
X005117Y014792D01*
X005074Y014743D02*
X002754Y014743D01*
X002754Y014693D02*
X005074Y014693D01*
X005074Y014643D02*
X002754Y014643D01*
X002754Y014594D02*
X005094Y014594D01*
X005143Y014544D02*
X002754Y014544D01*
X002754Y014494D02*
X007824Y014494D01*
X007824Y014463D02*
X007920Y014367D01*
X008057Y014367D01*
X008153Y014463D01*
X008153Y014600D01*
X008057Y014696D01*
X007920Y014696D01*
X007824Y014600D01*
X007824Y014463D01*
X007843Y014445D02*
X002754Y014445D01*
X002754Y014395D02*
X006444Y014395D01*
X006470Y014421D02*
X006374Y014325D01*
X006374Y014188D01*
X006470Y014092D01*
X006607Y014092D01*
X006703Y014188D01*
X006703Y014325D01*
X006607Y014421D01*
X006470Y014421D01*
X006394Y014345D02*
X002754Y014345D01*
X002754Y014295D02*
X006374Y014295D01*
X006374Y014246D02*
X002754Y014246D01*
X002754Y014196D02*
X006374Y014196D01*
X006416Y014146D02*
X002754Y014146D01*
X002754Y014097D02*
X006466Y014097D01*
X006612Y014097D02*
X007166Y014097D01*
X007124Y014138D02*
X007220Y014042D01*
X007357Y014042D01*
X007453Y014138D01*
X007453Y014275D01*
X007357Y014371D01*
X007220Y014371D01*
X007124Y014275D01*
X007124Y014138D01*
X007124Y014146D02*
X006661Y014146D01*
X006703Y014196D02*
X007124Y014196D01*
X007124Y014246D02*
X006703Y014246D01*
X006703Y014295D02*
X007145Y014295D01*
X007194Y014345D02*
X006683Y014345D01*
X006633Y014395D02*
X007892Y014395D01*
X007824Y014544D02*
X005334Y014544D01*
X005383Y014594D02*
X007824Y014594D01*
X007868Y014643D02*
X005403Y014643D01*
X005403Y014693D02*
X007917Y014693D01*
X008060Y014693D02*
X014832Y014693D01*
X014783Y014643D02*
X008110Y014643D01*
X008153Y014594D02*
X014733Y014594D01*
X014683Y014544D02*
X008153Y014544D01*
X008153Y014494D02*
X014633Y014494D01*
X014584Y014445D02*
X008134Y014445D01*
X008085Y014395D02*
X014534Y014395D01*
X014484Y014345D02*
X007383Y014345D01*
X007432Y014295D02*
X014435Y014295D01*
X014385Y014246D02*
X007453Y014246D01*
X007453Y014196D02*
X014335Y014196D01*
X014286Y014146D02*
X007453Y014146D01*
X007412Y014097D02*
X014236Y014097D01*
X014186Y014047D02*
X007362Y014047D01*
X007382Y013996D02*
X007245Y013996D01*
X007149Y013900D01*
X007149Y013763D01*
X007245Y013667D01*
X007382Y013667D01*
X007478Y013763D01*
X007478Y013900D01*
X007382Y013996D01*
X007430Y013948D02*
X014087Y013948D01*
X014137Y013997D02*
X002754Y013997D01*
X002754Y013948D02*
X007197Y013948D01*
X007149Y013898D02*
X002754Y013898D01*
X002754Y013848D02*
X007149Y013848D01*
X007149Y013799D02*
X002754Y013799D01*
X002754Y013749D02*
X007163Y013749D01*
X007213Y013699D02*
X002754Y013699D01*
X002754Y013650D02*
X013789Y013650D01*
X013839Y013699D02*
X007414Y013699D01*
X007464Y013749D02*
X013888Y013749D01*
X013938Y013799D02*
X007478Y013799D01*
X007478Y013848D02*
X013988Y013848D01*
X014037Y013898D02*
X007478Y013898D01*
X007215Y014047D02*
X002754Y014047D01*
X002754Y013600D02*
X013739Y013600D01*
X013690Y013550D02*
X002754Y013550D01*
X002754Y013501D02*
X013640Y013501D01*
X013590Y013451D02*
X002754Y013451D01*
X002754Y013401D02*
X013540Y013401D01*
X013491Y013352D02*
X002754Y013352D01*
X002754Y013302D02*
X013441Y013302D01*
X013391Y013252D02*
X002754Y013252D01*
X002754Y013202D02*
X013342Y013202D01*
X013292Y013153D02*
X002754Y013153D01*
X002754Y013103D02*
X013242Y013103D01*
X013193Y013053D02*
X002754Y013053D01*
X002754Y013004D02*
X007228Y013004D01*
X007270Y013046D02*
X007174Y012950D01*
X007174Y012813D01*
X007270Y012717D01*
X007407Y012717D01*
X007503Y012813D01*
X007503Y012950D01*
X007407Y013046D01*
X007270Y013046D01*
X007178Y012954D02*
X002754Y012954D01*
X002754Y012904D02*
X007174Y012904D01*
X007174Y012855D02*
X002754Y012855D01*
X002754Y012805D02*
X007182Y012805D01*
X007232Y012755D02*
X002754Y012755D01*
X002754Y012706D02*
X012845Y012706D01*
X012895Y012755D02*
X007445Y012755D01*
X007495Y012805D02*
X012944Y012805D01*
X012994Y012855D02*
X007503Y012855D01*
X007503Y012904D02*
X013044Y012904D01*
X013093Y012954D02*
X007499Y012954D01*
X007449Y013004D02*
X013143Y013004D01*
X013280Y012855D02*
X013562Y012855D01*
X013612Y012904D02*
X013329Y012904D01*
X013379Y012954D02*
X013662Y012954D01*
X013711Y013004D02*
X013429Y013004D01*
X013478Y013053D02*
X013761Y013053D01*
X013811Y013103D02*
X013528Y013103D01*
X013578Y013153D02*
X013860Y013153D01*
X013910Y013202D02*
X013627Y013202D01*
X013677Y013252D02*
X013960Y013252D01*
X014009Y013302D02*
X013727Y013302D01*
X013776Y013352D02*
X014059Y013352D01*
X014109Y013401D02*
X013826Y013401D01*
X013876Y013451D02*
X014158Y013451D01*
X014208Y013501D02*
X013925Y013501D01*
X013975Y013550D02*
X014258Y013550D01*
X014308Y013600D02*
X014025Y013600D01*
X014074Y013650D02*
X014357Y013650D01*
X014407Y013699D02*
X014124Y013699D01*
X014174Y013749D02*
X014457Y013749D01*
X014506Y013799D02*
X014224Y013799D01*
X014273Y013848D02*
X014556Y013848D01*
X014606Y013898D02*
X014323Y013898D01*
X014373Y013948D02*
X014655Y013948D01*
X014705Y013997D02*
X014422Y013997D01*
X014472Y014047D02*
X014755Y014047D01*
X014804Y014097D02*
X014522Y014097D01*
X014571Y014146D02*
X014854Y014146D01*
X014904Y014196D02*
X014621Y014196D01*
X014671Y014246D02*
X014953Y014246D01*
X015003Y014295D02*
X014720Y014295D01*
X014770Y014345D02*
X015053Y014345D01*
X015102Y014395D02*
X014820Y014395D01*
X014869Y014445D02*
X015152Y014445D01*
X015202Y014494D02*
X014919Y014494D01*
X014969Y014544D02*
X015251Y014544D01*
X015301Y014594D02*
X015018Y014594D01*
X015068Y014643D02*
X015351Y014643D01*
X015400Y014693D02*
X015118Y014693D01*
X015167Y014743D02*
X015450Y014743D01*
X015500Y014792D02*
X015217Y014792D01*
X015267Y014842D02*
X015550Y014842D01*
X015599Y014892D02*
X015317Y014892D01*
X015366Y014941D02*
X015649Y014941D01*
X015699Y014991D02*
X015416Y014991D01*
X015466Y015041D02*
X015748Y015041D01*
X015798Y015090D02*
X015515Y015090D01*
X015565Y015140D02*
X015848Y015140D01*
X015897Y015190D02*
X015615Y015190D01*
X015664Y015239D02*
X015947Y015239D01*
X015981Y015273D02*
X009804Y009097D01*
X008786Y009097D01*
X008727Y009037D01*
X008638Y008948D01*
X008638Y008778D01*
X008574Y008715D01*
X008574Y008578D01*
X008670Y008482D01*
X008807Y008482D01*
X008903Y008578D01*
X008903Y008715D01*
X008840Y008778D01*
X008840Y008865D01*
X008870Y008895D01*
X009888Y008895D01*
X009947Y008954D01*
X016124Y015131D01*
X018132Y015131D01*
X018193Y015069D01*
X018099Y014975D01*
X018099Y014838D01*
X018195Y014742D01*
X018332Y014742D01*
X018428Y014838D01*
X018428Y014975D01*
X018334Y015069D01*
X018428Y015163D01*
X018428Y015300D01*
X018346Y015381D01*
X018428Y015463D01*
X018428Y015600D01*
X018332Y015696D01*
X018195Y015696D01*
X018132Y015632D01*
X015772Y015632D01*
X009622Y009482D01*
X008522Y009482D01*
X008197Y009157D01*
X008138Y009098D01*
X008138Y008768D01*
X008074Y008704D01*
X008074Y008568D01*
X008170Y008472D01*
X008307Y008472D01*
X008403Y008568D01*
X008403Y008704D01*
X008340Y008768D01*
X008340Y009015D01*
X008605Y009281D01*
X009705Y009281D01*
X009765Y009340D01*
X015855Y015431D01*
X018132Y015431D01*
X018181Y015381D01*
X018132Y015332D01*
X016040Y015332D01*
X015981Y015273D01*
X015981Y015273D01*
X015997Y015289D02*
X015714Y015289D01*
X015764Y015339D02*
X018138Y015339D01*
X018174Y015388D02*
X015813Y015388D01*
X015814Y015531D02*
X009664Y009381D01*
X008564Y009381D01*
X008239Y009056D01*
X008239Y008636D01*
X008403Y008632D02*
X008574Y008632D01*
X008574Y008681D02*
X008403Y008681D01*
X008376Y008731D02*
X008590Y008731D01*
X008638Y008781D02*
X008340Y008781D01*
X008340Y008831D02*
X008638Y008831D01*
X008638Y008880D02*
X008340Y008880D01*
X008340Y008930D02*
X008638Y008930D01*
X008669Y008980D02*
X008340Y008980D01*
X008354Y009029D02*
X008719Y009029D01*
X008768Y009079D02*
X008404Y009079D01*
X008453Y009129D02*
X009836Y009129D01*
X009886Y009178D02*
X008503Y009178D01*
X008553Y009228D02*
X009936Y009228D01*
X009985Y009278D02*
X008603Y009278D01*
X008466Y009427D02*
X002754Y009427D01*
X002754Y009476D02*
X008516Y009476D01*
X008416Y009377D02*
X002754Y009377D01*
X002754Y009327D02*
X008367Y009327D01*
X008317Y009278D02*
X002754Y009278D01*
X002754Y009228D02*
X008267Y009228D01*
X008218Y009178D02*
X002754Y009178D01*
X002754Y009129D02*
X008168Y009129D01*
X008138Y009079D02*
X002754Y009079D01*
X002754Y009029D02*
X008138Y009029D01*
X008138Y008980D02*
X002754Y008980D01*
X002754Y008930D02*
X008138Y008930D01*
X008138Y008880D02*
X002754Y008880D01*
X002754Y008831D02*
X008138Y008831D01*
X008138Y008781D02*
X002754Y008781D01*
X002754Y008731D02*
X008101Y008731D01*
X008074Y008681D02*
X002754Y008681D01*
X002754Y008632D02*
X008074Y008632D01*
X008074Y008582D02*
X002754Y008582D01*
X002754Y008532D02*
X008110Y008532D01*
X008159Y008483D02*
X002754Y008483D01*
X002754Y008433D02*
X027857Y008433D01*
X027811Y008479D02*
X027908Y008382D01*
X028044Y008382D01*
X028141Y008479D01*
X028141Y008615D01*
X028044Y008711D01*
X027908Y008711D01*
X027811Y008615D01*
X027811Y008479D01*
X027811Y008483D02*
X026140Y008483D01*
X026132Y008474D02*
X026228Y008571D01*
X026228Y008707D01*
X026165Y008771D01*
X026165Y011323D01*
X026105Y011382D01*
X022505Y014982D01*
X020745Y014982D01*
X020684Y015044D01*
X020745Y015106D01*
X022497Y015106D01*
X026463Y011140D01*
X026463Y010565D01*
X026399Y010501D01*
X026399Y010365D01*
X026495Y010268D01*
X026632Y010268D01*
X026728Y010365D01*
X026728Y010501D01*
X026665Y010565D01*
X026665Y011223D01*
X026605Y011282D01*
X022580Y015307D01*
X020745Y015307D01*
X020696Y015356D01*
X020778Y015438D01*
X034663Y015438D01*
X034663Y015388D02*
X020728Y015388D01*
X020714Y015339D02*
X031842Y015339D01*
X031864Y015361D02*
X031768Y015265D01*
X031768Y015128D01*
X031864Y015032D01*
X032001Y015032D01*
X032097Y015128D01*
X032097Y015265D01*
X032001Y015361D01*
X031864Y015361D01*
X031793Y015289D02*
X022599Y015289D01*
X022648Y015239D02*
X031768Y015239D01*
X031768Y015190D02*
X022698Y015190D01*
X022748Y015140D02*
X031768Y015140D01*
X031806Y015090D02*
X022798Y015090D01*
X022847Y015041D02*
X031856Y015041D01*
X032010Y015041D02*
X034663Y015041D01*
X034663Y015090D02*
X032059Y015090D01*
X032097Y015140D02*
X034663Y015140D01*
X034663Y015190D02*
X032097Y015190D01*
X032097Y015239D02*
X034663Y015239D01*
X034663Y015289D02*
X032073Y015289D01*
X032023Y015339D02*
X034663Y015339D01*
X034663Y015488D02*
X020778Y015488D01*
X020778Y015537D02*
X034663Y015537D01*
X034663Y015587D02*
X020766Y015587D01*
X020778Y015575D02*
X020682Y015671D01*
X020545Y015671D01*
X020449Y015575D01*
X020449Y015438D01*
X018403Y015438D01*
X018428Y015488D02*
X020449Y015488D01*
X020449Y015537D02*
X018428Y015537D01*
X018428Y015587D02*
X020461Y015587D01*
X020511Y015637D02*
X018391Y015637D01*
X018341Y015687D02*
X034663Y015687D01*
X034663Y015637D02*
X020716Y015637D01*
X020778Y015575D02*
X020778Y015438D01*
X020531Y015356D02*
X020449Y015275D01*
X020449Y015138D01*
X020543Y015044D01*
X020449Y014950D01*
X020449Y014813D01*
X020518Y014744D01*
X020449Y014675D01*
X020449Y014538D01*
X020545Y014442D01*
X020682Y014442D01*
X020745Y014506D01*
X022322Y014506D01*
X025463Y011365D01*
X025463Y008794D01*
X025399Y008731D01*
X025399Y008594D01*
X025495Y008498D01*
X025632Y008498D01*
X025728Y008594D01*
X025728Y008731D01*
X025923Y008731D01*
X025899Y008707D02*
X025899Y008571D01*
X025995Y008474D01*
X026132Y008474D01*
X026190Y008532D02*
X026966Y008532D01*
X026998Y008500D02*
X027135Y008500D01*
X027231Y008597D01*
X027231Y008733D01*
X027135Y008830D01*
X026998Y008830D01*
X026902Y008733D01*
X026902Y008597D01*
X026998Y008500D01*
X026917Y008582D02*
X026228Y008582D01*
X026228Y008632D02*
X026902Y008632D01*
X026902Y008681D02*
X026228Y008681D01*
X026204Y008731D02*
X026902Y008731D01*
X026950Y008781D02*
X026165Y008781D01*
X026165Y008831D02*
X034113Y008831D01*
X034113Y008880D02*
X026165Y008880D01*
X026165Y008930D02*
X034113Y008930D01*
X034113Y008980D02*
X026165Y008980D01*
X026165Y009029D02*
X034113Y009029D01*
X034113Y009079D02*
X026165Y009079D01*
X026165Y009129D02*
X034113Y009129D01*
X034113Y009178D02*
X026165Y009178D01*
X026165Y009228D02*
X034113Y009228D01*
X034113Y009278D02*
X026165Y009278D01*
X026165Y009327D02*
X034113Y009327D01*
X034113Y009377D02*
X026165Y009377D01*
X026165Y009427D02*
X034113Y009427D01*
X034113Y009476D02*
X026165Y009476D01*
X026165Y009526D02*
X034113Y009526D01*
X034113Y009576D02*
X026165Y009576D01*
X026165Y009625D02*
X034113Y009625D01*
X034113Y009675D02*
X026165Y009675D01*
X026165Y009725D02*
X034114Y009725D01*
X034164Y009774D02*
X026165Y009774D01*
X026165Y009824D02*
X034213Y009824D01*
X034263Y009874D02*
X026165Y009874D01*
X026165Y009924D02*
X034313Y009924D01*
X034362Y009973D02*
X026165Y009973D01*
X026165Y010023D02*
X034412Y010023D01*
X034462Y010073D02*
X026165Y010073D01*
X026165Y010122D02*
X034512Y010122D01*
X034561Y010172D02*
X026165Y010172D01*
X026165Y010222D02*
X034611Y010222D01*
X034661Y010271D02*
X027146Y010271D01*
X027135Y010260D02*
X027231Y010357D01*
X027231Y010493D01*
X027135Y010589D01*
X026998Y010589D01*
X026902Y010493D01*
X026902Y010357D01*
X026998Y010260D01*
X027135Y010260D01*
X027195Y010321D02*
X034663Y010321D01*
X034663Y010371D02*
X027231Y010371D01*
X027231Y010420D02*
X034663Y010420D01*
X034663Y010470D02*
X027231Y010470D01*
X027204Y010520D02*
X034663Y010520D01*
X034663Y010569D02*
X027155Y010569D01*
X026978Y010569D02*
X026665Y010569D01*
X026665Y010619D02*
X034663Y010619D01*
X034663Y010669D02*
X026665Y010669D01*
X026665Y010718D02*
X034663Y010718D01*
X034663Y010768D02*
X026665Y010768D01*
X026665Y010818D02*
X034663Y010818D01*
X034663Y010867D02*
X026665Y010867D01*
X026665Y010917D02*
X034663Y010917D01*
X034663Y010967D02*
X026665Y010967D01*
X026665Y011016D02*
X034663Y011016D01*
X034663Y011066D02*
X026665Y011066D01*
X026665Y011116D02*
X034663Y011116D01*
X034663Y011166D02*
X026665Y011166D01*
X026665Y011215D02*
X034663Y011215D01*
X034663Y011265D02*
X026623Y011265D01*
X026573Y011315D02*
X034663Y011315D01*
X034663Y011364D02*
X026524Y011364D01*
X026474Y011414D02*
X034663Y011414D01*
X034663Y011464D02*
X026424Y011464D01*
X026375Y011513D02*
X034663Y011513D01*
X034663Y011563D02*
X026325Y011563D01*
X026275Y011613D02*
X034663Y011613D01*
X034663Y011662D02*
X026226Y011662D01*
X026176Y011712D02*
X034663Y011712D01*
X034663Y011762D02*
X026126Y011762D01*
X026076Y011811D02*
X034663Y011811D01*
X034663Y011861D02*
X026027Y011861D01*
X025977Y011911D02*
X034663Y011911D01*
X034663Y011960D02*
X025927Y011960D01*
X025878Y012010D02*
X034663Y012010D01*
X034663Y012060D02*
X025828Y012060D01*
X025778Y012109D02*
X034663Y012109D01*
X034663Y012159D02*
X025729Y012159D01*
X025679Y012209D02*
X034663Y012209D01*
X034663Y012259D02*
X025629Y012259D01*
X025580Y012308D02*
X034663Y012308D01*
X034663Y012358D02*
X025530Y012358D01*
X025480Y012408D02*
X034663Y012408D01*
X034663Y012457D02*
X025431Y012457D01*
X025381Y012507D02*
X034663Y012507D01*
X034663Y012557D02*
X025331Y012557D01*
X025282Y012606D02*
X034663Y012606D01*
X034663Y012656D02*
X025232Y012656D01*
X025182Y012706D02*
X034663Y012706D01*
X034663Y012755D02*
X025133Y012755D01*
X025083Y012805D02*
X034663Y012805D01*
X034663Y012855D02*
X025033Y012855D01*
X024984Y012904D02*
X034663Y012904D01*
X034663Y012954D02*
X024934Y012954D01*
X024884Y013004D02*
X034663Y013004D01*
X034663Y013053D02*
X024834Y013053D01*
X024785Y013103D02*
X034663Y013103D01*
X034663Y013153D02*
X024735Y013153D01*
X024685Y013202D02*
X034663Y013202D01*
X034663Y013252D02*
X024636Y013252D01*
X024586Y013302D02*
X034663Y013302D01*
X034663Y013352D02*
X024536Y013352D01*
X024487Y013401D02*
X034663Y013401D01*
X034663Y013451D02*
X024437Y013451D01*
X024387Y013501D02*
X034663Y013501D01*
X034663Y013550D02*
X024338Y013550D01*
X024288Y013600D02*
X034663Y013600D01*
X034663Y013650D02*
X024238Y013650D01*
X024189Y013699D02*
X034663Y013699D01*
X034663Y013749D02*
X024139Y013749D01*
X024089Y013799D02*
X034663Y013799D01*
X034663Y013848D02*
X024040Y013848D01*
X023990Y013898D02*
X034663Y013898D01*
X034663Y013948D02*
X023940Y013948D01*
X023891Y013997D02*
X034663Y013997D01*
X034663Y014047D02*
X023841Y014047D01*
X023791Y014097D02*
X034663Y014097D01*
X034663Y014146D02*
X023741Y014146D01*
X023692Y014196D02*
X034663Y014196D01*
X034663Y014246D02*
X023642Y014246D01*
X023592Y014295D02*
X034663Y014295D01*
X034663Y014345D02*
X023543Y014345D01*
X023493Y014395D02*
X034663Y014395D01*
X034663Y014445D02*
X023443Y014445D01*
X023394Y014494D02*
X034663Y014494D01*
X034663Y014544D02*
X023344Y014544D01*
X023294Y014594D02*
X034663Y014594D01*
X034663Y014643D02*
X023245Y014643D01*
X023195Y014693D02*
X034663Y014693D01*
X034663Y014743D02*
X023145Y014743D01*
X023096Y014792D02*
X034663Y014792D01*
X034663Y014842D02*
X023046Y014842D01*
X022996Y014892D02*
X034663Y014892D01*
X034663Y014941D02*
X022947Y014941D01*
X022897Y014991D02*
X034663Y014991D01*
X034865Y014991D02*
X034888Y014991D01*
X034888Y015041D02*
X034865Y015041D01*
X034865Y015090D02*
X034888Y015090D01*
X034888Y015140D02*
X034865Y015140D01*
X034865Y015190D02*
X034888Y015190D01*
X034888Y015239D02*
X034865Y015239D01*
X034865Y015289D02*
X034888Y015289D01*
X034888Y015339D02*
X034865Y015339D01*
X034865Y015388D02*
X034888Y015388D01*
X034888Y015438D02*
X034865Y015438D01*
X034865Y015488D02*
X034888Y015488D01*
X034888Y015537D02*
X034865Y015537D01*
X034865Y015587D02*
X034888Y015587D01*
X034888Y015637D02*
X034865Y015637D01*
X034865Y015687D02*
X034888Y015687D01*
X034888Y015736D02*
X034865Y015736D01*
X034865Y015786D02*
X034888Y015786D01*
X034888Y015836D02*
X034827Y015836D01*
X034778Y015885D02*
X034888Y015885D01*
X034888Y015935D02*
X034728Y015935D01*
X034678Y015985D02*
X034868Y015985D01*
X034818Y016034D02*
X034629Y016034D01*
X034579Y016084D02*
X034768Y016084D01*
X034719Y016134D02*
X034529Y016134D01*
X034480Y016183D02*
X034669Y016183D01*
X034619Y016233D02*
X034430Y016233D01*
X034380Y016283D02*
X034588Y016283D01*
X034588Y016332D02*
X034330Y016332D01*
X034281Y016382D02*
X034588Y016382D01*
X034588Y016432D02*
X034231Y016432D01*
X034181Y016481D02*
X034588Y016481D01*
X034588Y016531D02*
X034132Y016531D01*
X034082Y016581D02*
X034588Y016581D01*
X034588Y016630D02*
X034032Y016630D01*
X033983Y016680D02*
X034588Y016680D01*
X034588Y016730D02*
X033933Y016730D01*
X033883Y016780D02*
X034588Y016780D01*
X034588Y016829D02*
X033834Y016829D01*
X033784Y016879D02*
X034588Y016879D01*
X034588Y016929D02*
X033778Y016929D01*
X033828Y016978D02*
X034618Y016978D01*
X034667Y017028D02*
X033878Y017028D01*
X033928Y017078D02*
X034717Y017078D01*
X034767Y017127D02*
X033977Y017127D01*
X034027Y017177D02*
X034799Y017177D01*
X034799Y017227D02*
X034077Y017227D01*
X034126Y017276D02*
X034826Y017276D01*
X034875Y017326D02*
X034176Y017326D01*
X034226Y017376D02*
X037624Y017376D01*
X037624Y017425D02*
X034275Y017425D01*
X034325Y017475D02*
X034762Y017475D01*
X034795Y017442D02*
X034932Y017442D01*
X035028Y017538D01*
X035028Y017628D01*
X035577Y018177D01*
X035577Y018640D01*
X035518Y018699D01*
X035423Y018793D01*
X030344Y018793D01*
X030284Y018734D01*
X029552Y018002D01*
X029552Y017950D01*
X029489Y017887D01*
X029489Y017750D01*
X029585Y017654D01*
X029721Y017654D01*
X029818Y017750D01*
X029818Y017887D01*
X029770Y017934D01*
X030427Y018592D01*
X034816Y018592D01*
X034774Y018550D01*
X034774Y018413D01*
X034870Y018317D01*
X035007Y018317D01*
X035103Y018413D01*
X035103Y018550D01*
X035061Y018592D01*
X035340Y018592D01*
X035375Y018556D01*
X035375Y018261D01*
X034885Y017771D01*
X034795Y017771D01*
X034699Y017675D01*
X034699Y017538D01*
X034795Y017442D01*
X034713Y017525D02*
X034375Y017525D01*
X034424Y017574D02*
X034699Y017574D01*
X034699Y017624D02*
X034474Y017624D01*
X034524Y017674D02*
X034699Y017674D01*
X034748Y017723D02*
X034573Y017723D01*
X034623Y017773D02*
X034887Y017773D01*
X034937Y017823D02*
X034673Y017823D01*
X034722Y017873D02*
X034987Y017873D01*
X035036Y017922D02*
X034862Y017922D01*
X034912Y017972D02*
X035086Y017972D01*
X035136Y018022D02*
X034953Y018022D01*
X034953Y018071D02*
X035186Y018071D01*
X035235Y018121D02*
X034953Y018121D01*
X034932Y018171D02*
X035285Y018171D01*
X035335Y018220D02*
X034883Y018220D01*
X034868Y018320D02*
X030660Y018320D01*
X030704Y018276D02*
X030607Y018373D01*
X030471Y018373D01*
X030374Y018276D01*
X030374Y018140D01*
X030471Y018044D01*
X030607Y018044D01*
X030704Y018140D01*
X030704Y018276D01*
X030704Y018270D02*
X035375Y018270D01*
X035375Y018320D02*
X035010Y018320D01*
X035059Y018369D02*
X035375Y018369D01*
X035375Y018419D02*
X035103Y018419D01*
X035103Y018469D02*
X035375Y018469D01*
X035375Y018518D02*
X035103Y018518D01*
X035085Y018568D02*
X035363Y018568D01*
X035476Y018598D02*
X035476Y018219D01*
X034864Y017606D01*
X035028Y017624D02*
X037624Y017624D01*
X037624Y017574D02*
X035028Y017574D01*
X035015Y017525D02*
X037624Y017525D01*
X037624Y017475D02*
X034965Y017475D01*
X035052Y017326D02*
X037624Y017326D01*
X037624Y017276D02*
X035102Y017276D01*
X035128Y017227D02*
X037624Y017227D01*
X037624Y017177D02*
X035128Y017177D01*
X035128Y017127D02*
X037624Y017127D01*
X037624Y017078D02*
X035092Y017078D01*
X035043Y017028D02*
X037624Y017028D01*
X037624Y016978D02*
X034903Y016978D01*
X034853Y016929D02*
X037624Y016929D01*
X037624Y016879D02*
X034804Y016879D01*
X034790Y016829D02*
X037624Y016829D01*
X037624Y016780D02*
X034790Y016780D01*
X034790Y016730D02*
X037624Y016730D01*
X037624Y016680D02*
X034790Y016680D01*
X034790Y016630D02*
X037624Y016630D01*
X037624Y016581D02*
X034790Y016581D01*
X034790Y016531D02*
X037624Y016531D01*
X037624Y016481D02*
X035121Y016481D01*
X035171Y016432D02*
X037624Y016432D01*
X037624Y016382D02*
X035203Y016382D01*
X035203Y016332D02*
X037624Y016332D01*
X037624Y016283D02*
X035230Y016283D01*
X035280Y016233D02*
X037624Y016233D01*
X037624Y016183D02*
X035315Y016183D01*
X035315Y016134D02*
X037624Y016134D01*
X037624Y016084D02*
X035315Y016084D01*
X035315Y016034D02*
X037624Y016034D01*
X037624Y015985D02*
X035315Y015985D01*
X035315Y015935D02*
X037624Y015935D01*
X037624Y015885D02*
X035315Y015885D01*
X035315Y015836D02*
X037624Y015836D01*
X037624Y015786D02*
X035315Y015786D01*
X035315Y015736D02*
X037624Y015736D01*
X037624Y015687D02*
X035315Y015687D01*
X035315Y015637D02*
X037624Y015637D01*
X037624Y015587D02*
X035315Y015587D01*
X035315Y015537D02*
X037624Y015537D01*
X037624Y015488D02*
X035315Y015488D01*
X035315Y015438D02*
X037624Y015438D01*
X037624Y015388D02*
X035315Y015388D01*
X035315Y015339D02*
X037624Y015339D01*
X037624Y015289D02*
X035315Y015289D01*
X035315Y015239D02*
X037624Y015239D01*
X037624Y015190D02*
X035315Y015190D01*
X035315Y015140D02*
X037624Y015140D01*
X037624Y015090D02*
X035315Y015090D01*
X035315Y015041D02*
X037624Y015041D01*
X037624Y014991D02*
X035315Y014991D01*
X035315Y014941D02*
X037624Y014941D01*
X037624Y014892D02*
X035315Y014892D01*
X035315Y014842D02*
X037624Y014842D01*
X037624Y014792D02*
X035315Y014792D01*
X035315Y014743D02*
X037624Y014743D01*
X037624Y014693D02*
X035315Y014693D01*
X035315Y014643D02*
X037624Y014643D01*
X037624Y014594D02*
X035315Y014594D01*
X035315Y014544D02*
X037624Y014544D01*
X037624Y014494D02*
X035315Y014494D01*
X035315Y014445D02*
X037624Y014445D01*
X037624Y014395D02*
X035315Y014395D01*
X035315Y014345D02*
X035644Y014345D01*
X035670Y014371D02*
X035574Y014275D01*
X035574Y014138D01*
X035670Y014042D01*
X035807Y014042D01*
X035903Y014138D01*
X035903Y014275D01*
X035807Y014371D01*
X035670Y014371D01*
X035595Y014295D02*
X035315Y014295D01*
X035315Y014246D02*
X035574Y014246D01*
X035574Y014196D02*
X035315Y014196D01*
X035315Y014146D02*
X035574Y014146D01*
X035616Y014097D02*
X035315Y014097D01*
X035315Y014047D02*
X035665Y014047D01*
X035812Y014047D02*
X037624Y014047D01*
X037624Y013997D02*
X035315Y013997D01*
X035315Y013948D02*
X037624Y013948D01*
X037624Y013898D02*
X035315Y013898D01*
X035315Y013848D02*
X037624Y013848D01*
X037624Y013799D02*
X035315Y013799D01*
X035315Y013749D02*
X037624Y013749D01*
X037624Y013699D02*
X035315Y013699D01*
X035315Y013650D02*
X037624Y013650D01*
X037624Y013600D02*
X035315Y013600D01*
X035315Y013550D02*
X037624Y013550D01*
X037624Y013501D02*
X035315Y013501D01*
X035315Y013451D02*
X037624Y013451D01*
X037624Y013401D02*
X035315Y013401D01*
X035315Y013352D02*
X037624Y013352D01*
X037624Y013302D02*
X035315Y013302D01*
X035315Y013252D02*
X037624Y013252D01*
X037624Y013202D02*
X035315Y013202D01*
X035315Y013153D02*
X037624Y013153D01*
X037624Y013103D02*
X035315Y013103D01*
X035315Y013053D02*
X037624Y013053D01*
X037624Y013004D02*
X035315Y013004D01*
X035315Y012954D02*
X037624Y012954D01*
X037624Y012904D02*
X035315Y012904D01*
X035315Y012855D02*
X037624Y012855D01*
X037624Y012805D02*
X035315Y012805D01*
X035315Y012755D02*
X037624Y012755D01*
X037624Y012706D02*
X035315Y012706D01*
X035315Y012656D02*
X037624Y012656D01*
X037624Y012606D02*
X035315Y012606D01*
X035315Y012557D02*
X037624Y012557D01*
X037624Y012507D02*
X035315Y012507D01*
X035315Y012457D02*
X037624Y012457D01*
X037624Y012408D02*
X035315Y012408D01*
X035315Y012358D02*
X037624Y012358D01*
X037624Y012308D02*
X035315Y012308D01*
X035315Y012259D02*
X037624Y012259D01*
X037624Y012209D02*
X035315Y012209D01*
X035315Y012159D02*
X037624Y012159D01*
X037624Y012109D02*
X035315Y012109D01*
X035315Y012060D02*
X037624Y012060D01*
X037624Y012010D02*
X035315Y012010D01*
X035315Y011960D02*
X037624Y011960D01*
X037624Y011911D02*
X035315Y011911D01*
X035315Y011861D02*
X037624Y011861D01*
X037624Y011811D02*
X035315Y011811D01*
X035315Y011762D02*
X037624Y011762D01*
X037624Y011712D02*
X035315Y011712D01*
X035315Y011662D02*
X037624Y011662D01*
X037624Y011613D02*
X035315Y011613D01*
X035315Y011563D02*
X037624Y011563D01*
X037624Y011513D02*
X035315Y011513D01*
X035315Y011464D02*
X037624Y011464D01*
X037624Y011414D02*
X035315Y011414D01*
X035315Y011364D02*
X037624Y011364D01*
X037624Y011315D02*
X035315Y011315D01*
X035315Y011265D02*
X037624Y011265D01*
X037624Y011215D02*
X035315Y011215D01*
X035315Y011166D02*
X037624Y011166D01*
X037624Y011116D02*
X035315Y011116D01*
X035315Y011066D02*
X037624Y011066D01*
X037624Y011016D02*
X035315Y011016D01*
X035315Y010967D02*
X037624Y010967D01*
X037624Y010917D02*
X035315Y010917D01*
X035315Y010867D02*
X037624Y010867D01*
X037624Y010818D02*
X035315Y010818D01*
X035315Y010768D02*
X037624Y010768D01*
X037624Y010718D02*
X035315Y010718D01*
X035315Y010669D02*
X037624Y010669D01*
X037624Y010619D02*
X035315Y010619D01*
X035315Y010569D02*
X035619Y010569D01*
X035645Y010596D02*
X035549Y010500D01*
X035549Y010363D01*
X035645Y010267D01*
X035782Y010267D01*
X035878Y010363D01*
X035878Y010500D01*
X035782Y010596D01*
X035645Y010596D01*
X035569Y010520D02*
X035358Y010520D01*
X035378Y010470D02*
X035549Y010470D01*
X035549Y010420D02*
X035378Y010420D01*
X035378Y010371D02*
X035549Y010371D01*
X035591Y010321D02*
X035336Y010321D01*
X035286Y010271D02*
X035641Y010271D01*
X035786Y010271D02*
X037624Y010271D01*
X037624Y010222D02*
X035090Y010222D01*
X035090Y010271D02*
X035141Y010271D01*
X035091Y010321D02*
X035090Y010321D01*
X035090Y010172D02*
X037624Y010172D01*
X037624Y010122D02*
X035072Y010122D01*
X035022Y010073D02*
X037624Y010073D01*
X037624Y010023D02*
X034973Y010023D01*
X034923Y009973D02*
X037624Y009973D01*
X037624Y009924D02*
X034873Y009924D01*
X034840Y009874D02*
X037624Y009874D01*
X037624Y009824D02*
X034840Y009824D01*
X034840Y009774D02*
X037624Y009774D01*
X037624Y009725D02*
X034840Y009725D01*
X034840Y009675D02*
X037624Y009675D01*
X037624Y009625D02*
X034840Y009625D01*
X034840Y009576D02*
X037624Y009576D01*
X037624Y009526D02*
X034840Y009526D01*
X034840Y009476D02*
X037624Y009476D01*
X037624Y009427D02*
X034840Y009427D01*
X034840Y009377D02*
X037624Y009377D01*
X037624Y009327D02*
X034840Y009327D01*
X034840Y009278D02*
X037624Y009278D01*
X037624Y009228D02*
X034840Y009228D01*
X034840Y009178D02*
X037624Y009178D01*
X037624Y009129D02*
X034840Y009129D01*
X034840Y009079D02*
X037624Y009079D01*
X037624Y009029D02*
X034840Y009029D01*
X034840Y008980D02*
X037624Y008980D01*
X037624Y008930D02*
X034840Y008930D01*
X034840Y008880D02*
X037624Y008880D01*
X037624Y008831D02*
X034840Y008831D01*
X034872Y008781D02*
X035642Y008781D01*
X035657Y008796D02*
X035561Y008700D01*
X035561Y008563D01*
X035657Y008467D01*
X035794Y008467D01*
X035890Y008563D01*
X035890Y008700D01*
X035794Y008796D01*
X035657Y008796D01*
X035592Y008731D02*
X034903Y008731D01*
X034903Y008681D02*
X035561Y008681D01*
X035561Y008632D02*
X034903Y008632D01*
X034872Y008582D02*
X035561Y008582D01*
X035592Y008532D02*
X034822Y008532D01*
X034655Y008532D02*
X034322Y008532D01*
X034372Y008582D02*
X034605Y008582D01*
X034574Y008632D02*
X034378Y008632D01*
X034378Y008681D02*
X034574Y008681D01*
X034574Y008731D02*
X034372Y008731D01*
X034322Y008781D02*
X034605Y008781D01*
X034638Y008831D02*
X034315Y008831D01*
X034315Y008880D02*
X034638Y008880D01*
X034638Y008930D02*
X034315Y008930D01*
X034315Y008980D02*
X034638Y008980D01*
X034638Y009029D02*
X034315Y009029D01*
X034315Y009079D02*
X034638Y009079D01*
X034638Y009129D02*
X034315Y009129D01*
X034315Y009178D02*
X034638Y009178D01*
X034638Y009228D02*
X034315Y009228D01*
X034315Y009278D02*
X034638Y009278D01*
X034638Y009327D02*
X034315Y009327D01*
X034315Y009377D02*
X034638Y009377D01*
X034638Y009427D02*
X034315Y009427D01*
X034315Y009476D02*
X034638Y009476D01*
X034638Y009526D02*
X034315Y009526D01*
X034315Y009576D02*
X034638Y009576D01*
X034638Y009625D02*
X034315Y009625D01*
X034350Y009675D02*
X034638Y009675D01*
X034638Y009725D02*
X034400Y009725D01*
X034449Y009774D02*
X034638Y009774D01*
X034638Y009824D02*
X034499Y009824D01*
X034549Y009874D02*
X034638Y009874D01*
X034638Y009924D02*
X034598Y009924D01*
X034739Y009931D02*
X034989Y010181D01*
X034989Y016006D01*
X034689Y016306D01*
X034689Y016906D01*
X034964Y017181D01*
X035074Y017674D02*
X037624Y017674D01*
X037624Y017723D02*
X035123Y017723D01*
X035173Y017773D02*
X037624Y017773D01*
X037624Y017823D02*
X035223Y017823D01*
X035272Y017873D02*
X037624Y017873D01*
X037624Y017922D02*
X035322Y017922D01*
X035372Y017972D02*
X037624Y017972D01*
X037624Y018022D02*
X035421Y018022D01*
X035471Y018071D02*
X037624Y018071D01*
X037624Y018121D02*
X035521Y018121D01*
X035570Y018171D02*
X037624Y018171D01*
X037624Y018220D02*
X035577Y018220D01*
X035577Y018270D02*
X037624Y018270D01*
X037624Y018320D02*
X035577Y018320D01*
X035577Y018369D02*
X037624Y018369D01*
X037624Y018419D02*
X035577Y018419D01*
X035577Y018469D02*
X037624Y018469D01*
X037624Y018518D02*
X035577Y018518D01*
X035577Y018568D02*
X037624Y018568D01*
X037624Y018618D02*
X035577Y018618D01*
X035549Y018667D02*
X037624Y018667D01*
X037624Y018717D02*
X035500Y018717D01*
X035450Y018767D02*
X037624Y018767D01*
X037624Y018816D02*
X021416Y018816D01*
X021416Y018767D02*
X030317Y018767D01*
X030267Y018717D02*
X021416Y018717D01*
X021416Y018667D02*
X030218Y018667D01*
X030168Y018618D02*
X021416Y018618D01*
X021416Y018568D02*
X030118Y018568D01*
X030068Y018518D02*
X021416Y018518D01*
X021416Y018469D02*
X030019Y018469D01*
X029969Y018419D02*
X021416Y018419D01*
X021416Y018369D02*
X029919Y018369D01*
X029870Y018320D02*
X021416Y018320D01*
X021416Y018270D02*
X029820Y018270D01*
X029770Y018220D02*
X021416Y018220D01*
X021416Y018171D02*
X029721Y018171D01*
X029671Y018121D02*
X021416Y018121D01*
X021416Y018071D02*
X029621Y018071D01*
X029572Y018022D02*
X021416Y018022D01*
X021416Y017972D02*
X029552Y017972D01*
X029524Y017922D02*
X021416Y017922D01*
X021416Y017873D02*
X029489Y017873D01*
X029489Y017823D02*
X021416Y017823D01*
X021416Y017773D02*
X029489Y017773D01*
X029515Y017723D02*
X021416Y017723D01*
X021416Y017674D02*
X029565Y017674D01*
X029585Y017570D02*
X029489Y017473D01*
X029489Y017337D01*
X029585Y017241D01*
X029721Y017241D01*
X029818Y017337D01*
X029818Y017473D01*
X029721Y017570D01*
X029585Y017570D01*
X029540Y017525D02*
X021270Y017525D01*
X021320Y017574D02*
X030617Y017574D01*
X030611Y017568D02*
X030611Y017431D01*
X030707Y017335D01*
X030843Y017335D01*
X030940Y017431D01*
X030940Y017568D01*
X030843Y017664D01*
X030707Y017664D01*
X030611Y017568D01*
X030611Y017525D02*
X029766Y017525D01*
X029816Y017475D02*
X030611Y017475D01*
X030617Y017425D02*
X029818Y017425D01*
X029818Y017376D02*
X030666Y017376D01*
X030884Y017376D02*
X033940Y017376D01*
X033990Y017425D02*
X030934Y017425D01*
X030940Y017475D02*
X034039Y017475D01*
X034089Y017525D02*
X030940Y017525D01*
X030933Y017574D02*
X034139Y017574D01*
X034188Y017624D02*
X030883Y017624D01*
X030667Y017624D02*
X021369Y017624D01*
X021315Y017712D02*
X021315Y018787D01*
X019770Y020331D01*
X019739Y020331D01*
X019330Y020331D01*
X013939Y020331D01*
X012714Y019106D01*
X010514Y019106D01*
X008414Y017006D01*
X006739Y017006D01*
X006439Y017306D01*
X006552Y017425D02*
X006762Y017425D01*
X006712Y017475D02*
X004324Y017475D01*
X004275Y017525D02*
X006674Y017525D01*
X006674Y017574D02*
X004238Y017574D01*
X004217Y017624D02*
X006674Y017624D01*
X006698Y017674D02*
X004196Y017674D01*
X004174Y017723D02*
X006748Y017723D01*
X006929Y017723D02*
X008188Y017723D01*
X008138Y017674D02*
X006979Y017674D01*
X007003Y017624D02*
X008088Y017624D01*
X008039Y017574D02*
X007003Y017574D01*
X007003Y017525D02*
X007989Y017525D01*
X007939Y017475D02*
X006965Y017475D01*
X006915Y017425D02*
X007890Y017425D01*
X007840Y017376D02*
X006927Y017376D01*
X006814Y017256D02*
X007864Y017256D01*
X009014Y018406D01*
X009178Y018419D02*
X009683Y018419D01*
X009634Y018369D02*
X009178Y018369D01*
X009160Y018320D02*
X009584Y018320D01*
X009534Y018270D02*
X009110Y018270D01*
X008970Y018220D02*
X009485Y018220D01*
X009435Y018171D02*
X008920Y018171D01*
X008871Y018121D02*
X009385Y018121D01*
X009336Y018071D02*
X008821Y018071D01*
X008771Y018022D02*
X009286Y018022D01*
X009236Y017972D02*
X008722Y017972D01*
X008672Y017922D02*
X009186Y017922D01*
X009137Y017873D02*
X008622Y017873D01*
X008573Y017823D02*
X009087Y017823D01*
X009037Y017773D02*
X008523Y017773D01*
X008473Y017723D02*
X008988Y017723D01*
X008938Y017674D02*
X008424Y017674D01*
X008374Y017624D02*
X008888Y017624D01*
X008839Y017574D02*
X008324Y017574D01*
X008275Y017525D02*
X008789Y017525D01*
X008739Y017475D02*
X008225Y017475D01*
X008175Y017425D02*
X008690Y017425D01*
X008640Y017376D02*
X008126Y017376D01*
X008076Y017326D02*
X008590Y017326D01*
X008541Y017276D02*
X008026Y017276D01*
X007977Y017227D02*
X008491Y017227D01*
X008441Y017177D02*
X007927Y017177D01*
X008392Y017127D02*
X006917Y017127D01*
X006649Y017276D02*
X006612Y017276D01*
X006603Y017326D02*
X006650Y017326D01*
X006602Y017376D02*
X006700Y017376D01*
X006325Y017425D02*
X004374Y017425D01*
X004424Y017376D02*
X006275Y017376D01*
X006274Y017326D02*
X004474Y017326D01*
X004523Y017276D02*
X006171Y017276D01*
X006274Y017146D02*
X006564Y016856D01*
X008412Y016856D01*
X010555Y019000D01*
X012752Y019000D01*
X013980Y020228D01*
X019720Y020228D01*
X021214Y018734D01*
X021214Y017781D01*
X020289Y016856D01*
X020289Y016581D01*
X020414Y016456D01*
X020614Y016456D01*
X020722Y016332D02*
X032897Y016332D01*
X032847Y016283D02*
X020720Y016283D01*
X020770Y016233D02*
X032797Y016233D01*
X032748Y016183D02*
X020778Y016183D01*
X020778Y016134D02*
X032698Y016134D01*
X032648Y016084D02*
X020774Y016084D01*
X020724Y016034D02*
X032599Y016034D01*
X032549Y015985D02*
X020743Y015985D01*
X020614Y015881D02*
X032589Y015881D01*
X033614Y016906D01*
X034764Y015756D01*
X034764Y010231D01*
X034214Y009681D01*
X034214Y008656D01*
X034105Y008532D02*
X028141Y008532D01*
X028141Y008483D02*
X035641Y008483D01*
X035809Y008483D02*
X036630Y008483D01*
X036645Y008467D02*
X036549Y008563D01*
X036549Y008700D01*
X036645Y008796D01*
X036782Y008796D01*
X036878Y008700D01*
X036878Y008563D01*
X036782Y008467D01*
X036645Y008467D01*
X036580Y008532D02*
X035859Y008532D01*
X035890Y008582D02*
X036549Y008582D01*
X036549Y008632D02*
X035890Y008632D01*
X035890Y008681D02*
X036549Y008681D01*
X036580Y008731D02*
X035859Y008731D01*
X035809Y008781D02*
X036630Y008781D01*
X036797Y008781D02*
X037624Y008781D01*
X037624Y008731D02*
X036847Y008731D01*
X036878Y008681D02*
X037624Y008681D01*
X037624Y008632D02*
X036878Y008632D01*
X036878Y008582D02*
X037624Y008582D01*
X037624Y008532D02*
X036847Y008532D01*
X036798Y008483D02*
X037624Y008483D01*
X037624Y008433D02*
X028095Y008433D01*
X028045Y008383D02*
X037624Y008383D01*
X037624Y008334D02*
X002754Y008334D01*
X002754Y008383D02*
X027907Y008383D01*
X027811Y008532D02*
X027167Y008532D01*
X027216Y008582D02*
X027811Y008582D01*
X027828Y008632D02*
X027231Y008632D01*
X027231Y008681D02*
X027878Y008681D01*
X028074Y008681D02*
X034049Y008681D01*
X034049Y008632D02*
X028124Y008632D01*
X028141Y008582D02*
X034055Y008582D01*
X034055Y008731D02*
X027231Y008731D01*
X027183Y008781D02*
X034105Y008781D01*
X034739Y008681D02*
X034739Y009931D01*
X034865Y010222D02*
X034886Y010222D01*
X034888Y010271D02*
X034865Y010271D01*
X034865Y010321D02*
X034888Y010321D01*
X034888Y010371D02*
X034865Y010371D01*
X034865Y010420D02*
X034888Y010420D01*
X034888Y010470D02*
X034865Y010470D01*
X034865Y010520D02*
X034888Y010520D01*
X034888Y010569D02*
X034865Y010569D01*
X034865Y010619D02*
X034888Y010619D01*
X034888Y010669D02*
X034865Y010669D01*
X034865Y010718D02*
X034888Y010718D01*
X034888Y010768D02*
X034865Y010768D01*
X034865Y010818D02*
X034888Y010818D01*
X034888Y010867D02*
X034865Y010867D01*
X034865Y010917D02*
X034888Y010917D01*
X034888Y010967D02*
X034865Y010967D01*
X034865Y011016D02*
X034888Y011016D01*
X034888Y011066D02*
X034865Y011066D01*
X034865Y011116D02*
X034888Y011116D01*
X034888Y011166D02*
X034865Y011166D01*
X034865Y011215D02*
X034888Y011215D01*
X034888Y011265D02*
X034865Y011265D01*
X034865Y011315D02*
X034888Y011315D01*
X034888Y011364D02*
X034865Y011364D01*
X034865Y011414D02*
X034888Y011414D01*
X034888Y011464D02*
X034865Y011464D01*
X034865Y011513D02*
X034888Y011513D01*
X034888Y011563D02*
X034865Y011563D01*
X034865Y011613D02*
X034888Y011613D01*
X034888Y011662D02*
X034865Y011662D01*
X034865Y011712D02*
X034888Y011712D01*
X034888Y011762D02*
X034865Y011762D01*
X034865Y011811D02*
X034888Y011811D01*
X034888Y011861D02*
X034865Y011861D01*
X034865Y011911D02*
X034888Y011911D01*
X034888Y011960D02*
X034865Y011960D01*
X034865Y012010D02*
X034888Y012010D01*
X034888Y012060D02*
X034865Y012060D01*
X034865Y012109D02*
X034888Y012109D01*
X034888Y012159D02*
X034865Y012159D01*
X034865Y012209D02*
X034888Y012209D01*
X034888Y012259D02*
X034865Y012259D01*
X034865Y012308D02*
X034888Y012308D01*
X034888Y012358D02*
X034865Y012358D01*
X034865Y012408D02*
X034888Y012408D01*
X034888Y012457D02*
X034865Y012457D01*
X034865Y012507D02*
X034888Y012507D01*
X034888Y012557D02*
X034865Y012557D01*
X034865Y012606D02*
X034888Y012606D01*
X034888Y012656D02*
X034865Y012656D01*
X034865Y012706D02*
X034888Y012706D01*
X034888Y012755D02*
X034865Y012755D01*
X034865Y012805D02*
X034888Y012805D01*
X034888Y012855D02*
X034865Y012855D01*
X034865Y012904D02*
X034888Y012904D01*
X034888Y012954D02*
X034865Y012954D01*
X034865Y013004D02*
X034888Y013004D01*
X034888Y013053D02*
X034865Y013053D01*
X034865Y013103D02*
X034888Y013103D01*
X034888Y013153D02*
X034865Y013153D01*
X034865Y013202D02*
X034888Y013202D01*
X034888Y013252D02*
X034865Y013252D01*
X034865Y013302D02*
X034888Y013302D01*
X034888Y013352D02*
X034865Y013352D01*
X034865Y013401D02*
X034888Y013401D01*
X034888Y013451D02*
X034865Y013451D01*
X034865Y013501D02*
X034888Y013501D01*
X034888Y013550D02*
X034865Y013550D01*
X034865Y013600D02*
X034888Y013600D01*
X034888Y013650D02*
X034865Y013650D01*
X034865Y013699D02*
X034888Y013699D01*
X034888Y013749D02*
X034865Y013749D01*
X034865Y013799D02*
X034888Y013799D01*
X034888Y013848D02*
X034865Y013848D01*
X034865Y013898D02*
X034888Y013898D01*
X034888Y013948D02*
X034865Y013948D01*
X034865Y013997D02*
X034888Y013997D01*
X034888Y014047D02*
X034865Y014047D01*
X034865Y014097D02*
X034888Y014097D01*
X034888Y014146D02*
X034865Y014146D01*
X034865Y014196D02*
X034888Y014196D01*
X034888Y014246D02*
X034865Y014246D01*
X034865Y014295D02*
X034888Y014295D01*
X034888Y014345D02*
X034865Y014345D01*
X034865Y014395D02*
X034888Y014395D01*
X034888Y014445D02*
X034865Y014445D01*
X034865Y014494D02*
X034888Y014494D01*
X034888Y014544D02*
X034865Y014544D01*
X034865Y014594D02*
X034888Y014594D01*
X034888Y014643D02*
X034865Y014643D01*
X034865Y014693D02*
X034888Y014693D01*
X034888Y014743D02*
X034865Y014743D01*
X034865Y014792D02*
X034888Y014792D01*
X034888Y014842D02*
X034865Y014842D01*
X034865Y014892D02*
X034888Y014892D01*
X034888Y014941D02*
X034865Y014941D01*
X035833Y014345D02*
X037624Y014345D01*
X037624Y014295D02*
X035882Y014295D01*
X035903Y014246D02*
X037624Y014246D01*
X037624Y014196D02*
X035903Y014196D01*
X035903Y014146D02*
X037624Y014146D01*
X037624Y014097D02*
X035862Y014097D01*
X034641Y015736D02*
X020701Y015736D01*
X020526Y015736D02*
X012436Y015736D01*
X012455Y015756D02*
X017355Y015756D01*
X017415Y015815D01*
X018292Y016692D01*
X018382Y016692D01*
X018474Y016784D01*
X018474Y016738D01*
X018570Y016642D01*
X018707Y016642D01*
X018803Y016738D01*
X018803Y016784D01*
X018895Y016692D01*
X019032Y016692D01*
X019124Y016784D01*
X019124Y016738D01*
X019220Y016642D01*
X019357Y016642D01*
X019453Y016738D01*
X019453Y016875D01*
X019357Y016971D01*
X019220Y016971D01*
X019128Y016879D01*
X019128Y016879D01*
X019128Y016925D01*
X019032Y017021D01*
X018895Y017021D01*
X018799Y016925D01*
X018799Y016879D01*
X018799Y016879D01*
X018707Y016971D01*
X018570Y016971D01*
X018478Y016879D01*
X018478Y016879D01*
X018478Y016925D01*
X018382Y017021D01*
X018245Y017021D01*
X018149Y016925D01*
X018149Y016835D01*
X017272Y015957D01*
X012372Y015957D01*
X012083Y015668D01*
X012051Y015700D01*
X011913Y015757D01*
X011764Y015757D01*
X011626Y015700D01*
X011520Y015594D01*
X011463Y015456D01*
X011463Y015307D01*
X011520Y015169D01*
X011626Y015063D01*
X011764Y015006D01*
X011913Y015006D01*
X012051Y015063D01*
X012157Y015169D01*
X012214Y015307D01*
X012214Y015456D01*
X012197Y015497D01*
X012455Y015756D01*
X012386Y015687D02*
X013211Y015687D01*
X013220Y015696D02*
X013124Y015600D01*
X013124Y015463D01*
X013220Y015367D01*
X013357Y015367D01*
X013453Y015463D01*
X013453Y015600D01*
X013357Y015696D01*
X013220Y015696D01*
X013161Y015637D02*
X012337Y015637D01*
X012287Y015587D02*
X013124Y015587D01*
X013124Y015537D02*
X012237Y015537D01*
X012201Y015488D02*
X013124Y015488D01*
X013149Y015438D02*
X012214Y015438D01*
X012214Y015388D02*
X013199Y015388D01*
X013378Y015388D02*
X015528Y015388D01*
X015478Y015339D02*
X012214Y015339D01*
X012207Y015289D02*
X015428Y015289D01*
X015379Y015239D02*
X012186Y015239D01*
X012165Y015190D02*
X015329Y015190D01*
X015279Y015140D02*
X012128Y015140D01*
X012078Y015090D02*
X015230Y015090D01*
X015180Y015041D02*
X011997Y015041D01*
X011680Y015041D02*
X005691Y015041D01*
X005740Y015090D02*
X011599Y015090D01*
X011549Y015140D02*
X005790Y015140D01*
X005840Y015190D02*
X011512Y015190D01*
X011491Y015239D02*
X005889Y015239D01*
X005915Y015289D02*
X011471Y015289D01*
X011463Y015339D02*
X005915Y015339D01*
X005915Y015388D02*
X011463Y015388D01*
X011463Y015438D02*
X005915Y015438D01*
X005915Y015488D02*
X011476Y015488D01*
X011497Y015537D02*
X005915Y015537D01*
X005915Y015587D02*
X011517Y015587D01*
X011563Y015637D02*
X005915Y015637D01*
X005915Y015687D02*
X011613Y015687D01*
X011714Y015736D02*
X005915Y015736D01*
X005915Y015786D02*
X012200Y015786D01*
X012150Y015736D02*
X011963Y015736D01*
X012064Y015687D02*
X012101Y015687D01*
X012250Y015836D02*
X005915Y015836D01*
X005915Y015885D02*
X012300Y015885D01*
X012349Y015935D02*
X005915Y015935D01*
X005915Y015985D02*
X017299Y015985D01*
X017349Y016034D02*
X011981Y016034D01*
X011913Y016006D02*
X012051Y016063D01*
X012157Y016169D01*
X012214Y016307D01*
X012214Y016456D01*
X012157Y016594D01*
X012051Y016700D01*
X011913Y016757D01*
X011764Y016757D01*
X011626Y016700D01*
X011520Y016594D01*
X011463Y016456D01*
X011463Y016307D01*
X011520Y016169D01*
X011626Y016063D01*
X011764Y016006D01*
X011913Y016006D01*
X012072Y016084D02*
X017398Y016084D01*
X017448Y016134D02*
X012122Y016134D01*
X012163Y016183D02*
X017498Y016183D01*
X017547Y016233D02*
X012183Y016233D01*
X012204Y016283D02*
X017597Y016283D01*
X017647Y016332D02*
X012214Y016332D01*
X012214Y016382D02*
X013280Y016382D01*
X013320Y016342D02*
X013457Y016342D01*
X013553Y016438D01*
X013553Y016575D01*
X013457Y016671D01*
X013320Y016671D01*
X013224Y016575D01*
X013224Y016438D01*
X013320Y016342D01*
X013231Y016432D02*
X012214Y016432D01*
X012204Y016481D02*
X013224Y016481D01*
X013224Y016531D02*
X012183Y016531D01*
X012162Y016581D02*
X013230Y016581D01*
X013280Y016630D02*
X012120Y016630D01*
X012071Y016680D02*
X017994Y016680D01*
X017945Y016630D02*
X013497Y016630D01*
X013547Y016581D02*
X017895Y016581D01*
X017845Y016531D02*
X013553Y016531D01*
X013553Y016481D02*
X017796Y016481D01*
X017746Y016432D02*
X013547Y016432D01*
X013497Y016382D02*
X017696Y016382D01*
X017833Y016233D02*
X020457Y016233D01*
X020449Y016183D02*
X017783Y016183D01*
X017734Y016134D02*
X020449Y016134D01*
X020453Y016084D02*
X017684Y016084D01*
X017634Y016034D02*
X020503Y016034D01*
X020484Y015985D02*
X017585Y015985D01*
X017535Y015935D02*
X020449Y015935D01*
X020449Y015885D02*
X017485Y015885D01*
X017435Y015836D02*
X020449Y015836D01*
X020476Y015786D02*
X017386Y015786D01*
X017314Y015856D02*
X012414Y015856D01*
X011939Y015381D01*
X011839Y015381D01*
X011696Y016034D02*
X005915Y016034D01*
X005915Y016084D02*
X011605Y016084D01*
X011556Y016134D02*
X005915Y016134D01*
X005915Y016183D02*
X011514Y016183D01*
X011494Y016233D02*
X005915Y016233D01*
X005915Y016283D02*
X011473Y016283D01*
X011463Y016332D02*
X005915Y016332D01*
X005915Y016382D02*
X011463Y016382D01*
X011463Y016432D02*
X005915Y016432D01*
X005915Y016481D02*
X011474Y016481D01*
X011494Y016531D02*
X005915Y016531D01*
X005915Y016581D02*
X011515Y016581D01*
X011557Y016630D02*
X005915Y016630D01*
X005915Y016680D02*
X006057Y016680D01*
X006007Y016730D02*
X005915Y016730D01*
X005915Y016780D02*
X005974Y016780D01*
X005974Y016829D02*
X005924Y016829D01*
X005974Y016879D02*
X005974Y016879D01*
X005814Y016861D02*
X006049Y017096D01*
X005884Y017078D02*
X004722Y017078D01*
X004672Y017127D02*
X005884Y017127D01*
X005896Y017177D02*
X004623Y017177D01*
X004573Y017227D02*
X005946Y017227D01*
X005837Y017028D02*
X004772Y017028D01*
X004821Y016978D02*
X005788Y016978D01*
X005738Y016929D02*
X004871Y016929D01*
X004921Y016879D02*
X005713Y016879D01*
X005713Y016829D02*
X004970Y016829D01*
X005020Y016780D02*
X005713Y016780D01*
X005713Y016730D02*
X005070Y016730D01*
X005119Y016680D02*
X005713Y016680D01*
X005713Y016630D02*
X005169Y016630D01*
X005219Y016581D02*
X005713Y016581D01*
X005713Y016531D02*
X005268Y016531D01*
X005318Y016481D02*
X005713Y016481D01*
X005713Y016432D02*
X005363Y016432D01*
X005380Y016382D02*
X005713Y016382D01*
X005713Y016332D02*
X005398Y016332D01*
X005415Y016283D02*
X005713Y016283D01*
X005713Y016233D02*
X005433Y016233D01*
X005444Y016183D02*
X005713Y016183D01*
X005713Y016134D02*
X005439Y016134D01*
X005433Y016084D02*
X005713Y016084D01*
X005713Y016034D02*
X005427Y016034D01*
X005422Y015985D02*
X005713Y015985D01*
X005713Y015935D02*
X005414Y015935D01*
X005383Y015885D02*
X005713Y015885D01*
X005713Y015836D02*
X005352Y015836D01*
X005320Y015786D02*
X005713Y015786D01*
X005713Y015736D02*
X005289Y015736D01*
X005225Y015687D02*
X005713Y015687D01*
X005713Y015637D02*
X005146Y015637D01*
X005814Y015306D02*
X005814Y016861D01*
X006225Y016978D02*
X006299Y016978D01*
X006274Y016929D02*
X006349Y016929D01*
X006303Y016879D02*
X006398Y016879D01*
X006448Y016829D02*
X006303Y016829D01*
X006303Y016780D02*
X006498Y016780D01*
X006270Y016730D02*
X011699Y016730D01*
X011606Y016680D02*
X006220Y016680D01*
X008237Y017773D02*
X004153Y017773D01*
X004176Y017823D02*
X008287Y017823D01*
X008337Y017873D02*
X004226Y017873D01*
X004275Y017922D02*
X008386Y017922D01*
X008436Y017972D02*
X004325Y017972D01*
X004375Y018022D02*
X008486Y018022D01*
X008536Y018071D02*
X004425Y018071D01*
X004474Y018121D02*
X008585Y018121D01*
X008635Y018171D02*
X007658Y018171D01*
X007737Y018220D02*
X008685Y018220D01*
X008734Y018270D02*
X007816Y018270D01*
X007867Y018320D02*
X008784Y018320D01*
X008834Y018369D02*
X007899Y018369D01*
X007930Y018419D02*
X008849Y018419D01*
X008849Y018469D02*
X007961Y018469D01*
X007987Y018518D02*
X008893Y018518D01*
X008942Y018568D02*
X007993Y018568D01*
X007999Y018618D02*
X009882Y018618D01*
X009932Y018667D02*
X008004Y018667D01*
X008010Y018717D02*
X009981Y018717D01*
X010031Y018767D02*
X008015Y018767D01*
X007997Y018816D02*
X010081Y018816D01*
X010130Y018866D02*
X007980Y018866D01*
X007962Y018916D02*
X010180Y018916D01*
X010230Y018966D02*
X007945Y018966D01*
X007923Y019015D02*
X010279Y019015D01*
X010329Y019065D02*
X007874Y019065D01*
X007824Y019115D02*
X010379Y019115D01*
X010429Y019164D02*
X007774Y019164D01*
X007725Y019214D02*
X012678Y019214D01*
X012728Y019264D02*
X007675Y019264D01*
X007625Y019313D02*
X012778Y019313D01*
X012827Y019363D02*
X007576Y019363D01*
X007526Y019413D02*
X012877Y019413D01*
X012927Y019462D02*
X007476Y019462D01*
X007427Y019512D02*
X012976Y019512D01*
X013026Y019562D02*
X007377Y019562D01*
X007327Y019611D02*
X013076Y019611D01*
X013125Y019661D02*
X007278Y019661D01*
X007228Y019711D02*
X013175Y019711D01*
X013225Y019760D02*
X007178Y019760D01*
X007128Y019810D02*
X013274Y019810D01*
X013324Y019860D02*
X007079Y019860D01*
X007029Y019909D02*
X013374Y019909D01*
X013423Y019959D02*
X006979Y019959D01*
X006930Y020009D02*
X013473Y020009D01*
X013523Y020058D02*
X006880Y020058D01*
X006830Y020108D02*
X013572Y020108D01*
X013622Y020158D02*
X006781Y020158D01*
X006731Y020208D02*
X013672Y020208D01*
X013722Y020257D02*
X006681Y020257D01*
X006660Y020307D02*
X013771Y020307D01*
X013821Y020357D02*
X006710Y020357D01*
X006760Y020406D02*
X013871Y020406D01*
X014003Y020108D02*
X019697Y020108D01*
X019747Y020058D02*
X013953Y020058D01*
X013904Y020009D02*
X019796Y020009D01*
X019846Y019959D02*
X013854Y019959D01*
X013804Y019909D02*
X019896Y019909D01*
X019945Y019860D02*
X013755Y019860D01*
X013705Y019810D02*
X019995Y019810D01*
X020045Y019760D02*
X013655Y019760D01*
X013606Y019711D02*
X020094Y019711D01*
X020144Y019661D02*
X013556Y019661D01*
X013506Y019611D02*
X020194Y019611D01*
X020244Y019562D02*
X013456Y019562D01*
X013407Y019512D02*
X020293Y019512D01*
X020343Y019462D02*
X013357Y019462D01*
X013307Y019413D02*
X020393Y019413D01*
X020442Y019363D02*
X013258Y019363D01*
X013208Y019313D02*
X020492Y019313D01*
X020542Y019264D02*
X013158Y019264D01*
X013109Y019214D02*
X020591Y019214D01*
X020641Y019164D02*
X013059Y019164D01*
X013009Y019115D02*
X020691Y019115D01*
X020740Y019065D02*
X012960Y019065D01*
X012910Y019015D02*
X020790Y019015D01*
X020840Y018966D02*
X012860Y018966D01*
X012811Y018916D02*
X020889Y018916D01*
X020939Y018866D02*
X010564Y018866D01*
X010514Y018816D02*
X020989Y018816D01*
X021038Y018767D02*
X012020Y018767D01*
X012002Y018776D02*
X011938Y018797D01*
X011872Y018807D01*
X011864Y018807D01*
X011864Y018407D01*
X011813Y018407D01*
X011813Y018356D01*
X011413Y018356D01*
X011413Y018348D01*
X011423Y018282D01*
X011444Y018218D01*
X011475Y018158D01*
X011514Y018104D01*
X011561Y018057D01*
X011616Y018017D01*
X011675Y017987D01*
X011739Y017966D01*
X011805Y017956D01*
X011813Y017956D01*
X011813Y018356D01*
X011864Y018356D01*
X011864Y017956D01*
X011872Y017956D01*
X011938Y017966D01*
X012002Y017987D01*
X012062Y018017D01*
X012116Y018057D01*
X012163Y018104D01*
X012203Y018158D01*
X012233Y018218D01*
X012254Y018282D01*
X012264Y018348D01*
X012264Y018356D01*
X011864Y018356D01*
X011864Y018407D01*
X012264Y018407D01*
X012264Y018415D01*
X012254Y018481D01*
X012233Y018545D01*
X012203Y018605D01*
X012163Y018659D01*
X012116Y018706D01*
X012062Y018745D01*
X012002Y018776D01*
X012101Y018717D02*
X021088Y018717D01*
X021113Y018667D02*
X018860Y018667D01*
X018832Y018696D02*
X018928Y018600D01*
X018928Y018463D01*
X018832Y018367D01*
X018695Y018367D01*
X018599Y018463D01*
X018599Y018600D01*
X018695Y018696D01*
X018832Y018696D01*
X018910Y018618D02*
X021113Y018618D01*
X021113Y018568D02*
X018928Y018568D01*
X018928Y018518D02*
X021113Y018518D01*
X021113Y018469D02*
X019859Y018469D01*
X019832Y018496D02*
X019695Y018496D01*
X019599Y018400D01*
X019599Y018263D01*
X019695Y018167D01*
X019832Y018167D01*
X019928Y018263D01*
X019928Y018400D01*
X019832Y018496D01*
X019909Y018419D02*
X021113Y018419D01*
X021113Y018369D02*
X019928Y018369D01*
X019928Y018320D02*
X021113Y018320D01*
X021113Y018270D02*
X019928Y018270D01*
X019885Y018220D02*
X021113Y018220D01*
X021113Y018171D02*
X019835Y018171D01*
X019692Y018171D02*
X012209Y018171D01*
X012234Y018220D02*
X019642Y018220D01*
X019599Y018270D02*
X012250Y018270D01*
X012260Y018320D02*
X019599Y018320D01*
X019599Y018369D02*
X018834Y018369D01*
X018884Y018419D02*
X019618Y018419D01*
X019668Y018469D02*
X018928Y018469D01*
X018693Y018369D02*
X011864Y018369D01*
X011864Y018320D02*
X011813Y018320D01*
X011813Y018369D02*
X010067Y018369D01*
X010018Y018320D02*
X011417Y018320D01*
X011427Y018270D02*
X009968Y018270D01*
X009918Y018220D02*
X011443Y018220D01*
X011468Y018171D02*
X009869Y018171D01*
X009819Y018121D02*
X011502Y018121D01*
X011547Y018071D02*
X009769Y018071D01*
X009719Y018022D02*
X011610Y018022D01*
X011722Y017972D02*
X009670Y017972D01*
X009620Y017922D02*
X021113Y017922D01*
X021113Y017873D02*
X009570Y017873D01*
X009521Y017823D02*
X021112Y017823D01*
X021062Y017773D02*
X009471Y017773D01*
X009421Y017723D02*
X011683Y017723D01*
X011626Y017700D02*
X011520Y017594D01*
X011463Y017456D01*
X011463Y017307D01*
X011520Y017169D01*
X011626Y017063D01*
X011764Y017006D01*
X011913Y017006D01*
X012051Y017063D01*
X012157Y017169D01*
X012214Y017307D01*
X012214Y017456D01*
X012157Y017594D01*
X012051Y017700D01*
X011913Y017757D01*
X011764Y017757D01*
X011626Y017700D01*
X011600Y017674D02*
X009372Y017674D01*
X009322Y017624D02*
X011550Y017624D01*
X011512Y017574D02*
X009272Y017574D01*
X009223Y017525D02*
X011492Y017525D01*
X011471Y017475D02*
X009173Y017475D01*
X009123Y017425D02*
X011463Y017425D01*
X011463Y017376D02*
X009074Y017376D01*
X009024Y017326D02*
X011463Y017326D01*
X011476Y017276D02*
X008974Y017276D01*
X008925Y017227D02*
X011496Y017227D01*
X011517Y017177D02*
X008875Y017177D01*
X008825Y017127D02*
X011562Y017127D01*
X011612Y017078D02*
X008776Y017078D01*
X008726Y017028D02*
X011711Y017028D01*
X011966Y017028D02*
X020317Y017028D01*
X020268Y016978D02*
X019975Y016978D01*
X019957Y016996D02*
X019820Y016996D01*
X019724Y016900D01*
X019724Y016763D01*
X019820Y016667D01*
X019957Y016667D01*
X020053Y016763D01*
X020053Y016900D01*
X019957Y016996D01*
X020024Y016929D02*
X020218Y016929D01*
X020188Y016879D02*
X020053Y016879D01*
X020053Y016829D02*
X020188Y016829D01*
X020188Y016780D02*
X020053Y016780D01*
X020020Y016730D02*
X020188Y016730D01*
X020188Y016680D02*
X019970Y016680D01*
X019807Y016680D02*
X019395Y016680D01*
X019445Y016730D02*
X019757Y016730D01*
X019724Y016780D02*
X019453Y016780D01*
X019453Y016829D02*
X019724Y016829D01*
X019724Y016879D02*
X019449Y016879D01*
X019399Y016929D02*
X019753Y016929D01*
X019803Y016978D02*
X019075Y016978D01*
X019124Y016929D02*
X019178Y016929D01*
X019124Y016780D02*
X019119Y016780D01*
X019132Y016730D02*
X019070Y016730D01*
X019182Y016680D02*
X018745Y016680D01*
X018795Y016730D02*
X018857Y016730D01*
X018808Y016780D02*
X018803Y016780D01*
X018803Y016929D02*
X018749Y016929D01*
X018853Y016978D02*
X018425Y016978D01*
X018474Y016929D02*
X018528Y016929D01*
X018474Y016780D02*
X018469Y016780D01*
X018482Y016730D02*
X018420Y016730D01*
X018532Y016680D02*
X018280Y016680D01*
X018230Y016630D02*
X020188Y016630D01*
X020188Y016581D02*
X018181Y016581D01*
X018131Y016531D02*
X020196Y016531D01*
X020246Y016481D02*
X018081Y016481D01*
X018032Y016432D02*
X020296Y016432D01*
X020313Y016415D02*
X020313Y016415D01*
X020345Y016382D02*
X017982Y016382D01*
X017932Y016332D02*
X020505Y016332D01*
X020507Y016283D02*
X017883Y016283D01*
X018186Y015687D02*
X013366Y015687D01*
X013416Y015637D02*
X018136Y015637D01*
X018264Y015531D02*
X015814Y015531D01*
X015726Y015587D02*
X013453Y015587D01*
X013453Y015537D02*
X015677Y015537D01*
X015627Y015488D02*
X013453Y015488D01*
X013428Y015438D02*
X015577Y015438D01*
X016082Y015231D02*
X018264Y015231D01*
X018428Y015239D02*
X020449Y015239D01*
X020449Y015190D02*
X018428Y015190D01*
X018405Y015140D02*
X020449Y015140D01*
X020497Y015090D02*
X018355Y015090D01*
X018362Y015041D02*
X020540Y015041D01*
X020490Y014991D02*
X018412Y014991D01*
X018428Y014941D02*
X020449Y014941D01*
X020449Y014892D02*
X018428Y014892D01*
X018428Y014842D02*
X020449Y014842D01*
X020470Y014792D02*
X018382Y014792D01*
X018332Y014743D02*
X020517Y014743D01*
X020467Y014693D02*
X020310Y014693D01*
X020307Y014696D02*
X020170Y014696D01*
X020074Y014600D01*
X020074Y014463D01*
X020170Y014367D01*
X020307Y014367D01*
X020403Y014463D01*
X020403Y014600D01*
X020307Y014696D01*
X020360Y014643D02*
X020449Y014643D01*
X020449Y014594D02*
X020403Y014594D01*
X020403Y014544D02*
X020449Y014544D01*
X020493Y014494D02*
X020403Y014494D01*
X020384Y014445D02*
X020543Y014445D01*
X020684Y014445D02*
X022383Y014445D01*
X022333Y014494D02*
X020734Y014494D01*
X020614Y014606D02*
X022364Y014606D01*
X025564Y011406D01*
X025564Y008663D01*
X025678Y008781D02*
X025963Y008781D01*
X025963Y008771D02*
X025899Y008707D01*
X025899Y008681D02*
X025728Y008681D01*
X025728Y008632D02*
X025899Y008632D01*
X025899Y008582D02*
X025716Y008582D01*
X025666Y008532D02*
X025937Y008532D01*
X025987Y008483D02*
X018493Y008483D01*
X018469Y008458D02*
X018565Y008555D01*
X018565Y008691D01*
X018469Y008788D01*
X018332Y008788D01*
X018236Y008691D01*
X018236Y008555D01*
X018332Y008458D01*
X018469Y008458D01*
X018543Y008532D02*
X019256Y008532D01*
X019295Y008493D02*
X019432Y008493D01*
X019528Y008590D01*
X019528Y008726D01*
X019432Y008822D01*
X019295Y008822D01*
X019199Y008726D01*
X019199Y008590D01*
X019295Y008493D01*
X019207Y008582D02*
X018565Y008582D01*
X018565Y008632D02*
X019199Y008632D01*
X019199Y008681D02*
X018565Y008681D01*
X018525Y008731D02*
X019204Y008731D01*
X019254Y008781D02*
X018475Y008781D01*
X018325Y008781D02*
X017503Y008781D01*
X017503Y008780D02*
X017503Y010828D01*
X019390Y012715D01*
X019390Y014375D01*
X019439Y014424D01*
X019488Y014375D01*
X019488Y012798D01*
X017860Y011171D01*
X017801Y011112D01*
X017801Y010557D01*
X017737Y010494D01*
X017737Y010357D01*
X017834Y010261D01*
X017970Y010261D01*
X018066Y010357D01*
X018066Y010494D01*
X018003Y010557D01*
X018003Y011028D01*
X019690Y012715D01*
X019690Y014375D01*
X019753Y014438D01*
X019753Y014575D01*
X019657Y014671D01*
X019520Y014671D01*
X019439Y014589D01*
X019357Y014671D01*
X019220Y014671D01*
X019126Y014577D01*
X019032Y014671D01*
X018895Y014671D01*
X018799Y014575D01*
X018799Y014438D01*
X018888Y014350D01*
X018888Y012898D01*
X016847Y010857D01*
X016788Y010798D01*
X016788Y010715D01*
X016799Y010703D01*
X016799Y008767D01*
X016736Y008703D01*
X016736Y008567D01*
X016832Y008470D01*
X016969Y008470D01*
X017065Y008567D01*
X017065Y008703D01*
X017001Y008767D01*
X017001Y010726D01*
X019090Y012815D01*
X019090Y014400D01*
X019126Y014436D01*
X019188Y014375D01*
X019188Y012798D01*
X017360Y010971D01*
X017301Y010912D01*
X017301Y008780D01*
X017237Y008716D01*
X017237Y008580D01*
X017334Y008483D01*
X017470Y008483D01*
X017566Y008580D01*
X017566Y008716D01*
X017503Y008780D01*
X017503Y008831D02*
X025463Y008831D01*
X025463Y008880D02*
X017503Y008880D01*
X017503Y008930D02*
X025463Y008930D01*
X025463Y008980D02*
X017503Y008980D01*
X017503Y009029D02*
X025463Y009029D01*
X025463Y009079D02*
X017503Y009079D01*
X017503Y009129D02*
X025463Y009129D01*
X025463Y009178D02*
X017503Y009178D01*
X017503Y009228D02*
X025463Y009228D01*
X025463Y009278D02*
X017503Y009278D01*
X017503Y009327D02*
X025463Y009327D01*
X025463Y009377D02*
X017503Y009377D01*
X017503Y009427D02*
X025463Y009427D01*
X025463Y009476D02*
X017503Y009476D01*
X017503Y009526D02*
X025463Y009526D01*
X025463Y009576D02*
X017503Y009576D01*
X017503Y009625D02*
X025463Y009625D01*
X025463Y009675D02*
X017503Y009675D01*
X017503Y009725D02*
X025463Y009725D01*
X025463Y009774D02*
X017503Y009774D01*
X017503Y009824D02*
X025463Y009824D01*
X025463Y009874D02*
X017503Y009874D01*
X017503Y009924D02*
X025463Y009924D01*
X025463Y009973D02*
X017503Y009973D01*
X017503Y010023D02*
X025463Y010023D01*
X025463Y010073D02*
X017503Y010073D01*
X017503Y010122D02*
X025463Y010122D01*
X025463Y010172D02*
X017503Y010172D01*
X017503Y010222D02*
X025463Y010222D01*
X025463Y010271D02*
X017980Y010271D01*
X018030Y010321D02*
X018316Y010321D01*
X018341Y010296D02*
X018244Y010392D01*
X018244Y010528D01*
X018341Y010625D01*
X018477Y010625D01*
X018574Y010528D01*
X018574Y010392D01*
X018477Y010296D01*
X018341Y010296D01*
X018266Y010371D02*
X018066Y010371D01*
X018066Y010420D02*
X018244Y010420D01*
X018244Y010470D02*
X018066Y010470D01*
X018040Y010520D02*
X018244Y010520D01*
X018285Y010569D02*
X018003Y010569D01*
X018003Y010619D02*
X018335Y010619D01*
X018483Y010619D02*
X025463Y010619D01*
X025463Y010569D02*
X018533Y010569D01*
X018574Y010520D02*
X025463Y010520D01*
X025463Y010470D02*
X018574Y010470D01*
X018574Y010420D02*
X025463Y010420D01*
X025463Y010371D02*
X018552Y010371D01*
X018503Y010321D02*
X025463Y010321D01*
X025665Y010321D02*
X025963Y010321D01*
X025963Y010371D02*
X025665Y010371D01*
X025665Y010420D02*
X025963Y010420D01*
X025963Y010470D02*
X025665Y010470D01*
X025665Y010520D02*
X025963Y010520D01*
X025963Y010569D02*
X025665Y010569D01*
X025665Y010619D02*
X025963Y010619D01*
X025963Y010669D02*
X025665Y010669D01*
X025665Y010718D02*
X025963Y010718D01*
X025963Y010768D02*
X025665Y010768D01*
X025665Y010818D02*
X025963Y010818D01*
X025963Y010867D02*
X025665Y010867D01*
X025665Y010917D02*
X025963Y010917D01*
X025963Y010967D02*
X025665Y010967D01*
X025665Y011016D02*
X025963Y011016D01*
X025963Y011066D02*
X025665Y011066D01*
X025665Y011116D02*
X025963Y011116D01*
X025963Y011166D02*
X025665Y011166D01*
X025665Y011215D02*
X025963Y011215D01*
X025963Y011240D02*
X025963Y008771D01*
X025963Y008831D02*
X025665Y008831D01*
X025665Y008794D02*
X025665Y011448D01*
X025605Y011507D01*
X022405Y014707D01*
X020745Y014707D01*
X020709Y014744D01*
X020745Y014781D01*
X022422Y014781D01*
X025963Y011240D01*
X025937Y011265D02*
X025665Y011265D01*
X025665Y011315D02*
X025888Y011315D01*
X025838Y011364D02*
X025665Y011364D01*
X025665Y011414D02*
X025788Y011414D01*
X025739Y011464D02*
X025649Y011464D01*
X025689Y011513D02*
X025600Y011513D01*
X025639Y011563D02*
X025550Y011563D01*
X025590Y011613D02*
X025500Y011613D01*
X025540Y011662D02*
X025451Y011662D01*
X025490Y011712D02*
X025401Y011712D01*
X025441Y011762D02*
X025351Y011762D01*
X025391Y011811D02*
X025301Y011811D01*
X025341Y011861D02*
X025252Y011861D01*
X025292Y011911D02*
X025202Y011911D01*
X025242Y011960D02*
X025152Y011960D01*
X025192Y012010D02*
X025103Y012010D01*
X025142Y012060D02*
X025053Y012060D01*
X025093Y012109D02*
X025003Y012109D01*
X025043Y012159D02*
X024954Y012159D01*
X024993Y012209D02*
X024904Y012209D01*
X024944Y012259D02*
X024854Y012259D01*
X024894Y012308D02*
X024805Y012308D01*
X024844Y012358D02*
X024755Y012358D01*
X024795Y012408D02*
X024705Y012408D01*
X024745Y012457D02*
X024656Y012457D01*
X024695Y012507D02*
X024606Y012507D01*
X024646Y012557D02*
X024556Y012557D01*
X024596Y012606D02*
X024507Y012606D01*
X024546Y012656D02*
X024457Y012656D01*
X024497Y012706D02*
X024407Y012706D01*
X024447Y012755D02*
X024358Y012755D01*
X024397Y012805D02*
X024308Y012805D01*
X024348Y012855D02*
X024258Y012855D01*
X024298Y012904D02*
X024209Y012904D01*
X024248Y012954D02*
X024159Y012954D01*
X024199Y013004D02*
X024109Y013004D01*
X024149Y013053D02*
X024059Y013053D01*
X024099Y013103D02*
X024010Y013103D01*
X024049Y013153D02*
X023960Y013153D01*
X024000Y013202D02*
X023910Y013202D01*
X023950Y013252D02*
X023861Y013252D01*
X023900Y013302D02*
X023811Y013302D01*
X023851Y013352D02*
X023761Y013352D01*
X023801Y013401D02*
X023712Y013401D01*
X023751Y013451D02*
X023662Y013451D01*
X023702Y013501D02*
X023612Y013501D01*
X023652Y013550D02*
X023563Y013550D01*
X023602Y013600D02*
X023513Y013600D01*
X023553Y013650D02*
X023463Y013650D01*
X023503Y013699D02*
X023414Y013699D01*
X023453Y013749D02*
X023364Y013749D01*
X023404Y013799D02*
X023314Y013799D01*
X023354Y013848D02*
X023265Y013848D01*
X023304Y013898D02*
X023215Y013898D01*
X023255Y013948D02*
X023165Y013948D01*
X023205Y013997D02*
X023116Y013997D01*
X023155Y014047D02*
X023066Y014047D01*
X023106Y014097D02*
X023016Y014097D01*
X023056Y014146D02*
X022966Y014146D01*
X023006Y014196D02*
X022917Y014196D01*
X022956Y014246D02*
X022867Y014246D01*
X022907Y014295D02*
X022817Y014295D01*
X022857Y014345D02*
X022768Y014345D01*
X022807Y014395D02*
X022718Y014395D01*
X022758Y014445D02*
X022668Y014445D01*
X022708Y014494D02*
X022619Y014494D01*
X022658Y014544D02*
X022569Y014544D01*
X022609Y014594D02*
X022519Y014594D01*
X022559Y014643D02*
X022470Y014643D01*
X022509Y014693D02*
X022420Y014693D01*
X022460Y014743D02*
X020710Y014743D01*
X020614Y014881D02*
X022464Y014881D01*
X026064Y011281D01*
X026064Y008639D01*
X025963Y008880D02*
X025665Y008880D01*
X025665Y008930D02*
X025963Y008930D01*
X025963Y008980D02*
X025665Y008980D01*
X025665Y009029D02*
X025963Y009029D01*
X025963Y009079D02*
X025665Y009079D01*
X025665Y009129D02*
X025963Y009129D01*
X025963Y009178D02*
X025665Y009178D01*
X025665Y009228D02*
X025963Y009228D01*
X025963Y009278D02*
X025665Y009278D01*
X025665Y009327D02*
X025963Y009327D01*
X025963Y009377D02*
X025665Y009377D01*
X025665Y009427D02*
X025963Y009427D01*
X025963Y009476D02*
X025665Y009476D01*
X025665Y009526D02*
X025963Y009526D01*
X025963Y009576D02*
X025665Y009576D01*
X025665Y009625D02*
X025963Y009625D01*
X025963Y009675D02*
X025665Y009675D01*
X025665Y009725D02*
X025963Y009725D01*
X025963Y009774D02*
X025665Y009774D01*
X025665Y009824D02*
X025963Y009824D01*
X025963Y009874D02*
X025665Y009874D01*
X025665Y009924D02*
X025963Y009924D01*
X025963Y009973D02*
X025665Y009973D01*
X025665Y010023D02*
X025963Y010023D01*
X025963Y010073D02*
X025665Y010073D01*
X025665Y010122D02*
X025963Y010122D01*
X025963Y010172D02*
X025665Y010172D01*
X025665Y010222D02*
X025963Y010222D01*
X025963Y010271D02*
X025665Y010271D01*
X025463Y010669D02*
X018003Y010669D01*
X018003Y010718D02*
X025463Y010718D01*
X025463Y010768D02*
X018003Y010768D01*
X018003Y010818D02*
X025463Y010818D01*
X025463Y010867D02*
X018003Y010867D01*
X018003Y010917D02*
X025463Y010917D01*
X025463Y010967D02*
X018003Y010967D01*
X018003Y011016D02*
X025463Y011016D01*
X025463Y011066D02*
X018041Y011066D01*
X018091Y011116D02*
X025463Y011116D01*
X025463Y011166D02*
X018140Y011166D01*
X018190Y011215D02*
X025463Y011215D01*
X025463Y011265D02*
X018240Y011265D01*
X018289Y011315D02*
X025463Y011315D01*
X025463Y011364D02*
X018339Y011364D01*
X018389Y011414D02*
X025413Y011414D01*
X025364Y011464D02*
X018439Y011464D01*
X018488Y011513D02*
X025314Y011513D01*
X025264Y011563D02*
X018538Y011563D01*
X018588Y011613D02*
X025215Y011613D01*
X025165Y011662D02*
X018637Y011662D01*
X018687Y011712D02*
X025115Y011712D01*
X025066Y011762D02*
X018737Y011762D01*
X018786Y011811D02*
X025016Y011811D01*
X024966Y011861D02*
X018836Y011861D01*
X018886Y011911D02*
X024917Y011911D01*
X024867Y011960D02*
X018935Y011960D01*
X018985Y012010D02*
X024817Y012010D01*
X024767Y012060D02*
X019035Y012060D01*
X019084Y012109D02*
X024718Y012109D01*
X024668Y012159D02*
X019134Y012159D01*
X019184Y012209D02*
X024618Y012209D01*
X024569Y012259D02*
X019233Y012259D01*
X019283Y012308D02*
X024519Y012308D01*
X024469Y012358D02*
X019333Y012358D01*
X019382Y012408D02*
X024420Y012408D01*
X024370Y012457D02*
X019432Y012457D01*
X019482Y012507D02*
X024320Y012507D01*
X024271Y012557D02*
X019532Y012557D01*
X019581Y012606D02*
X024221Y012606D01*
X024171Y012656D02*
X019631Y012656D01*
X019681Y012706D02*
X024122Y012706D01*
X024072Y012755D02*
X019690Y012755D01*
X019690Y012805D02*
X024022Y012805D01*
X023973Y012855D02*
X019690Y012855D01*
X019690Y012904D02*
X023923Y012904D01*
X023873Y012954D02*
X019690Y012954D01*
X019690Y013004D02*
X023824Y013004D01*
X023774Y013053D02*
X019690Y013053D01*
X019690Y013103D02*
X023724Y013103D01*
X023674Y013153D02*
X019690Y013153D01*
X019690Y013202D02*
X023625Y013202D01*
X023575Y013252D02*
X019690Y013252D01*
X019690Y013302D02*
X023525Y013302D01*
X023476Y013352D02*
X019690Y013352D01*
X019690Y013401D02*
X023426Y013401D01*
X023376Y013451D02*
X019690Y013451D01*
X019690Y013501D02*
X023327Y013501D01*
X023277Y013550D02*
X019690Y013550D01*
X019690Y013600D02*
X023227Y013600D01*
X023178Y013650D02*
X020638Y013650D01*
X020603Y013615D02*
X020700Y013711D01*
X020700Y013847D01*
X020603Y013944D01*
X020467Y013944D01*
X020370Y013847D01*
X020370Y013711D01*
X020467Y013615D01*
X020603Y013615D01*
X020688Y013699D02*
X023128Y013699D01*
X023078Y013749D02*
X020700Y013749D01*
X020700Y013799D02*
X023029Y013799D01*
X022979Y013848D02*
X020699Y013848D01*
X020649Y013898D02*
X022929Y013898D01*
X022880Y013948D02*
X019690Y013948D01*
X019690Y013997D02*
X022830Y013997D01*
X022780Y014047D02*
X019690Y014047D01*
X019690Y014097D02*
X022731Y014097D01*
X022681Y014146D02*
X019690Y014146D01*
X019690Y014196D02*
X022631Y014196D01*
X022581Y014246D02*
X019690Y014246D01*
X019690Y014295D02*
X022532Y014295D01*
X022482Y014345D02*
X019690Y014345D01*
X019710Y014395D02*
X020142Y014395D01*
X020093Y014445D02*
X019753Y014445D01*
X019753Y014494D02*
X020074Y014494D01*
X020074Y014544D02*
X019753Y014544D01*
X019734Y014594D02*
X020074Y014594D01*
X020118Y014643D02*
X019685Y014643D01*
X019589Y014506D02*
X019589Y012756D01*
X017902Y011070D01*
X017902Y010425D01*
X017737Y010420D02*
X017503Y010420D01*
X017503Y010371D02*
X017737Y010371D01*
X017773Y010321D02*
X017503Y010321D01*
X017503Y010271D02*
X017823Y010271D01*
X017737Y010470D02*
X017503Y010470D01*
X017503Y010520D02*
X017763Y010520D01*
X017801Y010569D02*
X017503Y010569D01*
X017503Y010619D02*
X017801Y010619D01*
X017801Y010669D02*
X017503Y010669D01*
X017503Y010718D02*
X017801Y010718D01*
X017801Y010768D02*
X017503Y010768D01*
X017503Y010818D02*
X017801Y010818D01*
X017801Y010867D02*
X017542Y010867D01*
X017592Y010917D02*
X017801Y010917D01*
X017801Y010967D02*
X017642Y010967D01*
X017691Y011016D02*
X017801Y011016D01*
X017801Y011066D02*
X017741Y011066D01*
X017791Y011116D02*
X017805Y011116D01*
X017840Y011166D02*
X017855Y011166D01*
X017890Y011215D02*
X017904Y011215D01*
X017940Y011265D02*
X017954Y011265D01*
X017989Y011315D02*
X018004Y011315D01*
X018039Y011364D02*
X018054Y011364D01*
X018089Y011414D02*
X018103Y011414D01*
X018139Y011464D02*
X018153Y011464D01*
X018188Y011513D02*
X018203Y011513D01*
X018238Y011563D02*
X018252Y011563D01*
X018288Y011613D02*
X018302Y011613D01*
X018337Y011662D02*
X018352Y011662D01*
X018387Y011712D02*
X018401Y011712D01*
X018437Y011762D02*
X018451Y011762D01*
X018486Y011811D02*
X018501Y011811D01*
X018536Y011861D02*
X018550Y011861D01*
X018586Y011911D02*
X018600Y011911D01*
X018635Y011960D02*
X018650Y011960D01*
X018685Y012010D02*
X018699Y012010D01*
X018735Y012060D02*
X018749Y012060D01*
X018784Y012109D02*
X018799Y012109D01*
X018834Y012159D02*
X018848Y012159D01*
X018884Y012209D02*
X018898Y012209D01*
X018933Y012259D02*
X018948Y012259D01*
X018983Y012308D02*
X018997Y012308D01*
X019033Y012358D02*
X019047Y012358D01*
X019082Y012408D02*
X019097Y012408D01*
X019132Y012457D02*
X019147Y012457D01*
X019182Y012507D02*
X019196Y012507D01*
X019232Y012557D02*
X019246Y012557D01*
X019281Y012606D02*
X019296Y012606D01*
X019331Y012656D02*
X019345Y012656D01*
X019381Y012706D02*
X019395Y012706D01*
X019390Y012755D02*
X019445Y012755D01*
X019488Y012805D02*
X019390Y012805D01*
X019390Y012855D02*
X019488Y012855D01*
X019488Y012904D02*
X019390Y012904D01*
X019390Y012954D02*
X019488Y012954D01*
X019488Y013004D02*
X019390Y013004D01*
X019390Y013053D02*
X019488Y013053D01*
X019488Y013103D02*
X019390Y013103D01*
X019390Y013153D02*
X019488Y013153D01*
X019488Y013202D02*
X019390Y013202D01*
X019390Y013252D02*
X019488Y013252D01*
X019488Y013302D02*
X019390Y013302D01*
X019390Y013352D02*
X019488Y013352D01*
X019488Y013401D02*
X019390Y013401D01*
X019390Y013451D02*
X019488Y013451D01*
X019488Y013501D02*
X019390Y013501D01*
X019390Y013550D02*
X019488Y013550D01*
X019488Y013600D02*
X019390Y013600D01*
X019390Y013650D02*
X019488Y013650D01*
X019488Y013699D02*
X019390Y013699D01*
X019390Y013749D02*
X019488Y013749D01*
X019488Y013799D02*
X019390Y013799D01*
X019390Y013848D02*
X019488Y013848D01*
X019488Y013898D02*
X019390Y013898D01*
X019390Y013948D02*
X019488Y013948D01*
X019488Y013997D02*
X019390Y013997D01*
X019390Y014047D02*
X019488Y014047D01*
X019488Y014097D02*
X019390Y014097D01*
X019390Y014146D02*
X019488Y014146D01*
X019488Y014196D02*
X019390Y014196D01*
X019390Y014246D02*
X019488Y014246D01*
X019488Y014295D02*
X019390Y014295D01*
X019390Y014345D02*
X019488Y014345D01*
X019467Y014395D02*
X019410Y014395D01*
X019289Y014506D02*
X019289Y012756D01*
X017402Y010870D01*
X017402Y008648D01*
X017519Y008532D02*
X018258Y008532D01*
X018236Y008582D02*
X017566Y008582D01*
X017566Y008632D02*
X018236Y008632D01*
X018236Y008681D02*
X017566Y008681D01*
X017551Y008731D02*
X018276Y008731D01*
X018308Y008483D02*
X016981Y008483D01*
X017031Y008532D02*
X017285Y008532D01*
X017237Y008582D02*
X017065Y008582D01*
X017065Y008632D02*
X017237Y008632D01*
X017237Y008681D02*
X017065Y008681D01*
X017037Y008731D02*
X017252Y008731D01*
X017301Y008781D02*
X017001Y008781D01*
X017001Y008831D02*
X017301Y008831D01*
X017301Y008880D02*
X017001Y008880D01*
X017001Y008930D02*
X017301Y008930D01*
X017301Y008980D02*
X017001Y008980D01*
X017001Y009029D02*
X017301Y009029D01*
X017301Y009079D02*
X017001Y009079D01*
X017001Y009129D02*
X017301Y009129D01*
X017301Y009178D02*
X017001Y009178D01*
X017001Y009228D02*
X017301Y009228D01*
X017301Y009278D02*
X017001Y009278D01*
X017001Y009327D02*
X017301Y009327D01*
X017301Y009377D02*
X017001Y009377D01*
X017001Y009427D02*
X017301Y009427D01*
X017301Y009476D02*
X017001Y009476D01*
X017001Y009526D02*
X017301Y009526D01*
X017301Y009576D02*
X017001Y009576D01*
X017001Y009625D02*
X017301Y009625D01*
X017301Y009675D02*
X017001Y009675D01*
X017001Y009725D02*
X017301Y009725D01*
X017301Y009774D02*
X017001Y009774D01*
X017001Y009824D02*
X017301Y009824D01*
X017301Y009874D02*
X017001Y009874D01*
X017001Y009924D02*
X017301Y009924D01*
X017301Y009973D02*
X017001Y009973D01*
X017001Y010023D02*
X017301Y010023D01*
X017301Y010073D02*
X017001Y010073D01*
X017001Y010122D02*
X017301Y010122D01*
X017301Y010172D02*
X017001Y010172D01*
X017001Y010222D02*
X017301Y010222D01*
X017301Y010271D02*
X017001Y010271D01*
X017001Y010321D02*
X017301Y010321D01*
X017301Y010371D02*
X017001Y010371D01*
X017001Y010420D02*
X017301Y010420D01*
X017301Y010470D02*
X017001Y010470D01*
X017001Y010520D02*
X017301Y010520D01*
X017301Y010569D02*
X017001Y010569D01*
X017001Y010619D02*
X017301Y010619D01*
X017301Y010669D02*
X017001Y010669D01*
X017001Y010718D02*
X017301Y010718D01*
X017301Y010768D02*
X017043Y010768D01*
X017093Y010818D02*
X017301Y010818D01*
X017301Y010867D02*
X017142Y010867D01*
X017192Y010917D02*
X017306Y010917D01*
X017356Y010967D02*
X017242Y010967D01*
X017291Y011016D02*
X017406Y011016D01*
X017455Y011066D02*
X017341Y011066D01*
X017391Y011116D02*
X017505Y011116D01*
X017555Y011166D02*
X017440Y011166D01*
X017490Y011215D02*
X017604Y011215D01*
X017654Y011265D02*
X017540Y011265D01*
X017589Y011315D02*
X017704Y011315D01*
X017754Y011364D02*
X017639Y011364D01*
X017689Y011414D02*
X017803Y011414D01*
X017853Y011464D02*
X017739Y011464D01*
X017788Y011513D02*
X017903Y011513D01*
X017952Y011563D02*
X017838Y011563D01*
X017888Y011613D02*
X018002Y011613D01*
X018052Y011662D02*
X017937Y011662D01*
X017987Y011712D02*
X018101Y011712D01*
X018151Y011762D02*
X018037Y011762D01*
X018086Y011811D02*
X018201Y011811D01*
X018250Y011861D02*
X018136Y011861D01*
X018186Y011911D02*
X018300Y011911D01*
X018350Y011960D02*
X018235Y011960D01*
X018285Y012010D02*
X018399Y012010D01*
X018449Y012060D02*
X018335Y012060D01*
X018384Y012109D02*
X018499Y012109D01*
X018548Y012159D02*
X018434Y012159D01*
X018484Y012209D02*
X018598Y012209D01*
X018648Y012259D02*
X018533Y012259D01*
X018583Y012308D02*
X018697Y012308D01*
X018747Y012358D02*
X018633Y012358D01*
X018682Y012408D02*
X018797Y012408D01*
X018847Y012457D02*
X018732Y012457D01*
X018782Y012507D02*
X018896Y012507D01*
X018946Y012557D02*
X018832Y012557D01*
X018881Y012606D02*
X018996Y012606D01*
X019045Y012656D02*
X018931Y012656D01*
X018981Y012706D02*
X019095Y012706D01*
X019145Y012755D02*
X019030Y012755D01*
X019080Y012805D02*
X019188Y012805D01*
X019188Y012855D02*
X019090Y012855D01*
X019090Y012904D02*
X019188Y012904D01*
X019188Y012954D02*
X019090Y012954D01*
X019090Y013004D02*
X019188Y013004D01*
X019188Y013053D02*
X019090Y013053D01*
X019090Y013103D02*
X019188Y013103D01*
X019188Y013153D02*
X019090Y013153D01*
X019090Y013202D02*
X019188Y013202D01*
X019188Y013252D02*
X019090Y013252D01*
X019090Y013302D02*
X019188Y013302D01*
X019188Y013352D02*
X019090Y013352D01*
X019090Y013401D02*
X019188Y013401D01*
X019188Y013451D02*
X019090Y013451D01*
X019090Y013501D02*
X019188Y013501D01*
X019188Y013550D02*
X019090Y013550D01*
X019090Y013600D02*
X019188Y013600D01*
X019188Y013650D02*
X019090Y013650D01*
X019090Y013699D02*
X019188Y013699D01*
X019188Y013749D02*
X019090Y013749D01*
X019090Y013799D02*
X019188Y013799D01*
X019188Y013848D02*
X019090Y013848D01*
X019090Y013898D02*
X019188Y013898D01*
X019188Y013948D02*
X019090Y013948D01*
X019090Y013997D02*
X019188Y013997D01*
X019188Y014047D02*
X019090Y014047D01*
X019090Y014097D02*
X019188Y014097D01*
X019188Y014146D02*
X019090Y014146D01*
X019090Y014196D02*
X019188Y014196D01*
X019188Y014246D02*
X019090Y014246D01*
X019090Y014295D02*
X019188Y014295D01*
X019188Y014345D02*
X019090Y014345D01*
X019090Y014395D02*
X019167Y014395D01*
X018989Y014481D02*
X018989Y012856D01*
X016889Y010756D01*
X016900Y010745D01*
X016900Y008635D01*
X016736Y008632D02*
X010903Y008632D01*
X010903Y008588D02*
X010807Y008492D01*
X010670Y008492D01*
X010574Y008588D01*
X010574Y008725D01*
X010670Y008821D01*
X010807Y008821D01*
X010903Y008725D01*
X010903Y008588D01*
X010897Y008582D02*
X016736Y008582D01*
X016770Y008532D02*
X010847Y008532D01*
X010903Y008681D02*
X016736Y008681D01*
X016764Y008731D02*
X010897Y008731D01*
X010847Y008781D02*
X016799Y008781D01*
X016799Y008831D02*
X008840Y008831D01*
X008840Y008781D02*
X009639Y008781D01*
X009670Y008813D02*
X009574Y008716D01*
X009574Y008580D01*
X009670Y008483D01*
X009807Y008483D01*
X009903Y008580D01*
X009903Y008716D01*
X009807Y008813D01*
X009670Y008813D01*
X009589Y008731D02*
X008887Y008731D01*
X008903Y008681D02*
X009574Y008681D01*
X009574Y008632D02*
X008903Y008632D01*
X008903Y008582D02*
X009574Y008582D01*
X009621Y008532D02*
X008857Y008532D01*
X008807Y008483D02*
X016820Y008483D01*
X016799Y008880D02*
X008855Y008880D01*
X008739Y008906D02*
X008828Y008996D01*
X009846Y008996D01*
X016082Y015231D01*
X016084Y015090D02*
X018172Y015090D01*
X018165Y015041D02*
X016034Y015041D01*
X015984Y014991D02*
X018115Y014991D01*
X018099Y014941D02*
X015935Y014941D01*
X015885Y014892D02*
X018099Y014892D01*
X018099Y014842D02*
X015835Y014842D01*
X015785Y014792D02*
X018145Y014792D01*
X018195Y014743D02*
X015736Y014743D01*
X015686Y014693D02*
X020167Y014693D01*
X020335Y014395D02*
X022432Y014395D01*
X022745Y014743D02*
X022860Y014743D01*
X022810Y014792D02*
X022696Y014792D01*
X022646Y014842D02*
X022760Y014842D01*
X022711Y014892D02*
X022596Y014892D01*
X022547Y014941D02*
X022661Y014941D01*
X022611Y014991D02*
X020737Y014991D01*
X020687Y015041D02*
X022562Y015041D01*
X022512Y015090D02*
X020730Y015090D01*
X020614Y015206D02*
X022539Y015206D01*
X026564Y011181D01*
X026564Y010433D01*
X026684Y010321D02*
X026938Y010321D01*
X026902Y010371D02*
X026728Y010371D01*
X026728Y010420D02*
X026902Y010420D01*
X026902Y010470D02*
X026728Y010470D01*
X026710Y010520D02*
X026929Y010520D01*
X026987Y010271D02*
X026635Y010271D01*
X026493Y010271D02*
X026165Y010271D01*
X026165Y010321D02*
X026443Y010321D01*
X026399Y010371D02*
X026165Y010371D01*
X026165Y010420D02*
X026399Y010420D01*
X026399Y010470D02*
X026165Y010470D01*
X026165Y010520D02*
X026417Y010520D01*
X026463Y010569D02*
X026165Y010569D01*
X026165Y010619D02*
X026463Y010619D01*
X026463Y010669D02*
X026165Y010669D01*
X026165Y010718D02*
X026463Y010718D01*
X026463Y010768D02*
X026165Y010768D01*
X026165Y010818D02*
X026463Y010818D01*
X026463Y010867D02*
X026165Y010867D01*
X026165Y010917D02*
X026463Y010917D01*
X026463Y010967D02*
X026165Y010967D01*
X026165Y011016D02*
X026463Y011016D01*
X026463Y011066D02*
X026165Y011066D01*
X026165Y011116D02*
X026463Y011116D01*
X026437Y011166D02*
X026165Y011166D01*
X026165Y011215D02*
X026387Y011215D01*
X026337Y011265D02*
X026165Y011265D01*
X026165Y011315D02*
X026288Y011315D01*
X026238Y011364D02*
X026124Y011364D01*
X026074Y011414D02*
X026188Y011414D01*
X026139Y011464D02*
X026024Y011464D01*
X025975Y011513D02*
X026089Y011513D01*
X026039Y011563D02*
X025925Y011563D01*
X025875Y011613D02*
X025990Y011613D01*
X025940Y011662D02*
X025826Y011662D01*
X025776Y011712D02*
X025890Y011712D01*
X025841Y011762D02*
X025726Y011762D01*
X025676Y011811D02*
X025791Y011811D01*
X025741Y011861D02*
X025627Y011861D01*
X025577Y011911D02*
X025692Y011911D01*
X025642Y011960D02*
X025527Y011960D01*
X025478Y012010D02*
X025592Y012010D01*
X025542Y012060D02*
X025428Y012060D01*
X025378Y012109D02*
X025493Y012109D01*
X025443Y012159D02*
X025329Y012159D01*
X025279Y012209D02*
X025393Y012209D01*
X025344Y012259D02*
X025229Y012259D01*
X025180Y012308D02*
X025294Y012308D01*
X025244Y012358D02*
X025130Y012358D01*
X025080Y012408D02*
X025195Y012408D01*
X025145Y012457D02*
X025031Y012457D01*
X024981Y012507D02*
X025095Y012507D01*
X025046Y012557D02*
X024931Y012557D01*
X024882Y012606D02*
X024996Y012606D01*
X024946Y012656D02*
X024832Y012656D01*
X024782Y012706D02*
X024897Y012706D01*
X024847Y012755D02*
X024733Y012755D01*
X024683Y012805D02*
X024797Y012805D01*
X024748Y012855D02*
X024633Y012855D01*
X024584Y012904D02*
X024698Y012904D01*
X024648Y012954D02*
X024534Y012954D01*
X024484Y013004D02*
X024599Y013004D01*
X024549Y013053D02*
X024434Y013053D01*
X024385Y013103D02*
X024499Y013103D01*
X024449Y013153D02*
X024335Y013153D01*
X024285Y013202D02*
X024400Y013202D01*
X024350Y013252D02*
X024236Y013252D01*
X024186Y013302D02*
X024300Y013302D01*
X024251Y013352D02*
X024136Y013352D01*
X024087Y013401D02*
X024201Y013401D01*
X024151Y013451D02*
X024037Y013451D01*
X023987Y013501D02*
X024102Y013501D01*
X024052Y013550D02*
X023938Y013550D01*
X023888Y013600D02*
X024002Y013600D01*
X023953Y013650D02*
X023838Y013650D01*
X023789Y013699D02*
X023903Y013699D01*
X023853Y013749D02*
X023739Y013749D01*
X023689Y013799D02*
X023804Y013799D01*
X023754Y013848D02*
X023640Y013848D01*
X023590Y013898D02*
X023704Y013898D01*
X023655Y013948D02*
X023540Y013948D01*
X023491Y013997D02*
X023605Y013997D01*
X023555Y014047D02*
X023441Y014047D01*
X023391Y014097D02*
X023506Y014097D01*
X023456Y014146D02*
X023341Y014146D01*
X023292Y014196D02*
X023406Y014196D01*
X023356Y014246D02*
X023242Y014246D01*
X023192Y014295D02*
X023307Y014295D01*
X023257Y014345D02*
X023143Y014345D01*
X023093Y014395D02*
X023207Y014395D01*
X023158Y014445D02*
X023043Y014445D01*
X022994Y014494D02*
X023108Y014494D01*
X023058Y014544D02*
X022944Y014544D01*
X022894Y014594D02*
X023009Y014594D01*
X022959Y014643D02*
X022845Y014643D01*
X022795Y014693D02*
X022909Y014693D01*
X020531Y015356D02*
X020449Y015438D01*
X020499Y015388D02*
X018353Y015388D01*
X018389Y015339D02*
X020513Y015339D01*
X020463Y015289D02*
X018428Y015289D01*
X018407Y014596D02*
X018270Y014596D01*
X018174Y014500D01*
X018174Y014363D01*
X018270Y014267D01*
X018407Y014267D01*
X018503Y014363D01*
X018503Y014500D01*
X018407Y014596D01*
X018409Y014594D02*
X018818Y014594D01*
X018799Y014544D02*
X018459Y014544D01*
X018503Y014494D02*
X018799Y014494D01*
X018799Y014445D02*
X018503Y014445D01*
X018503Y014395D02*
X018842Y014395D01*
X018888Y014345D02*
X018485Y014345D01*
X018435Y014295D02*
X018888Y014295D01*
X018888Y014246D02*
X015239Y014246D01*
X015289Y014295D02*
X018242Y014295D01*
X018192Y014345D02*
X015338Y014345D01*
X015388Y014395D02*
X018174Y014395D01*
X018174Y014445D02*
X015438Y014445D01*
X015487Y014494D02*
X018174Y014494D01*
X018218Y014544D02*
X015537Y014544D01*
X015587Y014594D02*
X018268Y014594D01*
X018868Y014643D02*
X015636Y014643D01*
X015130Y014991D02*
X005641Y014991D01*
X005591Y014941D02*
X015081Y014941D01*
X015031Y014892D02*
X005542Y014892D01*
X005492Y014842D02*
X014981Y014842D01*
X014932Y014792D02*
X005442Y014792D01*
X005403Y014743D02*
X014882Y014743D01*
X015189Y014196D02*
X018888Y014196D01*
X018888Y014146D02*
X015140Y014146D01*
X015090Y014097D02*
X018888Y014097D01*
X018888Y014047D02*
X015040Y014047D01*
X014991Y013997D02*
X018888Y013997D01*
X018888Y013948D02*
X014941Y013948D01*
X014891Y013898D02*
X018888Y013898D01*
X018888Y013848D02*
X014842Y013848D01*
X014792Y013799D02*
X018888Y013799D01*
X018888Y013749D02*
X014742Y013749D01*
X014692Y013699D02*
X018888Y013699D01*
X018888Y013650D02*
X014643Y013650D01*
X014593Y013600D02*
X018888Y013600D01*
X018888Y013550D02*
X014543Y013550D01*
X014494Y013501D02*
X018888Y013501D01*
X018888Y013451D02*
X018152Y013451D01*
X018132Y013471D02*
X018228Y013375D01*
X018228Y013238D01*
X018132Y013142D01*
X017995Y013142D01*
X017899Y013238D01*
X017899Y013375D01*
X017995Y013471D01*
X018132Y013471D01*
X018202Y013401D02*
X018888Y013401D01*
X018888Y013352D02*
X018228Y013352D01*
X018228Y013302D02*
X018888Y013302D01*
X018888Y013252D02*
X018228Y013252D01*
X018192Y013202D02*
X018888Y013202D01*
X018888Y013153D02*
X018143Y013153D01*
X017985Y013153D02*
X014146Y013153D01*
X014196Y013202D02*
X017935Y013202D01*
X017899Y013252D02*
X014245Y013252D01*
X014295Y013302D02*
X017899Y013302D01*
X017899Y013352D02*
X014345Y013352D01*
X014394Y013401D02*
X017925Y013401D01*
X017975Y013451D02*
X014444Y013451D01*
X014096Y013103D02*
X018888Y013103D01*
X018888Y013053D02*
X014047Y013053D01*
X013997Y013004D02*
X018888Y013004D01*
X018888Y012954D02*
X013947Y012954D01*
X013898Y012904D02*
X018888Y012904D01*
X018844Y012855D02*
X013848Y012855D01*
X013798Y012805D02*
X018794Y012805D01*
X018745Y012755D02*
X013749Y012755D01*
X013699Y012706D02*
X018695Y012706D01*
X018645Y012656D02*
X013649Y012656D01*
X013599Y012606D02*
X018596Y012606D01*
X018546Y012557D02*
X013550Y012557D01*
X013500Y012507D02*
X018496Y012507D01*
X018447Y012457D02*
X013450Y012457D01*
X013401Y012408D02*
X018397Y012408D01*
X018347Y012358D02*
X013351Y012358D01*
X013301Y012308D02*
X018297Y012308D01*
X018248Y012259D02*
X013252Y012259D01*
X013202Y012209D02*
X018198Y012209D01*
X018148Y012159D02*
X013152Y012159D01*
X013103Y012109D02*
X018099Y012109D01*
X018049Y012060D02*
X013053Y012060D01*
X013003Y012010D02*
X017999Y012010D01*
X017950Y011960D02*
X012954Y011960D01*
X012904Y011911D02*
X017900Y011911D01*
X017850Y011861D02*
X012854Y011861D01*
X012805Y011811D02*
X017801Y011811D01*
X017751Y011762D02*
X012755Y011762D01*
X012705Y011712D02*
X017701Y011712D01*
X017652Y011662D02*
X012656Y011662D01*
X012606Y011613D02*
X017602Y011613D01*
X017552Y011563D02*
X012556Y011563D01*
X012507Y011513D02*
X017503Y011513D01*
X017453Y011464D02*
X012457Y011464D01*
X012407Y011414D02*
X017403Y011414D01*
X017354Y011364D02*
X012357Y011364D01*
X012308Y011315D02*
X017304Y011315D01*
X017254Y011265D02*
X012258Y011265D01*
X012208Y011215D02*
X017204Y011215D01*
X017155Y011166D02*
X012159Y011166D01*
X012109Y011116D02*
X017105Y011116D01*
X017055Y011066D02*
X012059Y011066D01*
X012010Y011016D02*
X017006Y011016D01*
X016956Y010967D02*
X011960Y010967D01*
X011910Y010917D02*
X016906Y010917D01*
X016857Y010867D02*
X011861Y010867D01*
X011811Y010818D02*
X016807Y010818D01*
X016788Y010768D02*
X011761Y010768D01*
X011712Y010718D02*
X016788Y010718D01*
X016799Y010669D02*
X011662Y010669D01*
X011612Y010619D02*
X016799Y010619D01*
X016799Y010569D02*
X011563Y010569D01*
X011513Y010520D02*
X016799Y010520D01*
X016799Y010470D02*
X011463Y010470D01*
X011414Y010420D02*
X016799Y010420D01*
X016799Y010371D02*
X011364Y010371D01*
X011314Y010321D02*
X016799Y010321D01*
X016799Y010271D02*
X011264Y010271D01*
X011215Y010222D02*
X016799Y010222D01*
X016799Y010172D02*
X011165Y010172D01*
X011115Y010122D02*
X016799Y010122D01*
X016799Y010073D02*
X011066Y010073D01*
X011016Y010023D02*
X016799Y010023D01*
X016799Y009973D02*
X010966Y009973D01*
X010917Y009924D02*
X016799Y009924D01*
X016799Y009874D02*
X010867Y009874D01*
X010817Y009824D02*
X016799Y009824D01*
X016799Y009774D02*
X010768Y009774D01*
X010718Y009725D02*
X016799Y009725D01*
X016799Y009675D02*
X010668Y009675D01*
X010619Y009625D02*
X016799Y009625D01*
X016799Y009576D02*
X010569Y009576D01*
X010519Y009526D02*
X016799Y009526D01*
X016799Y009476D02*
X010470Y009476D01*
X010420Y009427D02*
X016799Y009427D01*
X016799Y009377D02*
X010370Y009377D01*
X010321Y009327D02*
X016799Y009327D01*
X016799Y009278D02*
X010271Y009278D01*
X010221Y009228D02*
X016799Y009228D01*
X016799Y009178D02*
X010171Y009178D01*
X010122Y009129D02*
X016799Y009129D01*
X016799Y009079D02*
X010072Y009079D01*
X010022Y009029D02*
X016799Y009029D01*
X016799Y008980D02*
X009973Y008980D01*
X009947Y008954D02*
X009947Y008954D01*
X009923Y008930D02*
X016799Y008930D01*
X019473Y008781D02*
X025449Y008781D01*
X025399Y008731D02*
X019523Y008731D01*
X019528Y008681D02*
X025399Y008681D01*
X025399Y008632D02*
X019528Y008632D01*
X019521Y008582D02*
X025411Y008582D01*
X025461Y008532D02*
X019471Y008532D01*
X025665Y008794D02*
X025728Y008731D01*
X020432Y013650D02*
X019690Y013650D01*
X019690Y013699D02*
X020382Y013699D01*
X020370Y013749D02*
X019690Y013749D01*
X019690Y013799D02*
X020370Y013799D01*
X020371Y013848D02*
X019690Y013848D01*
X019690Y013898D02*
X020421Y013898D01*
X019493Y014643D02*
X019385Y014643D01*
X019434Y014594D02*
X019443Y014594D01*
X019193Y014643D02*
X019060Y014643D01*
X019109Y014594D02*
X019143Y014594D01*
X018989Y014481D02*
X018964Y014506D01*
X017314Y015856D02*
X018314Y016856D01*
X018203Y016978D02*
X008676Y016978D01*
X008626Y016929D02*
X018153Y016929D01*
X018149Y016879D02*
X008577Y016879D01*
X008527Y016829D02*
X018143Y016829D01*
X018094Y016780D02*
X008477Y016780D01*
X008513Y016815D02*
X008513Y016815D01*
X007242Y018171D02*
X004524Y018171D01*
X004574Y018220D02*
X007120Y018220D01*
X007071Y018270D02*
X004623Y018270D01*
X004673Y018320D02*
X007021Y018320D01*
X006971Y018369D02*
X004723Y018369D01*
X004772Y018419D02*
X006922Y018419D01*
X006872Y018469D02*
X004822Y018469D01*
X004872Y018518D02*
X006822Y018518D01*
X006773Y018568D02*
X004921Y018568D01*
X004971Y018618D02*
X006723Y018618D01*
X006673Y018667D02*
X005021Y018667D01*
X005070Y018717D02*
X006624Y018717D01*
X006574Y018767D02*
X005120Y018767D01*
X005170Y018816D02*
X006524Y018816D01*
X006474Y018866D02*
X005219Y018866D01*
X005269Y018916D02*
X006425Y018916D01*
X006375Y018966D02*
X005319Y018966D01*
X005368Y019015D02*
X006325Y019015D01*
X006276Y019065D02*
X005418Y019065D01*
X005468Y019115D02*
X006226Y019115D01*
X006176Y019164D02*
X005518Y019164D01*
X005567Y019214D02*
X006127Y019214D01*
X006077Y019264D02*
X005617Y019264D01*
X005667Y019313D02*
X006027Y019313D01*
X005923Y019363D02*
X005716Y019363D01*
X005766Y019413D02*
X005807Y019413D01*
X006809Y020456D02*
X037624Y020456D01*
X037624Y020506D02*
X006859Y020506D01*
X006909Y020555D02*
X037624Y020555D01*
X037624Y020605D02*
X006958Y020605D01*
X007008Y020655D02*
X037624Y020655D01*
X037624Y020704D02*
X007058Y020704D01*
X007107Y020754D02*
X037624Y020754D01*
X037624Y020804D02*
X007157Y020804D01*
X010415Y018717D02*
X011576Y018717D01*
X011561Y018706D02*
X011514Y018659D01*
X011475Y018605D01*
X011444Y018545D01*
X011423Y018481D01*
X011413Y018415D01*
X011413Y018407D01*
X011813Y018407D01*
X011813Y018807D01*
X011805Y018807D01*
X011739Y018797D01*
X011675Y018776D01*
X011616Y018745D01*
X011561Y018706D01*
X011523Y018667D02*
X010365Y018667D01*
X010316Y018618D02*
X011484Y018618D01*
X011456Y018568D02*
X010266Y018568D01*
X010216Y018518D02*
X011436Y018518D01*
X011421Y018469D02*
X010167Y018469D01*
X010117Y018419D02*
X011414Y018419D01*
X011813Y018419D02*
X011864Y018419D01*
X011864Y018469D02*
X011813Y018469D01*
X011813Y018518D02*
X011864Y018518D01*
X011864Y018568D02*
X011813Y018568D01*
X011813Y018618D02*
X011864Y018618D01*
X011864Y018667D02*
X011813Y018667D01*
X011813Y018717D02*
X011864Y018717D01*
X011864Y018767D02*
X011813Y018767D01*
X011657Y018767D02*
X010465Y018767D01*
X009832Y018568D02*
X009085Y018568D01*
X009134Y018518D02*
X009783Y018518D01*
X009733Y018469D02*
X009178Y018469D01*
X011813Y018270D02*
X011864Y018270D01*
X011864Y018220D02*
X011813Y018220D01*
X011813Y018171D02*
X011864Y018171D01*
X011864Y018121D02*
X011813Y018121D01*
X011813Y018071D02*
X011864Y018071D01*
X011864Y018022D02*
X011813Y018022D01*
X011813Y017972D02*
X011864Y017972D01*
X011955Y017972D02*
X021113Y017972D01*
X021113Y018022D02*
X012067Y018022D01*
X012130Y018071D02*
X021113Y018071D01*
X021113Y018121D02*
X012175Y018121D01*
X012264Y018419D02*
X018643Y018419D01*
X018599Y018469D02*
X012256Y018469D01*
X012242Y018518D02*
X018599Y018518D01*
X018599Y018568D02*
X012221Y018568D01*
X012193Y018618D02*
X018617Y018618D01*
X018667Y018667D02*
X012155Y018667D01*
X011994Y017723D02*
X021013Y017723D01*
X020963Y017674D02*
X012077Y017674D01*
X012127Y017624D02*
X020913Y017624D01*
X020864Y017574D02*
X012165Y017574D01*
X012186Y017525D02*
X020814Y017525D01*
X020764Y017475D02*
X012206Y017475D01*
X012214Y017425D02*
X020715Y017425D01*
X020665Y017376D02*
X012214Y017376D01*
X012214Y017326D02*
X020615Y017326D01*
X020566Y017276D02*
X012201Y017276D01*
X012181Y017227D02*
X020516Y017227D01*
X020466Y017177D02*
X012160Y017177D01*
X012115Y017127D02*
X020417Y017127D01*
X020367Y017078D02*
X012066Y017078D01*
X011979Y016730D02*
X018044Y016730D01*
X020614Y016781D02*
X020614Y017011D01*
X021315Y017712D01*
X021220Y017475D02*
X029490Y017475D01*
X029489Y017425D02*
X021171Y017425D01*
X021121Y017376D02*
X029489Y017376D01*
X029499Y017326D02*
X021071Y017326D01*
X021022Y017276D02*
X029549Y017276D01*
X029757Y017276D02*
X033841Y017276D01*
X033890Y017326D02*
X029807Y017326D01*
X029741Y017674D02*
X034238Y017674D01*
X034288Y017723D02*
X029791Y017723D01*
X029818Y017773D02*
X034337Y017773D01*
X034387Y017823D02*
X029818Y017823D01*
X029818Y017873D02*
X034437Y017873D01*
X034486Y017922D02*
X029782Y017922D01*
X029808Y017972D02*
X034536Y017972D01*
X034586Y018022D02*
X029857Y018022D01*
X029907Y018071D02*
X030443Y018071D01*
X030394Y018121D02*
X029957Y018121D01*
X030006Y018171D02*
X030374Y018171D01*
X030374Y018220D02*
X030056Y018220D01*
X030106Y018270D02*
X030374Y018270D01*
X030418Y018320D02*
X030155Y018320D01*
X030205Y018369D02*
X030467Y018369D01*
X030611Y018369D02*
X034818Y018369D01*
X034774Y018419D02*
X030255Y018419D01*
X030304Y018469D02*
X034774Y018469D01*
X034774Y018518D02*
X030354Y018518D01*
X030404Y018568D02*
X034792Y018568D01*
X035381Y018693D02*
X035476Y018598D01*
X035381Y018693D02*
X030385Y018693D01*
X029653Y017960D01*
X029653Y017819D01*
X030635Y018071D02*
X034624Y018071D01*
X034624Y018121D02*
X030684Y018121D01*
X030704Y018171D02*
X034645Y018171D01*
X034695Y018220D02*
X030704Y018220D01*
X033095Y016531D02*
X020772Y016531D01*
X020778Y016481D02*
X033046Y016481D01*
X032996Y016432D02*
X020778Y016432D01*
X020772Y016382D02*
X032946Y016382D01*
X033083Y016233D02*
X034144Y016233D01*
X034095Y016283D02*
X033133Y016283D01*
X033182Y016332D02*
X034045Y016332D01*
X033995Y016382D02*
X033232Y016382D01*
X033282Y016432D02*
X033946Y016432D01*
X033896Y016481D02*
X033331Y016481D01*
X033381Y016531D02*
X033846Y016531D01*
X033796Y016581D02*
X033431Y016581D01*
X033480Y016630D02*
X033747Y016630D01*
X033697Y016680D02*
X033530Y016680D01*
X033580Y016730D02*
X033647Y016730D01*
X033614Y016906D02*
X034789Y018081D01*
X033791Y017227D02*
X020972Y017227D01*
X020922Y017177D02*
X033741Y017177D01*
X033692Y017127D02*
X020872Y017127D01*
X020823Y017078D02*
X033642Y017078D01*
X033592Y017028D02*
X020773Y017028D01*
X020723Y016978D02*
X033543Y016978D01*
X033513Y016948D02*
X033513Y016948D01*
X033493Y016929D02*
X020715Y016929D01*
X020749Y016879D02*
X033443Y016879D01*
X033393Y016829D02*
X020778Y016829D01*
X020778Y016780D02*
X033344Y016780D01*
X033294Y016730D02*
X020778Y016730D01*
X020745Y016680D02*
X033244Y016680D01*
X033195Y016630D02*
X020695Y016630D01*
X020722Y016581D02*
X033145Y016581D01*
X033033Y016183D02*
X034194Y016183D01*
X034244Y016134D02*
X032984Y016134D01*
X032934Y016084D02*
X034293Y016084D01*
X034343Y016034D02*
X032884Y016034D01*
X032835Y015985D02*
X034393Y015985D01*
X034442Y015935D02*
X032785Y015935D01*
X032735Y015885D02*
X034492Y015885D01*
X034542Y015836D02*
X032685Y015836D01*
X032636Y015786D02*
X034591Y015786D01*
X034855Y016283D02*
X034874Y016283D01*
X034874Y016332D02*
X034805Y016332D01*
X034790Y016382D02*
X034874Y016382D01*
X034906Y016432D02*
X034790Y016432D01*
X034790Y016481D02*
X034956Y016481D01*
X035039Y016331D02*
X035214Y016156D01*
X035214Y010431D01*
X035809Y010569D02*
X037624Y010569D01*
X037624Y010520D02*
X035858Y010520D01*
X035878Y010470D02*
X037624Y010470D01*
X037624Y010420D02*
X035878Y010420D01*
X035878Y010371D02*
X037624Y010371D01*
X037624Y010321D02*
X035836Y010321D01*
X037624Y008284D02*
X002754Y008284D01*
X002754Y008234D02*
X037624Y008234D01*
X037624Y008185D02*
X002754Y008185D01*
X002754Y008135D02*
X037624Y008135D01*
X037624Y008085D02*
X002754Y008085D01*
X002754Y008036D02*
X037624Y008036D01*
X037624Y007986D02*
X002754Y007986D01*
X002754Y007936D02*
X037624Y007936D01*
X037624Y007887D02*
X002754Y007887D01*
X002754Y007837D02*
X037624Y007837D01*
X037624Y007787D02*
X002754Y007787D01*
X002754Y007738D02*
X037624Y007738D01*
X037624Y007688D02*
X002754Y007688D01*
X002754Y007638D02*
X037624Y007638D01*
X037624Y007588D02*
X002754Y007588D01*
X002754Y007539D02*
X037624Y007539D01*
X037624Y007489D02*
X002754Y007489D01*
X002754Y007439D02*
X037624Y007439D01*
X037624Y007390D02*
X002754Y007390D01*
X002754Y007340D02*
X037624Y007340D01*
X037624Y007290D02*
X002754Y007290D01*
X002754Y007241D02*
X037624Y007241D01*
X037624Y007191D02*
X002754Y007191D01*
X002754Y007141D02*
X037624Y007141D01*
X037624Y007092D02*
X002754Y007092D01*
X002754Y007042D02*
X037624Y007042D01*
X037624Y006992D02*
X002754Y006992D01*
X002754Y006943D02*
X037624Y006943D01*
X037624Y006893D02*
X002754Y006893D01*
X002754Y006843D02*
X037624Y006843D01*
X037624Y006794D02*
X002754Y006794D01*
X002754Y006744D02*
X037624Y006744D01*
X037624Y006694D02*
X002754Y006694D01*
X002754Y006645D02*
X037624Y006645D01*
X037624Y006595D02*
X002754Y006595D01*
X002754Y006545D02*
X037624Y006545D01*
X037624Y006495D02*
X002754Y006495D01*
X002754Y006446D02*
X037624Y006446D01*
X037624Y006396D02*
X002754Y006396D01*
X002754Y006346D02*
X037624Y006346D01*
X037624Y006297D02*
X002754Y006297D01*
X002754Y006247D02*
X037624Y006247D01*
X037624Y006197D02*
X002754Y006197D01*
X002754Y006148D02*
X037624Y006148D01*
X037624Y006098D02*
X002754Y006098D01*
X002754Y006048D02*
X037624Y006048D01*
X037624Y005999D02*
X002754Y005999D01*
X002754Y005949D02*
X037624Y005949D01*
X037624Y005899D02*
X002754Y005899D01*
X002754Y005850D02*
X037624Y005850D01*
X037624Y005800D02*
X002754Y005800D01*
X002754Y005750D02*
X037624Y005750D01*
X037624Y005701D02*
X002754Y005701D01*
X002754Y005651D02*
X037624Y005651D01*
X037624Y005601D02*
X002754Y005601D01*
X002754Y005552D02*
X037624Y005552D01*
X037624Y005502D02*
X002754Y005502D01*
X002754Y005452D02*
X037624Y005452D01*
X037624Y005402D02*
X002754Y005402D01*
X002754Y005353D02*
X037624Y005353D01*
X037624Y005303D02*
X002754Y005303D01*
X002754Y005253D02*
X037624Y005253D01*
X037624Y005204D02*
X002754Y005204D01*
X002754Y005154D02*
X037624Y005154D01*
X037624Y005104D02*
X002754Y005104D01*
X002754Y005055D02*
X037624Y005055D01*
X037624Y005005D02*
X002754Y005005D01*
X002754Y004955D02*
X037624Y004955D01*
X037624Y004906D02*
X002754Y004906D01*
X002754Y004856D02*
X037624Y004856D01*
X037624Y004806D02*
X002754Y004806D01*
X002754Y004757D02*
X037624Y004757D01*
X037624Y004707D02*
X002754Y004707D01*
X002754Y004657D02*
X037624Y004657D01*
X037624Y004608D02*
X002754Y004608D01*
X002754Y004558D02*
X037624Y004558D01*
X037624Y004508D02*
X002754Y004508D01*
X002754Y004459D02*
X037624Y004459D01*
X037624Y004409D02*
X002754Y004409D01*
X002754Y004359D02*
X037624Y004359D01*
X037624Y004310D02*
X002754Y004310D01*
X002754Y004260D02*
X037624Y004260D01*
X037624Y004210D02*
X002754Y004210D01*
X002754Y004160D02*
X037624Y004160D01*
X037624Y004111D02*
X002754Y004111D01*
X002754Y004061D02*
X037624Y004061D01*
X037624Y004011D02*
X002754Y004011D01*
X002754Y003962D02*
X037624Y003962D01*
X037624Y003912D02*
X002754Y003912D01*
X002754Y003862D02*
X037624Y003862D01*
X037624Y003813D02*
X002754Y003813D01*
X002754Y003763D02*
X037624Y003763D01*
X037624Y003713D02*
X002754Y003713D01*
X002754Y003664D02*
X037624Y003664D01*
X037624Y003614D02*
X002754Y003614D01*
X002754Y003564D02*
X037624Y003564D01*
X037624Y003515D02*
X002754Y003515D01*
X002754Y003465D02*
X037624Y003465D01*
X037624Y003415D02*
X002754Y003415D01*
X002754Y003366D02*
X037624Y003366D01*
X037624Y003316D02*
X002754Y003316D01*
X002754Y003266D02*
X037624Y003266D01*
X037624Y003217D02*
X002754Y003217D01*
X002754Y003167D02*
X037624Y003167D01*
X037624Y003117D02*
X002754Y003117D01*
X002754Y003067D02*
X037624Y003067D01*
X037624Y003018D02*
X002754Y003018D01*
X002754Y002968D02*
X037624Y002968D01*
X037624Y002918D02*
X002754Y002918D01*
X002754Y002869D02*
X037624Y002869D01*
X037624Y002819D02*
X002754Y002819D01*
X002754Y002769D02*
X037624Y002769D01*
X037624Y002720D02*
X002754Y002720D01*
X002754Y002670D02*
X037624Y002670D01*
X037624Y002620D02*
X002754Y002620D01*
X002754Y002571D02*
X037624Y002571D01*
X037624Y002521D02*
X002754Y002521D01*
X002754Y002471D02*
X037624Y002471D01*
X037624Y002422D02*
X002754Y002422D01*
X002754Y002372D02*
X037624Y002372D01*
X037624Y002322D02*
X002754Y002322D01*
X002754Y002273D02*
X037624Y002273D01*
X037624Y002223D02*
X002754Y002223D01*
X002754Y002173D02*
X037624Y002173D01*
X037624Y002124D02*
X002754Y002124D01*
X002754Y002074D02*
X037624Y002074D01*
X037624Y002024D02*
X002754Y002024D01*
X002754Y001974D02*
X037624Y001974D01*
X037624Y001925D02*
X002754Y001925D01*
X002754Y001875D02*
X037624Y001875D01*
X037624Y001825D02*
X002754Y001825D01*
X002754Y001776D02*
X037624Y001776D01*
X037624Y001726D02*
X002754Y001726D01*
X002754Y001676D02*
X037624Y001676D01*
X037624Y001627D02*
X002754Y001627D01*
X002754Y001577D02*
X037624Y001577D01*
X037624Y001527D02*
X002754Y001527D01*
X002754Y001478D02*
X037624Y001478D01*
X037624Y001428D02*
X002754Y001428D01*
X002754Y001378D02*
X037624Y001378D01*
X037624Y001329D02*
X002754Y001329D01*
X002754Y001279D02*
X037624Y001279D01*
X037624Y001229D02*
X002754Y001229D01*
X002754Y001180D02*
X037624Y001180D01*
X037624Y001130D02*
X002754Y001130D01*
X002754Y001080D02*
X037624Y001080D01*
X037624Y001031D02*
X002754Y001031D01*
X002754Y000981D02*
X037624Y000981D01*
X013513Y012805D02*
X013230Y012805D01*
X013180Y012755D02*
X013463Y012755D01*
X013413Y012706D02*
X013131Y012706D01*
X013081Y012656D02*
X013364Y012656D01*
X013314Y012606D02*
X013031Y012606D01*
X012982Y012557D02*
X013264Y012557D01*
X013215Y012507D02*
X012932Y012507D01*
X012882Y012457D02*
X013165Y012457D01*
X013115Y012408D02*
X012832Y012408D01*
X012783Y012358D02*
X013065Y012358D01*
X013016Y012308D02*
X012733Y012308D01*
X012683Y012259D02*
X012966Y012259D01*
X012916Y012209D02*
X012634Y012209D01*
X012584Y012159D02*
X012867Y012159D01*
X012817Y012109D02*
X012534Y012109D01*
X012485Y012060D02*
X012767Y012060D01*
X012718Y012010D02*
X012435Y012010D01*
X012385Y011960D02*
X012668Y011960D01*
X012618Y011911D02*
X012336Y011911D01*
X012286Y011861D02*
X012569Y011861D01*
X012519Y011811D02*
X012236Y011811D01*
X012187Y011762D02*
X012469Y011762D01*
X012420Y011712D02*
X012137Y011712D01*
X012087Y011662D02*
X012370Y011662D01*
X012320Y011613D02*
X012038Y011613D01*
X011988Y011563D02*
X012271Y011563D01*
X012221Y011513D02*
X011938Y011513D01*
X011889Y011464D02*
X012171Y011464D01*
X012122Y011414D02*
X011839Y011414D01*
X011789Y011364D02*
X012072Y011364D01*
X012022Y011315D02*
X011739Y011315D01*
X011690Y011265D02*
X011972Y011265D01*
X011923Y011215D02*
X011640Y011215D01*
X011590Y011166D02*
X011873Y011166D01*
X011823Y011116D02*
X011541Y011116D01*
X011491Y011066D02*
X011774Y011066D01*
X011724Y011016D02*
X011441Y011016D01*
X011392Y010967D02*
X011674Y010967D01*
X011625Y010917D02*
X011342Y010917D01*
X011292Y010867D02*
X011575Y010867D01*
X011525Y010818D02*
X011243Y010818D01*
X011193Y010768D02*
X011476Y010768D01*
X011426Y010718D02*
X011143Y010718D01*
X011094Y010669D02*
X011376Y010669D01*
X011327Y010619D02*
X011044Y010619D01*
X010994Y010569D02*
X011277Y010569D01*
X011227Y010520D02*
X010945Y010520D01*
X010895Y010470D02*
X011178Y010470D01*
X011128Y010420D02*
X010845Y010420D01*
X010796Y010371D02*
X011078Y010371D01*
X011029Y010321D02*
X010746Y010321D01*
X010696Y010271D02*
X010979Y010271D01*
X010929Y010222D02*
X010646Y010222D01*
X010597Y010172D02*
X010879Y010172D01*
X010830Y010122D02*
X010547Y010122D01*
X010497Y010073D02*
X010780Y010073D01*
X010730Y010023D02*
X010448Y010023D01*
X010398Y009973D02*
X010681Y009973D01*
X010631Y009924D02*
X010348Y009924D01*
X010299Y009874D02*
X010581Y009874D01*
X010532Y009824D02*
X010249Y009824D01*
X010199Y009774D02*
X010482Y009774D01*
X010432Y009725D02*
X010150Y009725D01*
X010100Y009675D02*
X010383Y009675D01*
X010333Y009625D02*
X010050Y009625D01*
X010001Y009576D02*
X010283Y009576D01*
X010234Y009526D02*
X009951Y009526D01*
X009901Y009476D02*
X010184Y009476D01*
X010134Y009427D02*
X009852Y009427D01*
X009802Y009377D02*
X010085Y009377D01*
X010035Y009327D02*
X009752Y009327D01*
X009665Y009526D02*
X002754Y009526D01*
X002754Y009576D02*
X009715Y009576D01*
X009765Y009625D02*
X002754Y009625D01*
X002754Y009675D02*
X009814Y009675D01*
X009864Y009725D02*
X002754Y009725D01*
X002754Y009774D02*
X009914Y009774D01*
X009963Y009824D02*
X002754Y009824D01*
X002754Y009874D02*
X010013Y009874D01*
X010063Y009924D02*
X002754Y009924D01*
X002754Y009973D02*
X010112Y009973D01*
X010162Y010023D02*
X002754Y010023D01*
X002754Y010073D02*
X010212Y010073D01*
X010262Y010122D02*
X002754Y010122D01*
X002754Y010172D02*
X010311Y010172D01*
X010361Y010222D02*
X002754Y010222D01*
X002754Y010271D02*
X009168Y010271D01*
X009172Y010267D02*
X009308Y010267D01*
X009405Y010364D01*
X009405Y010500D01*
X009308Y010596D01*
X009172Y010596D01*
X009075Y010500D01*
X009075Y010364D01*
X009172Y010267D01*
X009118Y010321D02*
X002754Y010321D01*
X002754Y010371D02*
X009075Y010371D01*
X009075Y010420D02*
X002754Y010420D01*
X002754Y010470D02*
X009075Y010470D01*
X009095Y010520D02*
X002754Y010520D01*
X002754Y010569D02*
X009145Y010569D01*
X009335Y010569D02*
X009587Y010569D01*
X009587Y010557D02*
X009683Y010461D01*
X009820Y010461D01*
X009916Y010557D01*
X009916Y010694D01*
X009820Y010790D01*
X009683Y010790D01*
X009587Y010694D01*
X009587Y010557D01*
X009625Y010520D02*
X009385Y010520D01*
X009405Y010470D02*
X009674Y010470D01*
X009829Y010470D02*
X010609Y010470D01*
X010560Y010420D02*
X009405Y010420D01*
X009405Y010371D02*
X010510Y010371D01*
X010460Y010321D02*
X009362Y010321D01*
X009312Y010271D02*
X010411Y010271D01*
X010659Y010520D02*
X009878Y010520D01*
X009916Y010569D02*
X010709Y010569D01*
X010758Y010619D02*
X009916Y010619D01*
X009916Y010669D02*
X010808Y010669D01*
X010858Y010718D02*
X009892Y010718D01*
X009842Y010768D02*
X010907Y010768D01*
X010957Y010818D02*
X002754Y010818D01*
X002754Y010867D02*
X011007Y010867D01*
X011056Y010917D02*
X002754Y010917D01*
X002754Y010967D02*
X011106Y010967D01*
X011156Y011016D02*
X002754Y011016D01*
X002754Y011066D02*
X011205Y011066D01*
X011255Y011116D02*
X002754Y011116D01*
X002754Y011166D02*
X011305Y011166D01*
X011354Y011215D02*
X002754Y011215D01*
X002754Y011265D02*
X011404Y011265D01*
X011454Y011315D02*
X002754Y011315D01*
X002754Y011364D02*
X011504Y011364D01*
X011553Y011414D02*
X002754Y011414D01*
X002754Y011464D02*
X011603Y011464D01*
X011653Y011513D02*
X002754Y011513D01*
X002754Y011563D02*
X011702Y011563D01*
X011752Y011613D02*
X002754Y011613D01*
X002754Y011662D02*
X011802Y011662D01*
X011851Y011712D02*
X002754Y011712D01*
X002754Y011762D02*
X011901Y011762D01*
X011951Y011811D02*
X002754Y011811D01*
X002754Y011861D02*
X012000Y011861D01*
X012050Y011911D02*
X002754Y011911D01*
X002754Y011960D02*
X012100Y011960D01*
X012149Y012010D02*
X002754Y012010D01*
X002754Y012060D02*
X012199Y012060D01*
X012249Y012109D02*
X002754Y012109D01*
X002754Y012159D02*
X012298Y012159D01*
X012348Y012209D02*
X002754Y012209D01*
X002754Y012259D02*
X012398Y012259D01*
X012447Y012308D02*
X002754Y012308D01*
X002754Y012358D02*
X012497Y012358D01*
X012547Y012408D02*
X002754Y012408D01*
X002754Y012457D02*
X012597Y012457D01*
X012646Y012507D02*
X002754Y012507D01*
X002754Y012557D02*
X012696Y012557D01*
X012746Y012606D02*
X002754Y012606D01*
X002754Y012656D02*
X012795Y012656D01*
X009661Y010768D02*
X002754Y010768D01*
X002754Y010718D02*
X009612Y010718D01*
X009587Y010669D02*
X002754Y010669D01*
X002754Y010619D02*
X009587Y010619D01*
X009839Y008781D02*
X010630Y008781D01*
X010580Y008731D02*
X009888Y008731D01*
X009903Y008681D02*
X010574Y008681D01*
X010574Y008632D02*
X009903Y008632D01*
X009903Y008582D02*
X010580Y008582D01*
X010630Y008532D02*
X009856Y008532D01*
X008739Y008647D02*
X008739Y008906D01*
X008574Y008582D02*
X008403Y008582D01*
X008368Y008532D02*
X008620Y008532D01*
X008670Y008483D02*
X008318Y008483D01*
X005239Y014681D02*
X005239Y014731D01*
X005814Y015306D01*
X019838Y020406D02*
X037624Y020406D01*
X037624Y020357D02*
X019888Y020357D01*
X019937Y020307D02*
X037624Y020307D01*
X037624Y020257D02*
X019987Y020257D01*
X020037Y020208D02*
X037624Y020208D01*
X037624Y020158D02*
X020087Y020158D01*
X020136Y020108D02*
X037624Y020108D01*
X037624Y020058D02*
X020186Y020058D01*
X020236Y020009D02*
X037624Y020009D01*
X037624Y019959D02*
X020285Y019959D01*
X020335Y019909D02*
X037624Y019909D01*
X037624Y019860D02*
X020385Y019860D01*
X020434Y019810D02*
X037624Y019810D01*
X037624Y019760D02*
X020484Y019760D01*
X020534Y019711D02*
X037624Y019711D01*
X037624Y019661D02*
X020583Y019661D01*
X020633Y019611D02*
X037624Y019611D01*
X037624Y019562D02*
X020683Y019562D01*
X020732Y019512D02*
X037624Y019512D01*
X037624Y019462D02*
X020782Y019462D01*
X020832Y019413D02*
X037624Y019413D01*
X037624Y019363D02*
X020881Y019363D01*
X020931Y019313D02*
X037624Y019313D01*
X037624Y019264D02*
X020981Y019264D01*
X021030Y019214D02*
X037624Y019214D01*
X037624Y019164D02*
X021080Y019164D01*
X021130Y019115D02*
X037624Y019115D01*
X037624Y019065D02*
X021180Y019065D01*
X021229Y019015D02*
X037624Y019015D01*
X037624Y018966D02*
X021279Y018966D01*
X021329Y018916D02*
X037624Y018916D01*
X037624Y018866D02*
X021378Y018866D01*
M02*
